<?xml version="1.0" encoding="UTF-8"?>
<svg xmlns="http://www.w3.org/2000/svg" width="20" height="20" viewBox="0 0 20 20">
	<title>
		user rights
	</title>
	<g fill="#36c">
		<path d="M20 16.288v-1.632l-1.012-.168c-.057-.226-.17-.45-.338-.788l.619-.844-1.181-1.181-.844.619a3.006 3.006 0 0 0-.788-.338l-.112-1.012h-1.632l-.168 1.012c-.282.056-.507.169-.788.338l-.844-.619-1.18 1.181.562.844c-.169.281-.225.506-.338.787L11 14.6v1.631l1.012.169c.057.281.17.506.338.787l-.563.844 1.182 1.182.844-.563c.224.113.506.225.787.338L14.769 20h1.687l.169-1.012c.281-.057.506-.17.787-.338l.844.619 1.182-1.181-.62-.844c.17-.281.282-.563.338-.788zm-4.5.843a1.657 1.657 0 0 1-1.688-1.687c0-.956.732-1.688 1.688-1.688s1.688.732 1.688 1.688-.732 1.687-1.688 1.687z"/>
		<path d="M1.03 18.28c.01-.526.025-.74.064-.878.143-.496.398-.994.758-1.48.256-.346 1-1.078 1.394-1.371 1.393-1.038 3.068-1.678 5.057-1.934.535-.069 1.596-.12 1.964-.096l.323.022-.084.088-.084.087.285.426c.184.274.271.43.245.438-.036.012-.883.112-.938.111-.013 0-.024.764-.024 1.699v1.698l.532.088c.292.048.53.095.53.105 0 .01-.128.212-.286.45l-.287.432.404.405.403.404H1.016zm8.226-7.35a5.05 5.05 0 0 1-3.548-2.4 5.214 5.214 0 0 1-.657-1.942 5.799 5.799 0 0 1 .076-1.628 4.984 4.984 0 0 1 5.707-3.87c1.547.256 2.91 1.27 3.623 2.694 1.232 2.457.225 5.452-2.245 6.677a4.455 4.455 0 0 1-1.145.407c-.324.074-.452.087-.967.095a5.545 5.545 0 0 1-.844-.031z"/>
	</g>
</svg>
