<?xml version="1.0" encoding="UTF-8"?>
<svg xmlns="http://www.w3.org/2000/svg" width="20" height="20" viewBox="0 0 20 20">
    <title>
        topic reopened
    </title>
    <path fill="#36c" d="M2 0a2 2 0 0 0-2 2v18l4-4h14a2 2 0 0 0 2-2V2a2 2 0 0 0-2-2H2zm2.5 7A1.5 1.5 0 0 1 6 8.5 1.5 1.5 0 0 1 4.5 10 1.5 1.5 0 0 1 3 8.5 1.5 1.5 0 0 1 4.5 7zM10 7a1.5 1.5 0 0 1 1.5 1.5A1.5 1.5 0 0 1 10 10a1.5 1.5 0 0 1-1.5-1.5A1.5 1.5 0 0 1 10 7zm5.5 0A1.5 1.5 0 0 1 17 8.5a1.5 1.5 0 0 1-1.5 1.5A1.5 1.5 0 0 1 14 8.5 1.5 1.5 0 0 1 15.5 7z"/>
</svg>
