<?xml version="1.0" encoding="UTF-8"?>
<svg xmlns="http://www.w3.org/2000/svg" viewBox="0 0 20 20" height="20" width="20">
    <path d="M5.112 14.305v-3.408h3.409V9.193H5.112V5.784H3.408v3.409H0v1.704h3.408v3.408zm8.497-3.695c-1.96 0-3.578-1.62-3.578-3.664 0-2.045 1.619-3.579 3.578-3.579 1.96 0 3.58 1.619 3.58 3.579 0 1.96-1.535 3.664-3.58 3.664zM20 17H7.219v-.511c0-.938.17-1.704.426-2.386.255-.682.682-1.193 1.193-1.704.511-.426 1.193-.767 1.96-1.023l.255-.085.341.17c.682.427 1.449.682 2.3.682.767 0 1.62-.255 2.301-.681l.17-.17.256.084c.767.256 1.364.597 1.96 1.023a4.116 4.116 0 0 1 1.193 1.704A6.63 6.63 0 0 1 20 16.489z"/>
</svg>
