<?xml version="1.0" encoding="UTF-8"?>
<svg xmlns="http://www.w3.org/2000/svg">
	<g opacity=".5">
		<path d="m11 9v14l14-7z"/>
		<path d="m46.156 12q-1.0156 0-1.53 1.0026-0.50782 0.99609-0.50782 3.0013 0 1.9987 0.50782 3.0013 0.51432 0.99609 1.53 0.99609 1.0221 0 1.53-0.99609 0.51432-1.0026 0.51432-3.0013 0-2.0052-0.51432-3.0013-0.50782-1.0026-1.53-1.0026zm0-1.0417q1.6341 0 2.4935 1.2956 0.86589 1.289 0.86589 3.75 0 2.4544-0.86589 3.75-0.85939 1.2891-2.4935 1.2891-1.6341 0-2.5-1.2891-0.85939-1.2956-0.85939-3.75 0-2.4609 0.85939-3.75 0.86589-1.2956 2.5-1.2956z"/>
		<path d="m51.973 19.2h1.3737v1.6536h-1.3737zm0-5.2407h1.3737v1.6536h-1.3737z"/>
		<path d="m59.154 12q-1.0156 0-1.53 1.0026-0.50782 0.99609-0.50782 3.0013 0 1.9987 0.50782 3.0013 0.51432 0.99609 1.53 0.99609 1.0221 0 1.53-0.99609 0.51432-1.0026 0.51432-3.0013 0-2.0052-0.51432-3.0013-0.50782-1.0026-1.53-1.0026zm0-1.0417q1.6341 0 2.4935 1.2956 0.86589 1.289 0.86589 3.75 0 2.4544-0.86589 3.75-0.85939 1.2891-2.4935 1.2891-1.6341 0-2.5-1.2891-0.85939-1.2956-0.85939-3.75 0-2.4609 0.85939-3.75 0.86589-1.2956 2.5-1.2956z"/>
		<path d="m67.643 12q-1.0156 0-1.53 1.0026-0.50782 0.99609-0.50782 3.0013 0 1.9987 0.50782 3.0013 0.51432 0.99609 1.53 0.99609 1.0221 0 1.53-0.99609 0.51432-1.0026 0.51432-3.0013 0-2.0052-0.51432-3.0013-0.50782-1.0026-1.53-1.0026zm0-1.0417q1.6341 0 2.4935 1.2956 0.86589 1.289 0.86589 3.75 0 2.4544-0.86589 3.75-0.85939 1.2891-2.4935 1.2891t-2.5-1.2891q-0.85939-1.2956-0.85939-3.75 0-2.4609 0.85939-3.75 0.86589-1.2956 2.5-1.2956z"/>
		<rect x="85" y="12" height="8" rx="4" ry="4" style="width: calc( 100vw - 95px );" />
	</g>
</svg>
