<?xml version="1.0" encoding="utf-8"?>
<svg xmlns="http://www.w3.org/2000/svg" width="264" height="162" xmlns:xlink="http://www.w3.org/1999/xlink" viewBox="0 0 264 162">
	<defs>
		<path id="a" fill="#eaecf0" d="M0 5h22v6H0z"/>
	</defs>
	<path fill="#fff" d="M24.833 151.362l-11.467 9.995L.5 151.749V.5h263v151.749l-9 6.705V42.5h-39v112.6l-4.393-3.731-7.607 5.33V42.5h-155v110.849l-9.751 8.031"/>
	<path fill="#eaecf0" d="M263 1v150.998l-8 5.96V42h-40v112.019l-3.274-2.779-.589-.499-.633.44-6.504 4.557V42H48v111.099l-9.257 7.661-13.295-9.569-.644-.465-.598.521-10.864 9.47L1 151.499V1h262m1-1H0v152l13.391 10 11.473-10 13.891 10L49 153.6V43h154v114.66l8.078-5.66 4.922 4.18V43h38v116.95l10-7.45V0z"/>
	<path fill="#eaecf0" d="M203 157.66V43H49v110.6l2.145-1.6L63.7 162l13.809-10 14.229 10 12.972-10 12.973 10 13.811-10 12.136 10 13.391-10 14.229 10 12.972-10 12.974 10 5.804-4.34zM11 36c0-7.732 6.268-14 14-14s14 6.268 14 14-6.268 14-14 14-14-6.268-14-14zm243 123.95V43h-38v113.18l7.551 5.82 13.811-10 13.891 10 2.747-2.05zM38 107V72H13v35h25zM232.51 5h26v6h-26V5z"/>
	<use x="208.51" xlink:href="#a"/>
	<path fill="#eaecf0" d="M142 6v4H50V6h92m1-1H49v6h94V5z"/>
	<use x="184.51" xlink:href="#a"/>
	<use width="13" x="161.51" xlink:href="#a"/>
	<use width="6" x="176.51" xlink:href="#a"/>
	<use width="6" x="153.51" xlink:href="#a"/>
	<use width="32" x="9" xlink:href="#a"/>
	<path fill="#eaecf0" stroke="#eaecf0" d="M2 14.5h260"/>
	<path fill="#a2a9b1" d="M221 73h24v1h-24v-1z"/>
	<use width="2" height="2" x="52" y="2"/>
	<path fill="#eaecf0" d="M38 59v-5H13v5h25z"/>
	<path fill="#8acdff" d="M250 47h-30v24h30V47zm-20.268 11h1.08l6.69 6.596 3.634-2.172 5.477 4.557V67h-23.959l7.078-9z"/>
	<path fill="#fff" d="M54 15h155v128H54V15z"/>
	<path fill="#36c" d="M204 24H60v112h144V24zm-97.679 50h5.184l32.129 34.005 17.446-10.42 26.28 21.317V119H72.343l33.978-45z"/>
	<path fill="#fff" d="M191.795 34.937L187.955 31H198v10.067l-3.948-4.221-6.478 6.494L191.21 47H182V36.933l3.637 4.046 6.158-6.042z"/>
</svg>
