<?xml version="1.0" encoding="UTF-8" standalone="no"?>
<!-- Created with Inkscape (http://www.inkscape.org/) -->

<svg
   xmlns:dc="http://purl.org/dc/elements/1.1/"
   xmlns:cc="http://creativecommons.org/ns#"
   xmlns:rdf="http://www.w3.org/1999/02/22-rdf-syntax-ns#"
   xmlns:svg="http://www.w3.org/2000/svg"
   xmlns="http://www.w3.org/2000/svg"
   xmlns:xlink="http://www.w3.org/1999/xlink"
   xmlns:sodipodi="http://sodipodi.sourceforge.net/DTD/sodipodi-0.dtd"
   xmlns:inkscape="http://www.inkscape.org/namespaces/inkscape"
   width="112.88889mm"
   height="93.980003mm"
   viewBox="0 0 399.99998 333.00001"
   id="svg5466"
   version="1.1"
   inkscape:version="0.91 r13725"
   sodipodi:docname="cat-grey.svg"
   inkscape:export-filename="/media/shintaiden/home/rahah/mediawiki/skins/Timeless/resources/images/cat-grey.png"
   inkscape:export-xdpi="90"
   inkscape:export-ydpi="90">
  <defs
     id="defs5468">
    <linearGradient
       inkscape:collect="always"
       id="linearGradient6122">
      <stop
         style="stop-color:#777777;stop-opacity:1;"
         offset="0"
         id="stop6124" />
      <stop
         style="stop-color:#777777;stop-opacity:0;"
         offset="1"
         id="stop6126" />
    </linearGradient>
    <linearGradient
       inkscape:collect="always"
       xlink:href="#linearGradient6122"
       id="linearGradient6128"
       x1="368.19666"
       y1="495.08792"
       x2="287.13586"
       y2="543.32269"
       gradientUnits="userSpaceOnUse"
       gradientTransform="matrix(1.2492765,0,0,1.2594051,-124.17973,-438.14443)" />
  </defs>
  <sodipodi:namedview
     id="base"
     pagecolor="#ffffff"
     bordercolor="#666666"
     borderopacity="1.0"
     inkscape:pageopacity="0.0"
     inkscape:pageshadow="2"
     inkscape:zoom="3.9665929"
     inkscape:cx="100.18835"
     inkscape:cy="193.18924"
     inkscape:document-units="px"
     inkscape:current-layer="layer4"
     showgrid="false"
     fit-margin-top="0"
     fit-margin-left="0"
     fit-margin-right="0"
     fit-margin-bottom="0"
     inkscape:window-width="1920"
     inkscape:window-height="1055"
     inkscape:window-x="0"
     inkscape:window-y="0"
     inkscape:window-maximized="1" />
  <metadata
     id="metadata5471">
    <rdf:RDF>
      <cc:Work
         rdf:about="">
        <dc:format>image/svg+xml</dc:format>
        <dc:type
           rdf:resource="http://purl.org/dc/dcmitype/StillImage" />
        <dc:title></dc:title>
      </cc:Work>
    </rdf:RDF>
  </metadata>
  <g
     inkscape:groupmode="layer"
     id="layer2"
     inkscape:label="Layer 2"
     style="display:inline;opacity:0.05"
     transform="translate(-99.401325,-379.66564)">
    <path
       style="fill:#f9f9f9;fill-rule:evenodd;stroke:none;stroke-width:1px;stroke-linecap:butt;stroke-linejoin:miter;stroke-opacity:1"
       d="M 105.12891 7.8828125 C 103.6543 7.9243165 102.49944 8.2910156 101.78516 9.0722656 C 96.070886 15.322266 91.429124 17.463736 93.214844 41.035156 C 94.1643 53.568016 97.485593 67.481951 100.81836 78.251953 C 102.57917 78.124776 104.34689 78.037127 106.12305 78.003906 C 137.52571 77.416566 171.22567 90.862204 203.5332 95.355469 C 169.3086 96.283911 134.2888 80.757334 101.66797 80.9375 C 104.30728 89.048967 106.82656 94.930702 108.03516 96.214844 C 109.79736 98.087176 109.5898 109.12423 109.54883 118.86328 C 146.90064 114.02442 164.86177 104.07799 195.27734 102.55078 C 162.50988 112.26443 139.14125 117.87257 109.55078 120.09766 C 109.53784 125.6478 109.605 130.64542 110.17773 133 C 111.78486 139.60714 117.14258 200.85742 117.14258 200.85742 L 135.71484 265.85742 L 165.35742 278.35742 L 175.71484 289.07227 C 175.71484 289.07227 175.71344 299.78571 178.92773 300.5 C 182.14202 301.21429 181.07198 308.71457 185.71484 308.35742 C 190.35769 308.00028 207.49971 304.07227 214.64258 309.07227 C 221.78543 314.07227 227.49944 321.57171 236.78516 320.85742 C 246.07087 320.14314 251.07227 311.57088 253.57227 314.78516 C 256.07227 317.99945 257.14342 324.07059 275.71484 324.42773 C 294.28626 324.78487 316.78599 329.07059 320.35742 319.42773 C 323.92886 309.78487 322.85742 296.57143 327.85742 295.5 C 332.85742 294.42857 341.78516 283.00028 341.78516 278.35742 C 341.78516 273.71457 347.14258 271.21484 347.14258 271.21484 L 349.28516 253.71484 L 345 243.35742 L 358.92773 242.64258 L 350.71484 206.57227 L 351.42773 162.28516 L 335.6582 131.23242 C 332.78419 129.75967 329.84424 128.21178 326.66992 126.58984 C 325.3015 125.99944 323.93335 125.40652 322.56055 124.83594 C 323.06471 124.97668 323.55249 125.12916 324.04883 125.27539 C 317.26518 121.90127 309.53784 118.45802 299.9043 115.5957 C 311.43076 117.4044 322.5892 122.46088 333.68164 127.33984 L 324.48242 109.22461 C 314.48699 108.78737 304.46027 109.12014 295.2207 110.64844 C 305.394 108.77282 314.92089 107.90274 323.73242 107.74805 L 293.57227 48.357422 C 293.57227 48.357422 269.64286 55.500282 267.5 50.857422 C 265.35714 46.214572 260.35714 31.572266 257.5 31.572266 C 254.64286 31.572266 200.35742 21.927734 200.35742 21.927734 L 174.64258 14.785156 L 172.33789 18.140625 C 178.95739 28.517017 187.27082 36.792699 202.86328 46.328125 C 187.97054 41.602269 177.91421 31.435594 171.1582 19.859375 L 164.46484 29.607422 L 141.42773 23.177734 C 141.42773 23.177734 115.45118 7.5922846 105.12891 7.8828125 z M 193.7168 106.375 C 164.483 120.46574 166.5586 120.56283 162.03906 151.12891 C 163.53827 114.90677 160.97699 114.59893 193.7168 106.375 z M 300.12891 120.54297 C 304.78603 121.11624 309.14927 121.80738 313.26953 122.63086 C 318.07964 124.63405 322.37199 126.72149 326.34766 128.75391 C 318.94543 125.78537 310.48581 123.1951 300.12891 120.54297 z M 294.77344 125.04102 C 319.72715 130.87088 344.2876 156.992 345.41406 178.11523 C 344.57228 174.43798 332.42349 142.86058 294.77344 125.04102 z "
       id="path6437"
       transform="translate(99.40131,379.66564)" />
    <path
       style="fill:url(#linearGradient6128);fill-opacity:1;fill-rule:evenodd;stroke:none;stroke-width:1px;stroke-linecap:butt;stroke-linejoin:miter;stroke-opacity:1"
       d="m 344.48047,39.767578 -27.13281,13.517578 c 0,0 -29.34048,-9.382914 -33.59961,-10.496094 -4.25911,-1.11315 -14.35352,7.951172 -14.35352,7.951172 0,0 -0.78887,17.334464 3.3125,24.808594 4.10137,7.47413 10.25393,8.903848 20.34961,15.423828 9.38301,6.059723 10.08987,9.976704 14.0625,17.896484 7.29578,-0.84641 14.21454,-1.19499 20.70703,-1.14648 24.58417,0.18364 43.15009,5.90142 53.94141,10.5332 -0.87776,-4.99001 -2.04705,-9.92066 -2.26758,-11.69922 -0.47325,-3.81658 5.36328,-9.064452 5.36328,-9.064452 l 2.20899,-6.201172 -2.52344,-22.103516 9.30664,-26.240234 -11.67383,1.75 c 0,0 -11.51543,16.696782 -17.50976,20.195312 -5.99431,3.49852 -26.97461,4.294922 -26.97461,4.294922 0,0 -9.30711,-2.068703 -9.46485,-5.408203 -0.15774,-3.33949 14.03906,-13.994141 14.03906,-13.994141 l 2.20899,-10.017578 z m -26.26953,69.285152 c -3.65392,-0.035 -7.2852,0.0547 -10.86133,0.27149 0.23377,0.46018 0.43243,0.87873 0.69141,1.36719 0.95771,1.80638 1.44477,4.26107 1.57617,7.14648 20.1301,5.99194 39.3776,19.15617 59.37695,20.28711 3.3313,-1.50256 9.78842,-4.86551 12.71484,-7.07812 1.60392,-1.2127 1.12427,-6.53268 0.20704,-11.97461 -14.04947,-4.38896 -39.26418,-9.78559 -63.70508,-10.01954 z m -8.55664,9.85157 c 0.0146,0.96335 -0.0299,1.9945 -0.084,3.03711 1.25252,0.21926 2.48986,0.44775 3.69922,0.68945 4.81011,2.00319 9.10246,4.09063 13.07813,6.12305 -5.02961,-2.01704 -10.56651,-3.85824 -16.83594,-5.66407 -0.1652,2.27479 -0.46616,4.69531 -0.88086,7.21094 19.49081,10.19934 35.86817,30.65591 36.7832,47.81445 -0.73208,-3.19806 -10.02595,-27.49548 -37.19922,-45.49609 -1.84098,9.89424 -5.1196,20.79256 -7.90234,28.96094 -5.36333,15.74335 -30.9707,43.74804 -30.9707,43.74804 -6.54146,6.80442 -33.42232,27.25959 -35.60157,28.57032 20.9995,1.28121 25.41903,34.87328 8.83204,49.24218 50.22266,-6.15934 20.53561,15.0253 6.91601,28.78711 0,0 6.18184,8.99346 10.2832,13.28711 4.10137,4.29364 42.74853,5.7252 53.00196,3.33985 10.25343,-2.38536 10.2545,-26.23852 9.78125,-28.46485 -0.47324,-2.22633 8.99068,-0.95493 11.83008,-7.79296 2.83941,-6.83804 11.2007,-15.26536 11.04296,-17.96876 -0.15776,-2.70342 1.57719,-10.3366 3.94336,-13.99414 2.36618,-3.65756 -3.94413,-11.45089 -4.89062,-14.15429 -0.94646,-2.7034 14.82812,-0.79492 14.82812,-0.79492 0,0 -2.52398,-8.74596 -4.73242,-15.58399 -2.20842,-6.83803 -3.6289,-22.74023 -3.6289,-22.74023 l 13.25195,-7.95117 9.45312,-11.03126 -10.42382,-13.05859 9.63867,-11.87695 c -2.58938,-2.7178 -5.03598,-5.19814 -7.41797,-7.54492 -2.89821,-2.13092 -5.61213,-4.31958 -6.45508,-5.62696 -0.15013,-0.23284 -0.24082,-0.48779 -0.28711,-0.75781 -5.42804,-4.87754 -10.60547,-8.88131 -16.0918,-12.29883 3.66422,1.61273 7.31134,2.92304 11.17383,3.74805 2.02245,1.65467 3.99193,3.43559 5.92969,5.33008 1.59049,-2.48571 4.65134,-5.15421 6.87305,-6.59571 -15.44156,1.02733 -25.6465,-5.51255 -39.92188,-12.80664 -1.36842,-0.5904 -2.73657,-1.18332 -4.10937,-1.7539 0.50416,0.14074 0.99194,0.29322 1.48828,0.43945 -4.3282,-2.1528 -9.04801,-4.33085 -14.39453,-6.37109 z m -75.91407,114.99414 c -0.0313,-0.002 -0.0604,-0.008 -0.0918,-0.01 -0.11247,0.11338 -0.0636,0.10326 0.0918,0.01 z m 138.3125,-73.68946 c 0.50513,0.67098 1.01029,1.38032 1.51563,2.07227 l 0.56836,-0.70117 c 0,0 -0.82186,-0.52945 -2.08399,-1.3711 z"
       transform="translate(99.40131,379.66564)"
       id="path6059"
       inkscape:connector-curvature="0" />
    <path
       style="fill:#777777;fill-opacity:1;fill-rule:evenodd;stroke:#666666;stroke-width:1.25433064px;stroke-linecap:butt;stroke-linejoin:miter;stroke-opacity:1"
       d="m 277.46111,439.15103 c -0.94646,1.90828 -11.04341,2.86318 -11.04341,2.86318 18.45673,11.35073 50.8862,15.75698 68.30518,2.86316 0,0 -5.83697,1.11269 -10.88481,1.27171 -5.56433,-0.91722 -16.59267,-32.43275 -46.37696,-6.99805 z m 40.97725,8.43211 c 0,0 -21.08155,5.51094 -36.69751,-2.58523 14.61907,-15.73676 27.22086,-11.25558 36.69751,2.58523 z"
       id="path6030"
       inkscape:connector-curvature="0"
       sodipodi:nodetypes="cccccccc" />
    <path
       style="display:inline;fill:#666666;fill-opacity:1;fill-rule:evenodd;stroke:none;stroke-width:1.10525596px;stroke-linecap:butt;stroke-linejoin:miter;stroke-opacity:1"
       d="M 170.69922 8.5117188 C 168.80716 8.6284827 168.89662 10.38242 169.21875 12.90625 C 171.19565 16.454938 173.2555 19.744909 175.57422 22.863281 C 176.30957 22.333265 177.80311 22.477466 180.66406 23.582031 C 191.14908 27.630121 194.49328 29.204826 194.93945 31.003906 C 195.23006 32.175793 191.94289 36.293611 191.51367 38.658203 C 192.22924 39.200015 192.98667 39.744128 193.74414 40.289062 C 193.9214 40.266486 194.06925 40.264069 194.27148 40.224609 C 201.18711 38.875239 206.98633 28.529297 206.98633 28.529297 C 206.98633 28.529297 212.11832 30.553202 214.57227 34.826172 C 217.02619 39.099162 214.1258 38.426883 220.81836 39.101562 C 227.5109 39.776243 228.84848 36.399819 235.54102 36.849609 C 242.23357 37.299399 244.24071 35.725919 246.02539 39.324219 C 247.81006 42.922519 244.24038 42.922986 250.26367 43.597656 C 256.28698 44.272346 259.85833 36.401327 261.41992 43.373047 C 262.98152 50.344747 260.74962 52.368276 262.98047 56.191406 C 265.21131 60.014596 269.00419 62.265666 271.9043 60.691406 C 274.80441 59.117146 275.47447 56.416418 278.59766 54.617188 C 281.72085 52.818047 280.6047 49.671231 285.06641 53.269531 C 289.52812 56.867831 287.07548 57.991336 291.53711 58.666016 C 295.99883 59.340706 297.11359 54.394459 302.02148 57.542969 C 306.92934 60.691479 296.89005 62.713241 309.38281 62.488281 C 316.232 62.364971 327.25283 64.146841 328.57227 64.394531 L 343.4082 43.232422 C 341.74059 42.995302 315.96271 51.589084 312.80664 51.646484 C 299.44665 51.889484 310.18023 49.702831 304.93164 46.300781 C 299.68307 42.898701 298.49213 48.244645 293.7207 47.515625 C 288.94928 46.786615 291.57221 45.571674 286.80078 41.683594 C 282.02936 37.795524 283.2228 41.198528 279.88281 43.142578 C 276.5428 45.086608 275.82799 48.002095 272.72656 49.703125 C 269.62513 51.404155 272.98142 45.953336 270.5957 41.822266 C 268.20998 37.691166 263.1817 38.525328 261.51172 30.992188 C 259.84171 23.459038 256.0254 31.963385 249.58398 31.234375 C 243.14254 30.505345 246.9613 30.505258 245.05273 26.617188 C 243.14415 22.729117 240.99501 24.429349 233.83789 23.943359 C 226.68076 23.457339 225.24894 27.104 218.0918 26.375 C 210.93465 25.64598 214.03639 26.374902 211.41211 21.757812 C 208.78782 17.140722 203.30078 14.953125 203.30078 14.953125 C 203.30078 14.953125 206.24335 23.657194 198.84766 25.115234 C 191.45194 26.573264 190.89511 19.571003 190.41797 17.626953 C 189.94083 15.682923 186.3613 13.979569 175.14844 9.6054688 C 173.04603 8.7853387 171.63371 8.4540488 170.69922 8.5117188 z M 169.65234 17.154297 C 169.74081 19.160016 169.58008 21.329498 168.70898 23.458984 C 165.13042 32.207154 156.9761 25.073724 142.90039 25.802734 L 157.37891 36.216797 C 170.54093 35.542127 171.29239 44.496571 174.63867 36.400391 C 176.24518 32.513507 175.29612 28.505302 175.01953 25.800781 C 173.00821 23.033097 171.23215 20.127414 169.65234 17.154297 z M 335.04297 68.935547 L 327.81836 73.322266 C 327.93391 78.374876 311.99901 88.220396 320.08984 84.753906 C 329.01325 80.930716 328.34384 87.22785 332.35938 80.03125 C 334.96967 75.35311 347.75646 72.309648 349.32031 73.085938 L 335.04297 68.935547 z "
       transform="translate(99.40131,379.66564)"
       id="path6051-7-81" />
    <path
       style="display:inline;fill:#ffffff;fill-rule:evenodd;stroke:none;stroke-width:1.10525596px;stroke-linecap:butt;stroke-linejoin:miter;stroke-opacity:1"
       d="M 170.96289 2.3671875 C 167.54769 2.5779485 170.53158 8.0123923 169.81055 13.972656 C 170.29826 14.827327 170.79469 15.662956 171.29688 16.488281 C 171.55702 16.91506 171.82467 17.332402 172.08984 17.751953 C 172.36807 18.193118 172.64714 18.632701 172.93164 19.066406 C 173.24168 19.538026 173.55659 20.005299 173.875 20.46875 C 174.11543 20.819328 174.3616 21.165495 174.60742 21.511719 C 174.96228 22.010938 175.31476 22.510972 175.68164 23.001953 C 175.17799 17.986459 173.66214 14.634339 180.92773 17.439453 C 191.41274 21.487553 194.75696 23.060235 195.20312 24.859375 C 195.64929 26.658525 187.61952 35.431391 194.53516 34.082031 C 201.45079 32.732661 207.25 22.384766 207.25 22.384766 C 207.25 22.384766 212.382 24.408671 214.83594 28.681641 C 217.28987 32.954631 214.38947 32.282351 221.08203 32.957031 C 227.77458 33.631711 229.11215 30.257231 235.80469 30.707031 C 242.49725 31.156821 244.50634 29.583331 246.29102 33.181641 C 248.0757 36.779931 244.50602 36.780398 250.5293 37.455078 C 256.5526 38.129768 260.122 30.258749 261.68359 37.230469 C 263.24519 44.202169 261.01523 46.225638 263.24609 50.048828 C 265.47694 53.872028 269.26787 56.121135 272.16797 54.546875 C 275.06808 52.972615 275.73814 50.273759 278.86133 48.474609 C 281.98452 46.675459 280.86838 43.528643 285.33008 47.126953 C 289.79179 50.725253 287.33908 51.848757 291.80078 52.523438 C 296.26248 53.198127 297.37727 48.249928 302.28516 51.398438 C 307.19303 54.546947 297.15371 56.570583 309.64648 56.345703 C 322.13925 56.120803 319.68456 59.718303 323.25391 55.445312 C 326.82328 51.172343 341.3247 41.727944 343.10938 42.177734 C 344.89405 42.627504 323.25358 61.518036 327.49219 65.791016 C 331.73081 70.064006 311.43012 82.434528 320.35352 78.611328 C 329.27692 74.788138 328.60946 81.085272 332.625 73.888672 C 336.64052 66.692072 337.53218 69.165133 341.10156 71.414062 C 344.67091 73.663012 345.5635 74.786059 351.14062 72.537109 C 356.71776 70.288179 361.85009 70.962724 363.63477 66.464844 C 365.41945 61.966964 365.1078 64.292969 372.02344 64.292969 C 378.93907 64.292969 385.27148 43.527344 385.27148 43.527344 C 385.27148 43.527344 391.74197 43.976209 390.84961 47.349609 C 389.95728 50.723009 379.02564 58.37046 379.91797 61.96875 C 380.81031 65.56706 385.94113 68.938539 383.04102 72.761719 C 380.14092 76.584929 375.90464 79.060745 380.8125 81.984375 C 385.72037 84.907995 388.17379 91.652314 386.16602 93.226562 C 384.15826 94.800822 380.58851 99.526452 379.25 101.77539 C 377.91149 104.02432 375.67816 102.67313 375.45508 107.8457 C 375.31228 111.15641 375.54661 113.45893 376.48633 116.1582 C 376.51513 116.16881 376.54158 116.1808 376.57031 116.19141 C 377.65474 116.59194 378.68132 116.98982 379.66016 117.38477 C 379.78301 117.43425 379.90224 117.48192 380.02344 117.53125 C 380.8979 117.88784 381.72767 118.23876 382.51367 118.58398 C 382.68114 118.65733 382.84829 118.7281 383.01172 118.80078 C 383.70828 119.1114 384.36222 119.41319 384.98438 119.70898 C 385.16078 119.79264 385.34724 119.87869 385.51758 119.96094 C 386.25691 120.31872 386.95383 120.66584 387.57812 120.99219 C 386.76451 120.68267 385.83067 120.35609 384.86133 120.02539 C 384.46487 119.89073 384.05008 119.75467 383.62891 119.61719 C 383.04483 119.42565 382.42266 119.22925 381.79297 119.0332 C 381.23554 118.86039 380.69415 118.68915 380.10352 118.51367 C 379.42472 118.312 378.69834 118.10838 377.97852 117.9043 C 377.66451 117.81518 377.37065 117.72615 377.04883 117.63672 C 377.51268 118.74786 378.08815 119.95451 378.80273 121.33984 C 381.70284 126.96219 379.24882 131.23407 374.78711 131.45898 C 371.76639 131.61124 373.95583 119.81718 372.22656 116.36328 C 372.21579 116.36057 372.20414 116.35818 372.19336 116.35547 C 371.42502 116.16244 370.63096 115.97304 369.83203 115.78125 C 369.83007 115.78078 369.82814 115.77977 369.82617 115.7793 C 368.88578 116.29402 367.67348 117.39591 366.08594 119.31641 C 361.39192 124.9949 358.61527 130.90501 357.39844 136.24023 C 358.88605 136.62314 360.37596 136.9606 361.86914 137.24219 C 361.92693 137.25305 361.98517 137.26079 362.04297 137.27148 C 362.74345 137.40156 363.44453 137.52011 364.14648 137.625 C 364.20182 137.63327 364.25715 137.64033 364.3125 137.64844 C 364.99982 137.74911 365.68808 137.83932 366.37695 137.91406 C 366.5323 137.93079 366.68832 137.93972 366.84375 137.95508 C 367.44993 138.01547 368.05655 138.07248 368.66406 138.11133 C 368.83898 138.12238 369.01442 138.1236 369.18945 138.13281 C 369.7834 138.16451 370.37733 138.19336 370.97266 138.20312 C 371.20151 138.20674 371.43109 138.19894 371.66016 138.19922 C 372.19006 138.20016 372.71891 138.20305 373.25 138.18555 C 374.02749 138.15967 374.80576 138.11587 375.58594 138.04883 C 374.78191 138.23124 373.99686 138.38865 373.2207 138.53516 C 372.9963 138.57751 372.7749 138.61683 372.55273 138.65625 C 371.97982 138.75792 371.41403 138.8491 370.85547 138.93164 C 370.63935 138.96357 370.42108 138.99822 370.20703 139.02734 C 369.4711 139.1275 368.74573 139.21348 368.0332 139.28125 C 367.93385 139.29069 367.8372 139.29586 367.73828 139.30469 C 367.11911 139.35998 366.509 139.40194 365.90625 139.43359 C 365.71482 139.44364 365.52383 139.45322 365.33398 139.46094 C 364.7721 139.48379 364.21664 139.49708 363.66797 139.5 C 363.5187 139.50078 363.36708 139.50457 363.21875 139.50391 C 362.5691 139.50107 361.9296 139.48292 361.29688 139.45312 C 361.11728 139.44466 360.94004 139.43245 360.76172 139.42188 C 360.26954 139.39271 359.78178 139.35737 359.29883 139.3125 C 359.11361 139.29529 358.92808 139.27728 358.74414 139.25781 C 358.11811 139.19158 357.49709 139.11689 356.88477 139.02539 C 356.697 140.46445 356.63792 141.8397 356.68555 143.14453 C 356.69347 143.15162 356.70106 143.15892 356.70898 143.16602 C 357.01793 143.44249 357.32198 143.73522 357.62891 144.01758 C 358.27544 144.6125 358.91823 145.21814 359.55664 145.83984 C 359.92739 146.20065 360.29771 146.5676 360.66602 146.9375 C 361.23563 147.51007 361.80276 148.09662 362.36719 148.69141 C 362.72261 149.06557 363.07997 149.43336 363.43359 149.81641 C 364.22725 150.67704 365.0165 151.56047 365.80273 152.4668 C 366.27355 153.00896 366.74213 153.57395 367.21094 154.13281 C 367.60003 154.59711 367.98894 155.06314 368.37695 155.53906 C 368.88154 156.15742 369.38732 156.78548 369.89062 157.42383 C 370.19056 157.80453 370.49137 158.19418 370.79102 158.58203 C 372.04848 160.20858 373.30407 161.88833 374.5625 163.64453 C 375.46895 162.9063 376.53137 162.05488 377.96094 160.92969 C 383.2095 156.7986 377.00781 157.52734 377.00781 157.52734 C 377.00781 157.52734 373.90628 155.34106 367.46484 149.75195 C 366.09024 148.55923 365.15742 148.08343 364.61523 147.90039 C 363.89404 147.93329 363.90545 147.66076 364.61523 147.90039 C 365.92472 147.84079 369.58608 146.70231 375.63672 139.30664 C 387.56528 124.72635 379.38091 136.13167 384.15234 135.88867 C 388.92376 135.64566 390.12876 121.80754 387.02734 115.73242 C 383.92591 109.65732 383.21063 106.74144 383.44922 101.15234 C 383.68779 95.563218 390.33031 98.611701 391.76172 96.181641 C 393.19316 93.751601 392.75326 87.056519 394.90039 85.355469 C 397.04755 83.654439 394.42239 76.366091 389.17383 73.207031 C 383.92528 70.047961 388.45914 67.373287 391.56055 63.242188 C 394.66198 59.111117 395.01093 55.942787 394.05664 52.054688 C 393.10236 48.166617 398.95588 39.428283 399.91016 35.783203 C 400.86443 32.138143 393.94727 31.652344 393.94727 31.652344 C 393.94727 31.652344 391.7414 39.355469 384.3457 39.355469 C 376.94998 39.355469 372.71326 51.579363 370.80469 56.439453 C 368.89613 61.299563 363.40765 60.568017 357.44336 62.998047 C 351.47907 65.428107 350.52612 64.213263 346.70898 61.783203 C 342.89183 59.353163 345.0931 56.204319 340.79883 63.980469 C 336.50454 71.756629 344.32285 59.781509 333.2207 62.443359 C 322.52861 65.006909 348.27067 47.716544 346.66992 46.646484 C 341.29952 43.056524 365.2777 21.614916 363.36914 21.128906 C 361.46057 20.642906 331.44017 39.91416 327.62305 44.53125 C 323.80591 49.14833 326.43031 45.258953 313.07031 45.501953 C 299.71032 45.744953 310.44586 43.560253 305.19727 40.158203 C 299.9487 36.756113 298.7558 42.102067 293.98438 41.373047 C 289.21294 40.644037 291.8359 39.429096 287.06445 35.541016 C 282.29303 31.652946 283.48646 35.05596 280.14648 37 C 276.80647 38.94403 276.09167 41.857574 272.99023 43.558594 C 269.88881 45.259634 273.24705 39.808794 270.86133 35.677734 C 268.47562 31.546634 263.44732 32.380796 261.77734 24.847656 C 260.10733 17.314516 256.28908 25.820807 249.84766 25.091797 C 243.40623 24.362767 247.22498 24.362689 245.31641 20.474609 C 243.40783 16.586549 241.25868 18.286771 234.10156 17.800781 C 226.94442 17.314761 225.51455 20.959469 218.35742 20.230469 C 211.20027 19.501439 214.30006 20.230371 211.67578 15.613281 C 209.05149 10.996191 203.56641 8.8105469 203.56641 8.8105469 C 203.56641 8.8105469 206.50897 17.512663 199.11328 18.970703 C 191.71756 20.428733 191.16074 13.428425 190.68359 11.484375 C 190.20645 9.540345 186.62693 7.8369906 175.41406 3.4628906 C 173.31166 2.6427606 171.89737 2.3095175 170.96289 2.3671875 z M 169.28125 16.421875 C 169.1859 16.720516 169.09632 17.018882 168.97461 17.316406 C 165.39605 26.064566 152.77884 20.167474 138.70312 20.896484 L 155.52539 31.419922 C 168.68743 30.745232 171.55607 38.353994 174.90234 30.257812 C 175.38625 29.087022 175.62204 27.904258 175.72852 26.746094 C 173.25861 23.472519 171.13211 19.992704 169.28125 16.421875 z M 55.148438 25.400391 C 50.17852 25.51924 52.948904 33.037404 50.039062 32.8125 C 46.828213 32.56438 16.695619 30.827576 11.755859 32.316406 C 6.8160798 33.805256 1.3826519 37.774915 0.88867188 39.015625 C 0.39469188 40.256325 2.6149806 40.259031 4.8378906 42.244141 C 7.0607806 44.229261 6.3199081 43.483907 8.0488281 49.935547 C 9.7777581 56.387187 7.8039619 53.162014 8.5449219 58.621094 C 9.2858919 64.080174 7.8021002 63.581107 17.681641 71.273438 C 27.561191 78.965767 19.411709 72.266191 27.068359 75.988281 C 34.725009 79.710381 31.761387 78.471828 30.773438 80.705078 C 29.785478 82.938338 24.103418 85.665724 20.892578 91.621094 C 17.681718 97.576454 21.13925 93.358909 37.6875 94.599609 C 54.23572 95.840319 39.170803 95.839468 44.851562 102.04297 C 50.532283 108.24648 54.482987 106.50885 53.248047 124.62305 C 52.013107 142.73728 53.537026 131.49952 56.253906 132.74023 C 58.970786 133.98091 60.163492 127.35231 67.326172 130.57812 C 74.488842 133.80394 64.735261 137.74843 64.488281 141.9668 C 64.241291 146.18518 69.365892 147.86728 65.414062 152.83008 C 61.462263 157.79288 66.586176 153.90404 70.291016 159.85938 C 73.995856 165.81475 66.190533 155.18602 84.220703 159.15625 C 102.25087 163.12651 89.407297 165.11057 89.654297 172.30664 C 89.901267 179.50268 86.938703 175.53254 81.751953 182.48047 C 76.565183 189.42837 89.030441 185.59905 92.488281 187.08789 C 95.946121 188.57673 98.94294 194.10444 100.67188 207.25586 C 102.40078 220.40727 102.64844 205.26953 102.64844 205.26953 C 102.64844 205.26953 109.08368 203.28506 114.02344 213.95508 C 118.96322 224.6251 117.95947 224.12985 119.44141 226.85938 C 120.92334 229.58893 114.27197 230.05795 121.68164 237.00586 C 129.09132 243.95378 125.86199 241.99537 127.83789 249.19141 C 128.42296 251.32221 129.62385 252.26991 131.10742 252.93359 C 128.99529 255.97335 126.77694 260.70625 126.50781 264.44922 C 126.07592 270.45588 142.0062 265.39541 159.59375 277.55859 C 177.5548 289.98007 174.22216 285.10717 173.0293 292.1543 C 171.83646 299.20144 171.35891 299.92874 174.9375 298.4707 C 178.51605 297.01267 179.23242 301.14463 179.23242 305.76172 C 179.23242 310.37882 189.01258 316.45319 194.73828 310.62109 C 200.464 304.78897 215.97031 314.02494 224.32031 322.28711 C 232.6703 330.54927 232.19363 325.20131 238.39648 326.90234 C 244.59933 328.60337 240.30454 324.71715 243.64453 322.28711 C 246.98453 319.85705 252.10874 316.73253 254.25586 321.34961 C 256.403 325.9667 261.77754 331.03338 276.0918 329.81836 C 290.40608 328.60332 301.14105 330.79168 304.00391 331.76367 C 306.86677 332.73571 311.87894 334.19341 316.65039 331.27734 C 321.42178 328.36129 325.4749 318.15609 325.23633 316.45508 C 324.99776 314.75405 325.47648 309.40746 327.14648 303.81836 C 328.81649 298.22926 328.33744 299.9302 331.91602 299.20117 C 335.49457 298.47216 340.98437 293.85471 340.98438 291.18164 C 340.98438 288.5086 340.03022 284.61905 344.08594 280.00195 C 348.14166 275.38486 351.95876 276.11477 350.52734 273.92773 C 349.09591 271.74068 348.13997 268.09656 350.28711 264.9375 C 352.43426 261.77844 370.93479 272.89147 357.09766 259.2832 C 337.44573 239.43372 363.86472 244.905 365.76953 257.71875 C 368.39383 257.23274 359.60721 248.48742 355.74805 223.45508 C 352.66622 203.46483 367.48885 203.19246 364.36328 200.53906 C 364.36328 200.53906 367.70114 197.38323 374.14258 192.03711 C 380.584 186.691 375.57705 186.44667 374.86133 182.55859 C 374.14563 178.6705 371.04292 179.39865 366.27148 175.26758 C 361.50005 171.13649 364.84132 172.1083 368.41992 168.94922 C 370.74462 166.89705 371.94301 165.8148 373.87891 164.21484 C 373.87082 164.20631 373.86355 164.19798 373.85547 164.18945 C 373.13835 163.4325 372.43487 162.70201 371.73633 161.97461 C 371.72304 161.96076 371.71055 161.94743 371.69727 161.93359 C 371.38598 162.28184 370.93988 162.69032 370.32422 163.16992 C 365.41635 166.99311 364.74862 167.6682 361.40234 170.5918 C 358.05606 173.51542 354.93088 172.61627 359.39258 176.43945 C 363.85428 180.26265 366.75652 179.58726 367.42578 183.18555 C 368.09503 186.78386 372.78111 187.00937 366.75781 191.95703 C 360.73451 196.90469 357.60938 199.82812 357.60938 199.82812 C 357.60938 199.82812 339.31788 186.33316 346.67969 208.59766 C 354.0415 230.86214 358.50277 239.85881 356.04883 240.30859 C 353.5949 240.75837 344.44789 243.9059 343.10938 234.91016 C 341.77087 225.91441 325.7095 230.41376 338.64844 243.00781 C 351.58737 255.60186 346.45699 256.50021 344.44922 259.42383 C 342.44144 262.34746 343.33141 265.72205 344.66992 267.74609 C 346.00843 269.77014 342.44088 269.09615 338.64844 273.36914 C 334.856 277.64212 335.74805 281.23906 335.74805 283.71289 C 335.74805 286.18673 330.61776 290.4601 327.27148 291.13477 C 323.9252 291.80946 324.37019 290.23564 322.80859 295.4082 C 321.247 300.58075 320.8023 305.5273 321.02539 307.10156 C 321.24847 308.67581 317.45388 318.12158 312.99219 320.82031 C 308.53048 323.51904 303.84694 322.16912 301.16992 321.26953 C 298.49289 320.36997 288.45152 318.34819 275.06641 319.47266 C 261.68131 320.59713 254.99018 316.32182 252.98242 312.04883 C 250.97466 307.77586 247.85171 310.24911 244.72852 312.49805 C 241.60533 314.74699 245.62247 318.34573 239.82227 316.77148 C 234.02205 315.19722 234.46618 320.14444 226.6582 312.49805 C 218.85023 304.85166 204.35015 296.30762 198.99609 301.70508 C 193.64206 307.10253 185.83398 307.10307 185.83398 302.83008 C 185.83398 298.55709 185.16463 294.73267 181.81836 296.08203 C 178.47208 297.4314 178.91975 296.75824 180.03516 290.23633 C 181.1506 283.71442 190.96699 282.58971 171.55859 276.51758 C 152.15018 270.44544 134.74914 264.59695 135.19531 258.97461 C 135.36391 256.85013 135.6498 255.6192 136.03711 254.91602 C 138.47812 256.231 139.27822 258.46657 140.80469 264.39648 L 137.64648 246.83008 C 134.3002 233.78625 126.27103 239.41058 124.48633 232.88867 C 122.70165 226.36675 132.73942 225.69156 126.04688 219.39453 C 119.3543 213.09751 118.24086 215.12032 116.90234 212.64648 C 115.56383 210.17265 118.46171 210.62357 114 200.95312 C 109.53831 191.28269 101.73047 193.08203 101.73047 193.08203 C 101.73047 193.08203 101.50886 206.79829 99.947266 194.87891 C 98.385666 182.95953 98.384909 183.86107 95.261719 182.51172 C 92.138529 181.16235 87.006626 185.21108 91.691406 178.91406 C 96.376196 172.61703 99.055111 176.21333 98.832031 169.69141 C 98.608941 163.16949 110.20709 161.36979 93.921875 157.77148 C 77.636665 154.17319 75.852139 157.32128 72.505859 151.92383 C 69.159579 146.52637 65.813463 146.30257 69.382812 141.80469 C 72.952192 137.30682 74.737857 137.08296 74.960938 133.25977 C 75.184027 129.43657 76.299548 128.31229 69.830078 125.38867 C 63.360608 122.46505 63.139477 123.13813 60.685547 122.01367 C 58.231607 120.8892 55.999804 136.40748 57.115234 119.99023 C 58.230654 103.57299 54.660247 105.1458 49.529297 99.523438 C 44.398327 93.901107 58.007247 93.903767 43.060547 92.779297 C 28.113847 91.654827 24.990515 95.475575 27.890625 90.078125 C 30.790735 84.680675 35.922113 82.209587 36.814453 80.185547 C 37.706793 78.161507 40.382447 79.283556 33.466797 75.910156 C 26.551167 72.536756 33.913644 78.608419 24.990234 71.636719 C 16.066824 64.664999 17.405588 65.115619 16.736328 60.167969 C 16.067078 55.220309 17.850662 58.144105 16.289062 52.296875 C 14.727473 46.449635 15.398395 47.125312 13.390625 45.326172 C 11.382845 43.527022 9.3741325 43.526814 9.8203125 42.402344 C 10.266482 41.277874 15.175009 37.679428 19.636719 36.330078 C 24.098399 34.980708 51.312771 36.554407 54.212891 36.779297 C 57.112991 37.004207 53.768377 28.683562 60.460938 30.257812 C 67.153478 31.832072 68.178211 33.176883 69.962891 33.851562 C 71.747581 34.526252 74.069921 38.803959 76.300781 34.755859 C 78.531621 30.707779 79.199943 29.13221 81.876953 31.15625 C 84.553983 33.18029 90.576172 37.003906 90.576172 37.003906 L 90.296875 33.060547 C 90.296875 33.060547 83.627933 28.842635 80.664062 26.609375 C 77.700203 24.376125 76.960114 26.111605 74.490234 30.578125 C 72.020344 35.044645 70.044269 29.836237 68.068359 29.091797 C 66.092449 28.347397 64.362775 27.354176 56.953125 25.617188 C 56.258468 25.454346 55.662567 25.388096 55.148438 25.400391 z M 357.5332 148.16406 C 358.18747 150.10304 359.19546 151.69387 360.51172 152.82422 C 366.53502 157.99677 369.43359 160.02148 369.43359 160.02148 C 369.43359 160.02148 369.69132 160.01031 369.82617 160 C 369.815 159.98852 369.80414 159.97827 369.79297 159.9668 C 368.84592 158.99452 367.91835 158.05551 366.99805 157.13281 C 366.55105 156.68523 366.11089 156.2519 365.66992 155.81641 C 364.68329 154.84029 363.70719 153.89138 362.74609 152.97266 C 361.82252 152.09178 360.90277 151.22438 359.99805 150.39453 C 359.17038 149.63405 358.34738 148.88121 357.5332 148.16406 z "
       transform="translate(99.40131,379.66564)"
       id="path6051-7-8" />
    <path
       style="display:inline;fill:#666666;fill-rule:evenodd;stroke:#4d4d4d;stroke-width:1.25433064px;stroke-linecap:butt;stroke-linejoin:miter;stroke-opacity:1"
       d="m 358.73658,482.88969 c -0.19064,4.65522 -17.26464,9.06962 -36.10768,11.29458 -34.10701,4.0273 -46.43406,31.51612 -45.98764,31.66014 10.95643,9.43936 31.12178,43.10285 38.37064,42.7298 7.5849,0.22492 30.33957,-3.37339 36.13978,-0.44978 5.80022,2.92362 5.39232,4.46826 8.70032,4.72277 4.87627,-14.81469 19.64989,-46.4169 20.97,-61.62088 -3.60264,-20.08352 -9.74051,-15.6528 -22.08542,-28.33663 z"
       id="path6036-7"
       inkscape:connector-curvature="0"
       sodipodi:nodetypes="csccsccc" />
    <path
       style="fill:#999999;fill-rule:evenodd;stroke:none;stroke-width:1px;stroke-linecap:butt;stroke-linejoin:miter;stroke-opacity:1"
       d="m 358.92796,485.59058 c -0.19065,4.65522 -17.26464,9.06962 -36.10768,11.29457 -34.10701,4.0273 -46.43407,31.51612 -45.98765,31.66013 10.95644,9.43937 31.1218,43.10285 38.37065,42.72982 7.58489,0.2249 30.33956,-3.37341 36.13978,-0.44979 5.80021,2.92363 5.39231,4.46826 8.70031,4.72277 4.87628,-14.8147 19.64989,-46.4169 20.97001,-61.62089 -3.60263,-20.08352 -9.74051,-15.65279 -22.08542,-28.33661 z"
       id="path6036"
       inkscape:connector-curvature="0"
       sodipodi:nodetypes="csccsccc" />
    <path
       style="fill:#999999;fill-opacity:1;fill-rule:evenodd;stroke:none;stroke-width:1px;stroke-linecap:butt;stroke-linejoin:miter;stroke-opacity:1"
       d="M 56.087891 29.082031 C 55.456543 29.106629 54.985345 29.291983 54.734375 29.685547 C 52.726595 32.834057 51.833984 36.433594 51.833984 36.433594 C 51.833984 36.433594 11.901629 34.85817 9.2246094 38.90625 C 6.5475894 42.95434 7.2167969 46.328125 7.2167969 46.328125 C 7.2167969 46.328125 11.009818 57.348353 13.017578 62.970703 C 15.025348 68.593043 17.255345 73.091194 22.609375 75.115234 C 27.963415 77.139284 33.318359 80.960938 33.318359 80.960938 C 33.318359 80.960938 21.494359 93.779827 22.386719 94.904297 C 23.279049 96.028777 26.626211 96.029297 31.087891 96.029297 C 35.549601 96.029297 46.480892 95.130547 46.257812 96.929688 C 46.034722 98.728837 44.918911 101.42623 48.488281 105.69922 C 52.057641 109.9722 56.964791 122.79145 54.957031 128.63867 C 52.949251 134.48592 55.849509 128.18945 60.980469 128.18945 C 66.111419 128.18945 73.696789 131.11292 71.912109 134.48633 C 70.127419 137.85973 64.774109 143.25749 65.443359 145.05664 C 66.112619 146.85578 68.118988 160.12418 71.242188 159.22461 C 74.365377 158.32502 94.220074 160.79907 95.558594 162.14844 C 96.897104 163.4978 93.551586 174.51836 91.097656 176.99219 C 88.643726 179.46603 83.511761 184.63725 85.519531 185.76172 C 87.527301 186.88618 94.220507 185.31272 95.335938 188.23633 C 96.451358 191.15995 100.68945 204.87891 100.68945 204.87891 C 100.68945 204.87891 107.82817 200.83081 109.83594 204.87891 C 111.8437 208.927 118.98242 224.44336 118.98242 224.44336 L 137.72266 258.40234 C 137.72266 258.40234 141.51424 236.36288 138.16797 230.51562 C 134.82169 224.6684 123.66878 197.00695 121.21484 186.88672 C 118.76091 176.76651 115.19141 156.52539 115.19141 156.52539 C 115.19141 156.52539 110.06031 128.86315 109.16797 122.79102 C 109.06052 122.05983 108.97409 121.15573 108.90234 120.14258 C 100.14967 120.78421 90.874223 121.14709 80.613281 121.2168 C 91.221525 120.81612 100.50491 120.00784 108.83984 118.94922 C 108.4203 111.38062 108.7207 99.177734 108.7207 99.177734 C 108.7207 99.177734 106.31501 91.176786 103.39062 80.962891 C 88.03281 80.793178 73.188704 83.941243 59.195312 93.78125 C 72.801559 83.282606 87.408776 78.951552 102.58984 78.136719 C 98.237472 62.817291 93.137518 43.881512 92.882812 38.232422 C 89.090362 37.782642 77.935547 29.236328 77.935547 29.236328 L 72.804688 36.658203 C 72.804688 36.658203 60.507325 28.909847 56.087891 29.082031 z "
       transform="translate(99.40131,379.66564)"
       id="path6105" />
    <path
       style="display:inline;fill:#cccccc;fill-rule:evenodd;stroke:none;stroke-width:1.10525596px;stroke-linecap:butt;stroke-linejoin:miter;stroke-opacity:1"
       d="M 170.14453 4.4941406 C 167.41038 4.662872 168.78236 8.1831493 169.07031 12.636719 C 169.07036 12.637384 169.07027 12.638007 169.07031 12.638672 C 169.07829 12.653074 169.08577 12.667247 169.09375 12.681641 C 169.50054 13.415389 169.91213 14.137676 170.32812 14.849609 C 170.34805 14.883714 170.36872 14.917115 170.38867 14.951172 C 171.66599 17.13149 172.99215 19.21439 174.4043 21.222656 C 174.407 21.226494 174.40941 21.230538 174.41211 21.234375 C 174.24007 18.676955 174.99659 17.592449 180.10938 19.566406 C 190.59438 23.614506 193.94056 25.187178 194.38672 26.986328 C 194.83289 28.785468 186.80116 37.558354 193.7168 36.208984 C 200.63243 34.859614 206.43164 24.511719 206.43164 24.511719 C 206.43164 24.511719 211.56365 26.535624 214.01758 30.808594 C 216.47152 35.081584 213.57112 34.409304 220.26367 35.083984 C 226.95623 35.758654 228.29378 32.384184 234.98633 32.833984 C 241.67888 33.283774 243.68798 31.710294 245.47266 35.308594 C 247.25735 38.906884 243.68765 38.905398 249.71094 39.580078 C 255.73423 40.254758 259.30363 32.385712 260.86523 39.357422 C 262.42682 46.329122 260.19687 48.352591 262.42773 52.175781 C 264.65858 55.998981 268.4495 58.248078 271.34961 56.673828 C 274.24972 55.099568 274.91978 52.400712 278.04297 50.601562 C 281.16616 48.802422 280.05003 45.653653 284.51172 49.251953 C 288.97343 52.850243 286.52072 53.975711 290.98242 54.650391 C 295.44413 55.325081 296.55892 50.376881 301.4668 53.525391 C 306.37468 56.673911 296.33535 58.697546 308.82812 58.472656 C 321.32088 58.247766 318.86814 61.845256 322.4375 57.572266 C 326.00686 53.299296 340.50634 43.852944 342.29102 44.302734 C 344.0757 44.752514 322.43718 63.644969 326.67578 67.917969 C 330.9144 72.190949 310.61177 84.561481 319.53516 80.738281 C 328.45857 76.915101 327.7911 83.212225 331.80664 76.015625 C 335.82216 68.819025 336.71382 71.292096 340.2832 73.541016 C 343.85256 75.789966 344.74709 76.913003 350.32422 74.664062 C 355.90136 72.415122 361.03173 73.089677 362.81641 68.591797 C 364.60108 64.093917 364.28945 66.419922 371.20508 66.419922 C 378.12072 66.419922 384.45314 45.654297 384.45312 45.654297 C 384.45312 45.654297 390.9236 46.103163 390.03125 49.476562 C 389.13892 52.849972 378.20923 60.497403 379.10156 64.095703 C 379.99391 67.694013 385.12473 71.065482 382.22461 74.888672 C 379.32452 78.711872 375.08627 81.185755 379.99414 84.109375 C 384.90201 87.032995 387.35544 93.779266 385.34766 95.353516 C 383.3399 96.927776 379.77016 101.6534 378.43164 103.90234 C 377.09313 106.15128 374.86174 104.80009 374.63867 109.97266 C 374.54449 112.15615 374.6244 113.89747 374.94922 115.60547 C 377.55027 116.52308 379.87693 117.44034 381.92188 118.32227 C 381.93602 118.32835 381.95268 118.33572 381.9668 118.3418 C 382.00425 118.35797 382.03891 118.37448 382.07617 118.39062 C 382.97429 118.77981 383.81202 119.15861 384.59766 119.52734 C 384.74599 119.59685 384.89089 119.66576 385.03516 119.73438 C 385.81444 120.10551 386.54346 120.46279 387.20312 120.80273 C 387.21859 120.8107 387.23851 120.82018 387.25391 120.82812 C 386.98614 119.72782 386.64455 118.71062 386.20898 117.85742 C 383.10753 111.78232 382.39226 108.86841 382.63086 103.2793 C 382.86943 97.690164 389.51194 100.73864 390.94336 98.308594 C 392.3748 95.878554 391.93489 89.183462 394.08203 87.482422 C 396.22918 85.781382 393.60404 78.493054 388.35547 75.333984 C 383.10693 72.174924 387.64079 69.500241 390.74219 65.369141 C 393.84362 61.238081 394.19257 58.069741 393.23828 54.181641 C 392.284 50.293581 398.13751 41.555226 399.0918 37.910156 C 400.04608 34.265086 393.12891 33.777344 393.12891 33.777344 C 393.12891 33.777344 390.92304 41.482422 383.52734 41.482422 C 376.13161 41.482422 371.89489 53.706306 369.98633 58.566406 C 368.07776 63.426506 362.5893 62.69496 356.625 65.125 C 350.66071 67.55505 349.70776 66.340216 345.89062 63.910156 C 342.07347 61.480106 344.27475 58.331272 339.98047 66.107422 C 335.68619 73.883592 343.50449 61.908462 332.40234 64.570312 C 321.71024 67.133864 347.45231 49.843497 345.85156 48.773438 C 340.48115 45.183477 364.45933 23.741859 362.55078 23.255859 C 360.64221 22.769849 330.62182 42.041123 326.80469 46.658203 C 322.98755 51.275283 325.61196 47.385906 312.25195 47.628906 C 298.89196 47.871906 309.62749 45.685263 304.37891 42.283203 C 299.13034 38.881133 297.93744 44.22902 293.16602 43.5 C 288.39459 42.771 291.01753 41.556039 286.24609 37.667969 C 281.47467 33.779899 282.67007 37.18096 279.33008 39.125 C 275.99008 41.06903 275.27332 43.984517 272.17188 45.685547 C 269.07047 47.386577 272.42869 41.935757 270.04297 37.804688 C 267.65725 33.673597 262.62897 34.507759 260.95898 26.974609 C 259.28898 19.441469 255.47072 27.94776 249.0293 27.21875 C 242.58787 26.48972 246.40662 26.489634 244.49805 22.601562 C 242.58947 18.713492 240.44033 20.413724 233.2832 19.927734 C 226.12606 19.441724 224.69619 23.086422 217.53906 22.357422 C 210.3819 21.628402 213.48171 22.357314 210.85742 17.740234 C 208.23313 13.123144 202.74805 10.9375 202.74805 10.9375 C 202.74805 10.9375 205.69061 19.639626 198.29492 21.097656 C 190.8992 22.555686 190.34238 15.555388 189.86523 13.611328 C 189.38809 11.667298 185.80856 9.9639437 174.5957 5.5898438 C 172.4933 4.7697038 171.07901 4.4364806 170.14453 4.4941406 z M 169.01562 15.900391 C 168.88977 17.071212 168.63896 18.263334 168.15625 19.443359 C 164.57768 28.191529 155.30618 21.450677 141.23047 22.179688 L 154.70703 33.546875 C 167.86906 32.872185 170.73967 40.478994 174.08594 32.382812 C 175.03665 30.082607 175.07691 27.738225 174.90234 25.638672 C 174.87925 25.60669 174.85897 25.573034 174.83594 25.541016 C 174.34279 24.855564 173.8662 24.159695 173.40039 23.458984 C 173.32961 23.352063 173.25763 23.245929 173.1875 23.138672 C 171.65535 20.806242 170.28696 18.394095 169.03711 15.943359 C 169.02985 15.929131 169.02287 15.914622 169.01562 15.900391 z M 54.871094 27.542969 C 49.161044 27.119379 52.230883 35.172113 49.220703 34.939453 C 46.009853 34.691323 15.87726 32.954539 10.9375 34.443359 C 5.99772 35.932209 0.5642965 39.901878 0.0703125 41.142578 C -0.4236605 42.383288 1.7966213 42.384031 4.0195312 44.369141 C 6.2424213 46.354261 5.5015487 45.61086 7.2304688 52.0625 C 8.9593988 58.51415 6.9856025 55.288977 7.7265625 60.748047 C 8.4675325 66.207137 6.9837415 65.708061 16.863281 73.400391 C 26.742831 81.092731 18.59336 74.393134 26.25 78.115234 C 33.90666 81.837334 30.943028 80.598781 29.955078 82.832031 C 28.967118 85.065301 23.285059 87.792687 20.074219 93.748047 C 16.863359 99.703407 20.320891 95.485854 36.869141 96.726562 C 53.417361 97.967253 38.352443 97.966414 44.033203 104.16992 C 49.713923 110.37342 53.664627 108.6358 52.429688 126.75 C 51.194738 144.86422 52.718657 133.62648 55.435547 134.86719 C 58.152427 136.10788 59.345133 129.47927 66.507812 132.70508 C 73.670483 135.9309 63.916892 139.87538 63.669922 144.09375 C 63.422932 148.31213 68.547533 149.99424 64.595703 154.95703 C 60.643893 159.91984 65.767816 156.03098 69.472656 161.98633 C 73.177496 167.94169 65.372174 157.31296 83.402344 161.2832 C 101.43251 165.25345 88.588936 167.23753 88.835938 174.43359 C 89.082908 181.62963 86.120344 177.6595 80.933594 184.60742 C 75.746814 191.55532 88.212082 187.72599 91.669922 189.21484 C 95.127762 190.70368 98.124586 196.22943 99.853516 209.38086 C 101.58244 222.53226 102.83984 207.39648 102.83984 207.39648 C 102.83984 207.39648 108.26531 205.41201 113.20508 216.08203 C 118.14486 226.75205 117.14112 226.25681 118.62305 228.98633 C 120.10498 231.71587 113.45361 232.18489 120.86328 239.13281 C 128.27294 246.08072 125.04363 244.12231 127.01953 251.31836 C 127.60461 253.44916 128.80549 254.39685 130.28906 255.06055 C 128.17693 258.1003 125.95857 262.83321 125.68945 266.57617 C 125.25757 272.58283 143.538 264.78082 158.77734 279.68359 C 174.3905 294.95192 173.4038 287.23412 172.21094 294.28125 C 171.01811 301.32839 170.54056 302.05571 174.11914 300.59766 C 177.6977 299.13964 178.41406 303.27159 178.41406 307.88867 C 178.41406 310.05515 181.68111 311.25577 184.55859 312.68359 C 177.23369 298.58743 179.70438 281.52637 170.74023 278.64453 C 151.33182 272.57239 133.93077 266.72391 134.37695 261.10156 C 134.54555 258.97709 134.83144 257.74615 135.21875 257.04297 C 137.65976 258.35795 140.06728 260.77127 141.59375 266.70117 L 136.82812 248.95703 C 133.48185 235.9132 127.79446 241.08636 126.00977 234.56445 C 124.22509 228.04253 131.92106 227.81851 125.22852 221.52148 C 118.53596 215.22446 117.4225 217.24728 116.08398 214.77344 C 114.74547 212.29961 117.6453 212.75051 113.18359 203.08008 C 108.7219 193.40965 100.91211 195.20898 100.91211 195.20898 C 100.91211 195.20898 100.6905 208.92524 99.128906 197.00586 C 97.567306 185.08649 97.566549 185.98804 94.443359 184.63867 C 91.320169 183.28931 86.188267 187.33804 90.873047 181.04102 C 95.557837 174.74399 98.236752 178.34028 98.013672 171.81836 C 97.790582 165.29644 109.38874 163.49675 93.103516 159.89844 C 76.818306 156.30015 75.03378 159.44823 71.6875 154.05078 C 68.34122 148.65333 64.995093 148.42952 68.564453 143.93164 C 72.133833 139.43377 73.919498 139.2099 74.142578 135.38672 C 74.365668 131.56351 75.481189 130.43925 69.011719 127.51562 C 62.542249 124.59201 62.321116 125.26508 59.867188 124.14062 C 57.413248 123.01617 55.181445 138.53249 56.296875 122.11523 C 57.412295 105.69799 53.841897 107.27274 48.710938 101.65039 C 43.579977 96.028052 57.188888 96.03072 42.242188 94.90625 C 27.295488 93.78178 24.172156 97.602538 27.072266 92.205078 C 29.972376 86.807628 35.103754 84.33654 35.996094 82.3125 C 36.888434 80.28846 39.564087 81.410519 32.648438 78.037109 C 25.732807 74.663709 33.095275 80.735372 24.171875 73.763672 C 15.248465 66.791962 16.587229 67.242582 15.917969 62.294922 C 15.248719 57.347262 17.032303 60.271068 15.470703 54.423828 C 13.909113 48.576598 14.580036 49.252275 12.572266 47.453125 C 10.564486 45.653975 8.5557831 45.653777 9.0019531 44.529297 C 9.4481331 43.404827 14.356659 39.806391 18.818359 38.457031 C 23.280049 37.107661 50.496364 38.68135 53.396484 38.90625 C 56.296584 39.13115 52.950018 30.808552 59.642578 32.382812 C 66.335118 33.957072 67.895008 34.85657 69.679688 35.53125 C 71.464367 36.20594 73.251552 40.930903 75.482422 36.882812 C 77.713262 32.834733 78.381584 31.259163 81.058594 33.283203 C 83.735624 35.307243 90.5625 39.220703 90.5625 39.220703 L 90.193359 35.277344 C 90.193359 35.277344 82.809583 30.969598 79.845703 28.736328 C 76.881853 26.503078 76.141755 28.238558 73.671875 32.705078 C 71.201985 37.171598 69.22592 31.961227 67.25 31.216797 C 65.27409 30.472387 63.546369 29.481131 56.136719 27.744141 C 55.673619 27.635581 55.251754 27.571199 54.871094 27.542969 z M 375.32227 117.16797 C 375.84614 119.0055 376.68164 120.93745 377.98633 123.4668 C 380.88643 129.08915 378.43046 133.36104 373.96875 133.58594 C 369.50705 133.81083 376.42183 107.94778 365.26758 121.44141 C 361.20703 126.35357 358.58092 131.44144 357.1543 136.17969 C 357.15828 136.18073 357.16203 136.18256 357.16602 136.18359 C 357.92298 136.38094 358.68115 136.56595 359.43945 136.73828 C 360.19463 136.9099 360.95035 137.06828 361.70703 137.21289 C 361.74737 137.2206 361.78778 137.22675 361.82812 137.23438 C 362.55554 137.37193 363.28273 137.49691 364.01172 137.60742 C 364.04097 137.61186 364.07035 137.61475 364.09961 137.61914 C 364.82239 137.72758 365.54699 137.82441 366.27148 137.9043 C 366.45741 137.92468 366.64404 137.93665 366.83008 137.95508 C 367.40924 138.01279 367.98799 138.06738 368.56836 138.10547 C 368.81352 138.12142 369.0593 138.12634 369.30469 138.13867 C 369.8427 138.166 370.38078 138.19573 370.91992 138.20508 C 370.92643 138.20519 370.93294 138.20497 370.93945 138.20508 C 371.23136 138.20989 371.52415 138.19984 371.81641 138.19922 C 372.28282 138.19841 372.74946 138.20258 373.2168 138.1875 C 374.0053 138.16183 374.79467 138.11683 375.58594 138.04883 C 374.74796 138.23895 373.93079 138.40159 373.12305 138.55273 C 372.93693 138.58754 372.75293 138.62152 372.56836 138.6543 C 371.9026 138.77262 371.24606 138.87815 370.59961 138.9707 C 370.45306 138.99165 370.30379 139.01551 370.1582 139.03516 C 369.39272 139.13865 368.6406 139.22451 367.90039 139.29297 C 367.76182 139.30573 367.62601 139.31461 367.48828 139.32617 C 366.8567 139.37945 366.23368 139.41864 365.61914 139.44727 C 365.48456 139.45348 365.34865 139.46174 365.21484 139.4668 C 363.73127 139.52348 362.2955 139.50814 360.89844 139.42969 C 360.80975 139.42468 360.72119 139.41959 360.63281 139.41406 C 359.19707 139.32476 357.80136 139.16945 356.4375 138.95117 C 356.18346 140.17062 356.03463 141.34585 355.94336 142.49023 C 355.96243 142.50691 355.98094 142.52432 356 142.54102 C 356.47856 142.9602 356.95215 143.3931 357.42578 143.82617 C 358.22404 144.55703 359.01687 145.30053 359.80273 146.07227 C 359.80406 146.07357 359.80531 146.07487 359.80664 146.07617 C 360.17996 146.44207 360.54904 146.826 360.91992 147.20117 C 361.37617 147.66355 361.8322 148.13111 362.28516 148.60742 C 362.7154 149.05935 363.1466 149.50966 363.57422 149.97461 C 363.64579 149.99033 363.69825 149.99405 363.79688 150.02734 C 365.10636 149.96774 368.76772 148.82926 374.81836 141.43359 C 386.74692 126.85329 378.56255 138.25864 383.33398 138.01562 C 387.42478 137.80728 388.88435 127.61593 387.26562 120.88086 C 386.49874 120.59308 385.66011 120.29562 384.76172 119.99023 C 384.17747 119.79211 383.52929 119.58665 382.89258 119.38281 C 382.46828 119.24659 382.04625 119.11098 381.59961 118.97266 C 380.82589 118.73376 380.02101 118.49174 379.18359 118.24805 C 378.88151 118.15993 378.56787 118.07293 378.25781 117.98438 C 377.30836 117.71375 376.34238 117.44125 375.32227 117.16797 z M 363.79688 150.02734 C 363.71498 150.03107 363.67633 150.02053 363.61328 150.01758 C 363.62657 150.03204 363.63906 150.04803 363.65234 150.0625 C 364.62067 151.11756 365.58308 152.2027 366.54102 153.32617 C 366.54223 153.32759 366.54371 153.32866 366.54492 153.33008 C 366.55352 153.34016 366.56172 153.35124 366.57031 153.36133 C 367.53312 154.49133 368.49268 155.65417 369.44922 156.85547 C 370.41439 158.0676 371.37871 159.31464 372.3418 160.60156 C 373.30561 161.88946 374.26833 163.21311 375.23438 164.57812 C 375.8399 164.09412 376.36198 163.67258 377.14453 163.05664 C 382.39309 158.92555 376.18945 159.6543 376.18945 159.6543 C 376.18945 159.6543 373.08791 157.46801 366.64648 151.87891 C 365.27188 150.68619 364.33907 150.21038 363.79688 150.02734 z M 355.99023 146.83008 C 356.38827 150.34941 357.66294 153.20754 359.69336 154.95117 C 365.71665 160.12372 368.61523 162.14844 368.61523 162.14844 C 368.61523 162.14844 374.41373 161.47367 369.50586 165.29688 C 363.04469 171.44155 356.63235 172.26115 366.08789 177.89062 C 365.87397 177.71908 365.67429 177.586 365.45312 177.39453 C 360.68169 173.26344 364.02297 174.23524 367.60156 171.07617 C 370.48443 168.53127 371.62075 167.48086 374.6543 165.04102 C 374.65199 165.03857 374.65074 165.03565 374.64844 165.0332 C 373.07644 163.36628 371.55958 161.78662 370.07031 160.25391 C 369.88026 160.05836 369.68491 159.85354 369.49609 159.66016 C 368.09093 158.22052 366.72487 156.85127 365.37891 155.52539 C 365.17659 155.32622 364.96872 155.11659 364.76758 154.91992 C 363.54821 153.72685 362.36012 152.60241 361.17773 151.49805 C 360.7897 151.13588 360.39269 150.75542 360.00781 150.40234 C 359.3931 149.83804 358.77943 149.27766 358.17188 148.73633 C 357.4403 148.08449 356.71374 147.4497 355.99023 146.83008 z "
       transform="translate(99.40131,379.66564)"
       id="path6051-7" />
    <path
       style="fill:#666666;fill-rule:evenodd;stroke:none;stroke-width:1px;stroke-linecap:butt;stroke-linejoin:miter;stroke-opacity:1"
       d="m 238.01582,623.45046 c -2.00776,-15.96746 -16.06212,-32.60959 -18.73914,-54.87407 -2.67701,-22.2645 -5.13096,-33.28429 -5.13096,-33.28429 0,0 6.24639,32.83449 12.49277,47.67748 6.24638,14.84299 12.71585,14.61809 11.37733,40.48088 z"
       id="path6043"
       inkscape:connector-curvature="0" />
    <path
       style="fill:#f2f2f2;fill-opacity:1;fill-rule:evenodd;stroke:none;stroke-width:1.25433064px;stroke-linecap:butt;stroke-linejoin:miter;stroke-opacity:1"
       d="m 358.78311,563.4134 c 1.88527,-5.73467 4.89888,-10.23706 4.47293,-18.49585 -2.26568,1.12404 -4.41176,4.17919 -6.56981,7.04129 0,0 -7.49577,-21.04258 -13.07289,-23.29152 -5.57713,-2.24894 -20.07766,1.79915 -26.21251,0.2249 -6.13484,-1.57427 -11.15425,7.1966 -11.15425,7.1966 0,0 -3.34628,-3.59831 -7.36182,-5.95969 -4.01552,-2.36139 -18.73915,-3.14852 -18.73915,-3.14852 6.48706,-11.90241 13.32849,-21.05419 27.66256,-25.97523 0.63977,3.13027 1.5105,6.3071 3.19414,9.64784 1.80713,-3.21429 2.80066,-7.08282 3.39248,-9.88871 3.86344,0.48993 6.58112,0.97987 11.93738,1.4698 0.41924,2.6838 0.68308,5.39893 2.11138,7.87928 1.63981,-2.53199 2.35954,-5.00213 2.93278,-7.46243 10.03121,2.06195 20.54361,2.18357 30.97616,2.62721 1.75541,5.79866 1.45253,12.19017 1.86915,18.37444 1.84267,-4.98845 3.13998,-10.5267 3.93105,-16.5753 l 1.00388,6.29703 c 2.69907,-2.1292 2.69629,-6.30119 3.90399,-9.55798 15.6137,6.12055 -10.25997,53.05778 -14.27745,59.59684 z"
       id="path6045"
       inkscape:connector-curvature="0"
       sodipodi:nodetypes="cccsscsccccccccccccc" />
    <path
       style="fill:#f2f2f2;fill-rule:evenodd;stroke:none;stroke-width:1px;stroke-linecap:butt;stroke-linejoin:miter;stroke-opacity:1"
       d="m 314.64556,565.09052 c -2.69021,-1.0517 -2.87918,-15.18225 -1.67314,-15.29277 3.36363,5.05014 6.48877,8.17679 9.25804,8.43351 0,0 -2.78856,6.63438 -7.5849,6.85926 z"
       id="path6047"
       inkscape:connector-curvature="0"
       sodipodi:nodetypes="cccc" />
    <path
       style="fill:#f2f2f2;fill-rule:evenodd;stroke:none;stroke-width:1px;stroke-linecap:butt;stroke-linejoin:miter;stroke-opacity:1"
       d="m 327.13833,561.04243 c -1.55314,-6.37198 -0.96099,-12.74398 0.44617,-19.11597 3.36735,5.12409 3.74248,10.03904 6.46946,14.05588 0,0 0.66926,5.06009 -6.91563,5.06009 z"
       id="path6049"
       inkscape:connector-curvature="0"
       sodipodi:nodetypes="cccc" />
    <path
       style="fill:#777777;fill-opacity:1;fill-rule:evenodd;stroke:#666666;stroke-width:1.25433064px;stroke-linecap:butt;stroke-linejoin:miter;stroke-opacity:1"
       d="m 338.62775,455.21818 c 2.99715,-2.7034 8.83372,-4.92975 15.7745,-4.45267 6.94078,0.47708 18.77166,4.29364 19.71812,5.88389 0.94647,1.59024 0.47324,10.17753 -0.94646,8.90533 -1.41972,-1.27219 -4.89011,-3.18047 -4.89011,-1.74926 0,1.43122 0.3155,12.40386 -3.15489,12.88093 -3.4704,0.47709 -14.82803,-3.02145 -14.19705,-5.56583 0.63097,-2.54438 4.10257,-4.32391 4.5746,-7.63315 0.21702,-1.52146 -0.55834,-5.12339 -6.46754,-3.33949 -5.1134,1.54365 -7.25628,4.92973 -10.41117,-4.92975 z"
       id="path6028"
       inkscape:connector-curvature="0"
       sodipodi:nodetypes="cssssssssc" />
    <path
       style="fill:#666666;fill-rule:evenodd;stroke:none;stroke-width:1px;stroke-linecap:butt;stroke-linejoin:miter;stroke-opacity:1"
       d="M 294.10547 91.982422 C 299.26196 97.083325 302.62689 102.90819 304.56641 109.18164 C 306.126 108.97764 307.66613 108.79918 309.19141 108.64062 C 306.30249 101.79247 301.34388 96.086685 294.10547 91.982422 z M 309.42969 109.21484 C 307.82994 109.28816 306.23803 109.3804 304.66211 109.50781 C 305.38632 111.9172 305.90547 114.38961 306.23242 116.91406 C 308.11295 117.39078 309.98656 117.93123 311.85156 118.53516 C 311.40414 115.24881 310.60022 112.13199 309.42969 109.21484 z M 306.31836 117.68164 C 306.46041 118.92679 306.5608 120.18259 306.61523 121.44922 C 308.53198 121.7504 310.39087 122.07967 312.20898 122.42969 C 312.16392 121.55238 312.09533 120.68639 312.00391 119.83008 C 310.18435 119.09745 308.29714 118.37819 306.31836 117.68164 z M 306.64258 122.2832 C 306.70707 124.56698 306.64259 126.87886 306.44922 129.21289 C 308.27057 130.08362 310.06581 131.05378 311.83203 132.09766 C 312.17448 129.28852 312.3238 126.54923 312.26562 123.90039 C 310.46255 123.35816 308.57912 122.81894 306.64258 122.2832 z M 306.23828 131.35156 C 302.84452 161.23034 280.34512 193.80236 267.55859 207.12695 C 292.0541 183.84713 307.7562 157.26808 311.44336 134.84961 C 309.7833 133.65808 308.0466 132.49258 306.23828 131.35156 z "
       transform="translate(99.40131,379.66564)"
       id="path6055" />
    <path
       style="fill:#666666;fill-rule:evenodd;stroke:none;stroke-width:1px;stroke-linecap:butt;stroke-linejoin:miter;stroke-opacity:1"
       d="M 101.66602 0.3359375 C 86.898808 -0.19731192 87.701872 19.160491 91.978516 53.810547 C 93.650036 67.353391 96.698783 69.128902 98.037109 78.498047 C 99.391359 78.358833 100.75131 78.24787 102.11523 78.167969 C 101.47901 76.759016 100.96876 75.362879 100.68945 73.990234 C 98.904773 65.219374 89.005398 14.080932 104.70508 11.919922 C 126.85391 8.8711919 161.81445 40.255859 161.81445 40.255859 C 160.93564 38.957559 126.18007 3.1072888 103.14453 0.44921875 C 102.63536 0.39046562 102.14238 0.35313909 101.66602 0.3359375 z M 101.83594 80.935547 C 100.66468 80.940079 99.496975 80.97122 98.332031 81.017578 C 98.373999 81.455745 98.41985 81.875678 98.455078 82.345703 C 98.724528 85.940773 105.3748 95.579633 106.49023 102.10156 C 107.04984 105.37362 105.49284 111.05689 105.28516 119.38281 C 107.71999 119.10459 110.05697 118.80143 112.33789 118.48242 C 113.0406 109.93211 114.71723 105.90313 114.07422 100.97656 C 113.24822 94.648119 107.28957 87.704613 103.52539 80.964844 C 102.96252 80.957911 102.39741 80.933374 101.83594 80.935547 z M 112.23633 119.89453 C 109.95786 120.08406 107.63733 120.25012 105.28125 120.39844 C 105.18932 128.53982 106.43406 139.07114 112.06641 152.25391 C 117.59163 165.18594 127.90625 186.21289 127.90625 186.21289 C 127.90625 186.21289 114.61541 153.55296 113.68359 146.83789 C 111.96368 134.44321 111.83516 126.06152 112.23633 119.89453 z "
       transform="translate(99.40131,379.66564)"
       id="path6057" />
    <path
       style="display:inline;fill:#b3b3b3;fill-opacity:1;fill-rule:evenodd;stroke:#b3b3b3;stroke-width:1.25433064px;stroke-linecap:butt;stroke-linejoin:miter;stroke-opacity:1"
       d="m 280.16398,440.93667 c -0.94647,1.90829 -11.0434,2.86319 -11.0434,2.86319 18.45672,11.35072 50.88619,15.75698 68.30516,2.86316 0,0 -5.83697,1.11268 -10.88481,1.27171 -5.56432,-0.91722 -16.59266,-32.43275 -46.37695,-6.99806 z m 40.97724,8.43211 c 0,0 -21.08154,5.51095 -36.69749,-2.58522 14.61905,-15.73675 27.22085,-11.25558 36.69749,2.58522 z"
       id="path6030-3"
       inkscape:connector-curvature="0"
       sodipodi:nodetypes="cccccccc" />
    <path
       style="display:inline;fill:#b3b3b3;fill-opacity:1;fill-rule:evenodd;stroke:#b3b3b3;stroke-width:1.25433064px;stroke-linecap:butt;stroke-linejoin:miter;stroke-opacity:1"
       d="m 341.33063,457.00382 c 2.99715,-2.7034 8.83372,-4.92974 15.77449,-4.45266 6.94079,0.47707 18.77166,4.29364 19.71813,5.88389 0.94646,1.59024 0.47323,10.17753 -0.94647,8.90533 -1.41972,-1.27219 -4.8901,-3.18048 -4.8901,-1.74926 0,1.43122 0.31549,12.40386 -3.15491,12.88094 -3.47038,0.47707 -14.82802,-3.02146 -14.19703,-5.56584 0.63097,-2.54438 4.10255,-4.32391 4.5746,-7.63315 0.21702,-1.52146 -0.55834,-5.12339 -6.46755,-3.3395 -5.1134,1.54366 -7.25627,4.92974 -10.41116,-4.92975 z"
       id="path6028-4"
       inkscape:connector-curvature="0"
       sodipodi:nodetypes="cssssssssc" />
    <path
       style="display:inline;fill:#777777;fill-opacity:1;fill-rule:evenodd;stroke:none;stroke-width:1px;stroke-linecap:butt;stroke-linejoin:miter;stroke-opacity:1"
       d="m 359.25956,566.23262 c 1.88528,-5.73468 4.89888,-10.23706 4.47293,-18.49585 -2.26568,1.12404 -4.41176,4.17919 -6.56981,7.04129 0,0 -7.49577,-21.04259 -13.07289,-23.29152 -5.57714,-2.24894 -20.07766,1.79915 -26.21251,0.22489 -6.13483,-1.57426 -11.15425,7.19661 -11.15425,7.19661 0,0 -3.34628,-3.59831 -7.36181,-5.95969 -4.01553,-2.3614 -18.73915,-3.14852 -18.73915,-3.14852 6.48705,-11.90241 13.32848,-21.05419 27.66255,-25.97524 0.63977,3.13027 1.51051,6.3071 3.19414,9.64785 1.80713,-3.2143 2.80066,-7.08282 3.39249,-9.88871 3.86343,0.48993 6.58111,0.97986 11.93737,1.4698 0.41924,2.68381 0.68308,5.39893 2.11137,7.87928 1.63982,-2.532 2.35956,-5.00214 2.93278,-7.46243 10.03122,2.06195 20.54362,2.18356 30.97616,2.62721 1.75541,5.79866 1.45254,12.19016 1.86916,18.37444 1.84267,-4.98846 3.13999,-10.5267 3.93105,-16.5753 l 1.00388,6.29703 c 2.69906,-2.1292 2.69629,-6.3012 3.90399,-9.55798 15.61369,6.12054 -10.25997,53.05778 -14.27745,59.59684 z"
       id="path6045-5"
       inkscape:connector-curvature="0"
       sodipodi:nodetypes="cccsscsccccccccccccc" />
    <path
       style="display:inline;fill:#999999;fill-opacity:1;fill-rule:evenodd;stroke:none;stroke-width:1px;stroke-linecap:butt;stroke-linejoin:miter;stroke-opacity:1"
       d="m 314.56666,568.42867 c -2.69022,-1.05171 -2.87918,-15.18225 -1.67314,-15.29278 3.36363,5.05014 6.48876,8.17678 9.25804,8.43352 0,0 -2.78857,6.63436 -7.5849,6.85926 z"
       id="path6047-1"
       inkscape:connector-curvature="0"
       sodipodi:nodetypes="cccc" />
    <path
       style="display:inline;fill:#999999;fill-opacity:1;fill-rule:evenodd;stroke:none;stroke-width:1px;stroke-linecap:butt;stroke-linejoin:miter;stroke-opacity:1"
       d="m 327.05942,564.38057 c -1.55313,-6.37198 -0.96099,-12.74398 0.44617,-19.11596 3.36735,5.12409 3.74248,10.03903 6.46946,14.05586 0,0 0.66927,5.0601 -6.91563,5.0601 z"
       id="path6049-4"
       inkscape:connector-curvature="0"
       sodipodi:nodetypes="cccc" />
    <path
       style="display:inline;fill:#808080;fill-rule:evenodd;stroke:none;stroke-width:1px;stroke-linecap:butt;stroke-linejoin:miter;stroke-opacity:1"
       d="m 267.49594,577.85185 c 1.56159,0 53.54043,29.91087 70.71798,29.23619 17.17756,-0.67469 28.55489,-22.71427 28.55489,-22.71427 0,0 -11.60042,14.84298 -25.20861,15.96745 -13.60819,1.12447 -44.39394,-10.3451 -74.06426,-22.48937 z"
       id="path6026-8"
       inkscape:connector-curvature="0" />
    <path
       style="display:inline;fill:#808080;fill-rule:evenodd;stroke:none;stroke-width:1px;stroke-linecap:butt;stroke-linejoin:miter;stroke-opacity:1"
       d="m 237.70302,627.7838 c -2.00776,-15.96746 -16.06213,-32.6096 -18.73915,-54.87409 -2.67701,-22.26449 -5.13096,-33.28428 -5.13096,-33.28428 0,0 6.24638,32.8345 12.49278,47.67749 6.24638,14.84298 12.71584,14.61809 11.37733,40.48088 z"
       id="path6043-1"
       inkscape:connector-curvature="0" />
  </g>
  <g
     inkscape:groupmode="layer"
     id="layer4"
     inkscape:label="whiskers"
     transform="translate(-99.401325,-379.66564)"
     style="display:inline;opacity:0.05">
    <path
       style="display:inline;opacity:1;fill:#808080;fill-rule:evenodd;stroke:none;stroke-width:1px;stroke-linecap:butt;stroke-linejoin:miter;stroke-opacity:1"
       d="m 262.44487,380.63211 c 5.53059,18.50296 17.01019,38.98327 40.15625,46.32812 -23.61396,-14.4409 -30.55965,-25.96209 -40.15625,-46.32812 z m -56.58398,78.0039 c -16.44901,0.30766 -32.26857,4.46627 -46.92774,15.77735 43.26889,-30.42623 94.64223,2.92236 144.33789,1.57422 -32.30753,-4.49327 -66.00749,-17.93891 -97.41015,-17.35157 z m 89.15429,24.54688 c -37.34798,1.8753 -55.91077,16.4469 -114.66406,18.66602 45.30978,-0.3078 71.99656,-6.01759 114.66406,-18.66602 z m -1.56054,3.82422 c -32.73981,8.22393 -30.17853,8.53177 -31.67774,44.75391 4.51954,-30.56608 2.44394,-30.66317 31.67774,-44.75391 z m 134.10937,1.34766 c -9.92975,-0.0742 -20.83761,0.75618 -32.60547,2.92578 33.39971,-5.52456 77.09462,4.53741 92.35742,10.34375 -8.97803,-4.69326 -29.9627,-13.04701 -59.75195,-13.26953 z m -27.92187,7.87304 c 9.63354,2.86232 17.36088,6.30557 24.14453,9.67969 -0.49634,-0.14623 -0.98412,-0.29871 -1.48828,-0.43945 1.3728,0.57058 2.74095,1.1635 4.10937,1.7539 16.87022,8.61994 28.05372,16.19215 48.91602,11.45899 -25.6129,2.2011 -49.726,-18.38026 -75.68164,-22.45313 z m 0.22461,4.94727 c 10.3569,2.65213 18.81652,5.2424 26.21875,8.21094 -3.97567,-2.03242 -8.26802,-4.11986 -13.07813,-6.12305 -4.12026,-0.82348 -8.4835,-1.51462 -13.14062,-2.08789 z m -5.35547,4.49805 c 37.65005,17.81956 49.79884,49.39696 50.64062,53.07421 -1.12646,-21.12323 -25.68691,-47.24435 -50.64062,-53.07421 z m 47.84179,11.87304 c 11.4623,7.14005 21.56391,16.79626 35.45899,31.76953 -7.98639,-11.84722 -15.68232,-20.98304 -24.28516,-28.02148 -3.86249,-0.82501 -7.50961,-2.13532 -11.17383,-3.74805 z"
       id="path6061-3"
       inkscape:connector-curvature="0" />
    <path
       style="display:inline;opacity:1;fill:#ffffff;fill-rule:evenodd;stroke:none;stroke-width:1px;stroke-linecap:butt;stroke-linejoin:miter;stroke-opacity:1"
       d="m 262.46487,379.30911 c 5.53059,18.50296 17.01019,38.98327 40.15625,46.32812 -23.61396,-14.4409 -30.55965,-25.96209 -40.15625,-46.32812 z m -56.58398,78.0039 c -16.44901,0.30766 -32.26857,4.46627 -46.92774,15.77735 43.26889,-30.42623 94.64223,2.92236 144.33789,1.57422 -32.30753,-4.49327 -66.00749,-17.93891 -97.41015,-17.35157 z m 89.15429,24.54688 c -37.34798,1.8753 -55.91077,16.4469 -114.66406,18.66602 45.30978,-0.3078 71.99656,-6.01759 114.66406,-18.66602 z m -1.56054,3.82422 c -32.73981,8.22393 -30.17853,8.53177 -31.67774,44.75391 4.51954,-30.56608 2.44394,-30.66317 31.67774,-44.75391 z m 134.10937,1.34766 c -9.92975,-0.0742 -20.83761,0.75618 -32.60547,2.92578 33.39971,-5.52456 77.09462,4.53741 92.35742,10.34375 -8.97803,-4.69326 -29.9627,-13.04701 -59.75195,-13.26953 z m -27.92187,7.87304 c 9.63354,2.86232 17.36088,6.30557 24.14453,9.67969 -0.49634,-0.14623 -0.98412,-0.29871 -1.48828,-0.43945 1.3728,0.57058 2.74095,1.1635 4.10937,1.7539 16.87022,8.61994 28.05372,16.19215 48.91602,11.45899 -25.6129,2.2011 -49.726,-18.38026 -75.68164,-22.45313 z m 0.22461,4.94727 c 10.3569,2.65213 18.81652,5.2424 26.21875,8.21094 -3.97567,-2.03242 -8.26802,-4.11986 -13.07813,-6.12305 -4.12026,-0.82348 -8.4835,-1.51462 -13.14062,-2.08789 z m -5.35547,4.49805 c 37.65005,17.81956 49.79884,49.39696 50.64062,53.07421 -1.12646,-21.12323 -25.68691,-47.24435 -50.64062,-53.07421 z m 47.84179,11.87304 c 11.4623,7.14005 21.56391,16.79626 35.45899,31.76953 -7.98639,-11.84722 -15.68232,-20.98304 -24.28516,-28.02148 -3.86249,-0.82501 -7.50961,-2.13532 -11.17383,-3.74805 z"
       id="path6061"
       inkscape:connector-curvature="0" />
  </g>
</svg>
