<?xml version="1.0" encoding="UTF-8"?>
<svg width="500" height="435" version="1.1" viewBox="0 0 500 435" xmlns="http://www.w3.org/2000/svg" xmlns:xlink="http://www.w3.org/1999/xlink"><defs><linearGradient id="linearGradient975" x1="273.8" x2="254.1" y1="465.1" y2="610.8" gradientTransform="matrix(1.249 0 0 1.259 -124.2 -438.1)" gradientUnits="userSpaceOnUse"><stop stop-opacity=".07843" offset="0"/><stop stop-opacity="0" offset="1"/></linearGradient></defs><g transform="translate(-11.61 108)"><g transform="matrix(1.321 0 0 1.321 -3.726 -105)" opacity=".2"><path d="m89.61 35.72-1.023 0.06055c0.4288 0.6719 0.8352 1.489 1.26 2.525l0.623 5.17c-1.194 0.2209-2.519 0.5911-3.775 0.4668-12.92 6.713-19.07 8.063-35.88 2.248-5.766-5.149-8.021 4.079-14.28 2.426-6.552-2.626-16.46-1.399-23.05-1.197-4.937 12.88 6.71 25.84 20.81 31.2l-8.986 12.06c17.12 2.858 29.98 14.08 30.54 35.03l14.82 4.955c0.3828 10.14-5.824 14.14-1.307 24.93 9.867 1.019 19.74 1.547 29.6 6.213l-13.3 20.88c13.63 1.928 24.79 26.24 31.5 39.41l1.059 0.7852c0.4678-6.146 3.961-11.45 6.1-17.03-3.72-10.72-6.797-24.16-7.768-43.21-6.191-13.61-10.23-25.62-10.84-41.28-7.717 0.4879-15.87 0.7657-24.76 0.8262 9.139-0.3451 17.3-0.9893 24.72-1.838-0.0162-0.5475-0.01-1.121-0.0176-1.678-7.965 0.5224-16.38 0.8202-25.6 0.8828 9.502-0.3588 17.94-1.044 25.59-1.943-0.0226-4.772 0.2375-9.872 0.8574-15.48-2.392-4.846-5.02-11.94-7.496-20.15-13.68 0.4956-26.92 3.948-39.47 12.78 9.652-8.122 19.74-12.62 30.17-14.7-10.7 1.445-21.1 5.064-31.06 12.07 12.27-10.33 25.24-14.81 38.73-15.9-3.524-12.79-6.533-27.45-7.75-40.5zm249.2 15.24c-4.978 2.251-11.45 7.707-15.31 11.29-7.133 2.813-20.33 2.844-22.65-4.875-7.924 4.783-13.01-1.176-19.02-4.797-4.239 8.855-12.28 8.014-12.28 8.014 1.938 17.42 11.65 21.65 24.65 31.5 6.308 4.306 10.69 9.4 13.51 15.03 26.85-2.815 52.7 0.691 73.16 9.385l-0.6894-12.51c2.672-3.931 5.418-7.422 8.279-10.22-2.245-11.77-5.191-23.38-3.445-36.06 2.159-1.393 3.779-3.055 5.029-4.902-2.958-3.397-4.811-1.332-6.49 2.35-1.98 4.797-3.287 10.04-7.51 14.01-11.7 0.2959-19.05 13.31-32.42 10.48-8.656-11.33-9.462 7.387-17.92 4.418-7.22 2.803-7.519 1.941-5.148-0.4941-3.598-0.8464 4.513-6.656 7.484-10.37-0.0843 0.03822-0.1742 0.06821-0.2578 0.1074-1.542-8.668 5.517-15.07 11.01-22.36zm-44.59 41.13c-0.0421-0.02867-0.0808-0.05929-0.123-0.08789v2e-3c0.0419 0.02839 0.0814 0.05747 0.123 0.08594zm23.41 15.29c-3.251-0.0311-6.485 0.0348-9.678 0.2012 0.3403 0.705 0.6606 1.416 0.9531 2.137 26.41-2.727 51.84 0.6567 72.11 9.082l-0.084-1.529c-14.13-4.365-39.1-9.659-63.3-9.891zm0.8984 2.633c-3.167-0.0303-6.319 0.0327-9.432 0.1894 0.8555 2.197 1.493 4.466 1.934 6.789 19.59 7.07 35.09 21.5 63.76 19.4 2.035-1.593 4.319-3.34 6.9-5.348l-0.627-11.38c-14.26-4.315-38.79-9.421-62.53-9.648zm-7.406 7.537c0.1105 0.6294 0.2185 1.259 0.3008 1.896 18.8 6.636 33.73 20.17 59.85 19.76 1.007-0.8434 2.156-1.757 3.373-2.711-21.64 7.91-39.53-9.681-63.53-18.95zm0.3711 2.426c0.0298 0.2552 0.0493 0.5132 0.0742 0.7695 0.3717 0.0715 0.7514 0.1393 1.119 0.2129 4.81 2.003 9.103 4.091 13.08 6.123-4.28-1.717-8.929-3.305-14.08-4.854 0.0217 0.3383 0.0474 0.6755 0.0625 1.016 0.6134 0.1149 1.233 0.2271 1.836 0.3477 4.81 2.003 9.103 4.091 13.08 6.123-4.5-1.805-9.399-3.47-14.87-5.094 0.0313 1.969-0.0537 3.964-0.2461 5.98 14.95 8.932 27.53 23.66 31.78 37.66 1.374 3.667 2.213 7.311 2.4 10.82-0.1051-0.4599-0.4137-1.399-0.9004-2.65 3.1e-4 6e-3 2e-3 0.0118 2e-3 0.0176-3e-3 -0.0125-0.0125-0.0416-0.0156-0.0547-2.814-7.216-12.35-26.04-33.89-41.18-4.615 26.96-26.61 56.48-43.38 71.94 1.108-1.253 2.224-2.551 3.34-3.871 0.243-0.4252-4.118 4.158-6.779 6.484l-2e-3 2e-3c-1e-3 2e-3 -3e-3 3e-3 -4e-3 4e-3 -8.378 12.15-16.32 17.11-25.11 17.55-0.9642 2.392-1.99 5.233-4.748 6.822 23.35 3.117 21.16 41.03 7.545 47.82 58.78-3.64 2.851 19.51 4.922 33.93 14.69 4.321 55.98 15.68 64.38 9.143 10.24-7.963 14.89-24.49 19.34-31.85 4.445-7.365 23.89-29.57 19.34-38.67-4.55-9.1 8.822-13.59 8.822-13.59-1.66-10.85-11.4-31.93-7.662-33.86 8.067-4.167 34.22-15.17 11.07-34.03 6.19-2.073 9.533-5.737 10.71-9.414-11.09-11.6-19.94-19.61-29.77-25.73 2.164 0.9525 4.326 1.783 6.525 2.486-2.445-1.844-4.9-3.548-7.422-5.119 2.167 0.9541 4.333 1.784 6.537 2.488-11.57-4.511-23.32-12.53-37.08-17.75zm42.35 19.54c3.872 3.232 7.565 6.904 11.19 11.06-1.217-3.38 0.4467-6.193 4.521-9.873-5.366 0.873-10.55 0.29-15.71-1.184zm12.75 12.89c2.204 2.625 4.39 5.44 6.58 8.449 0.1467-4.155-2.389-7.787-6.58-8.449z" fill="url(#linearGradient975)"/><path transform="matrix(.7569 0 0 .7569 11.61 -2.253)" d="m125.7 18.64c-0.9036-0.01242-1.79 0.01356-2.656 0.08008-18.78 1.441-14.4 47.12-2.109 84.6 41.43-0.5304 86.33 20.32 131.9 23.43-15.26 0.4138-30.63-1.659-45.96-4.562 15.56 3.723 31.31 6.958 47.15 8.041-43.75 1.187-88.49-17.96-130.4-18.98 3.534 9.537 7.542 18.25 11.76 25.13-1.043 6.642-1.86 13.37-2.082 20.8 46.23-6.588 69.72-18.96 108.6-20.91-6.693 1.984-13.07 3.832-19.25 5.561 6.44-0.9861 13.17-1.719 20.43-2.084-42.03 12.46-72.33 19.82-109.8 22.93 0.2222 19.8 4.902 45.11 20.39 86.32-5.243-10.86-10-20.3-14.11-29.19 10.08 74.68 33.69 63.03 30.32 106.6-4.679-17.53-13.73-30.63-20.96-51.48-5.63 14.69-18.4 27.96 7.619 51.43 4.161 35.48 36.25 37.18 60.01 53.78 1.152 8.822 7.689 30.36 13.48 30.26 9.809-5.832 61.85 8.931 80.61 10.09-3.179-19.03 71.36-49.8-6.518-44.98 17.99-8.976 20.88-59.06-9.967-63.18 3.645-2.1 4.999-5.855 6.273-9.016-22.74 1.156-49.74-20.55-93.68-38.46 94.94 34.95 98.54 41.3 131.1 8.615-1.446 2.386-2.877 4.592-4.301 6.656l8e-3 -8e-3c3.592-3.141 9.548-9.412 8.943-8.537 21.47-25.39 43.34-59.87 45.32-94.9-4.146-2.527-8.58-4.939-13.32-7.184 4.513 1.054 9.014 2.626 13.43 4.6 7.3e-4 -0.0258-7.1e-4 -0.0504 0-0.0762-4.519-2.823-9.37-5.519-14.62-8.002 4.922 1.15 9.833 2.909 14.63 5.143-7e-3 -1.987-0.0537-3.974-0.2012-5.961-2.03-0.5487-4.014-1.096-6.164-1.646 2.079 0.2558 4.097 0.536 6.09 0.8281-0.068-0.8093-0.156-1.619-0.248-2.428-2.297-0.6258-4.578-1.251-7.029-1.879 2.369 0.2915 4.662 0.6163 6.92 0.9551-0.1069-0.8531-0.221-1.705-0.3555-2.557-1.865-0.5315-3.752-1.028-5.678-1.455 1.917 0.3008 3.786 0.6803 5.623 1.111-0.1609-0.9919-0.3676-1.982-0.5664-2.973-2.047-0.5959-4.121-1.147-6.24-1.617 2.105 0.3303 4.155 0.7482 6.164 1.234-0.3819-1.855-0.8059-3.71-1.328-5.557-3.336 0.3232-6.625 0.7344-9.836 1.266 3.256-0.5881 6.509-1.096 9.754-1.543-0.307-1.071-0.6408-2.142-0.9961-3.209-3.373 0.3245-6.699 0.7365-9.945 1.273 3.286-0.5936 6.568-1.107 9.844-1.557-2.386-7.076-5.844-14.07-10.58-20.9 0.0557 0.0378 0.1066 0.0774 0.1621 0.1152-17.18-13.02-30.01-18.6-32.57-41.62-6.281-0.4159-11.29-5.535-9.295-16.02 2.797-19.31-15.72 1.289-20.36-8.408-7.257-17.96-34.73 7.788-42.3-8.705-9.189-18.01-15.08 3.901-25.47 6.58 2.674 1.823 5.486 3.66 8.564 5.543-3.775-1.198-7.315-2.662-10.63-4.352 3.567 2.564 7.447 5.155 11.82 7.828-14.8-4.696-25.98-13.46-34.42-24.03-2.176 11.95-5.187 17.17-24.15 10.93 1.392 1.34 2.709 2.622 3.898 3.799 0 0-6.403-5.294-15.83-11.89-5.522-2.521-9.361-3.55-4.59-3.137-15.43-10.35-36.55-22.27-52.37-22.49zm94.33 15.13c-0.1166 0.6931-0.216 1.31-0.3203 1.949 5.328 6.288 11.76 12.2 20.21 18.28 7.704-12.53-8.782-17.04-19.89-20.23zm-28.22 15.93c0.7741 0.7318 1.519 1.443 2.246 2.141-0.6561-0.7571-1.425-1.463-2.246-2.141zm57.31 18.45c20.43-0.1771 30.48 21.72 35.6 22.57 4.289 0.4068 8.587 0.7902 12.87 1.193-23.01 17.03-65.85 11.21-90.24-3.783-0.9691-0.6982-1.726-1.542-2.25-3.156 14.12 1.178 19.98-16.61 44.01-16.82zm70.95 28.2c10.35 0.2216 21.5 3.783 28.06 7.328 0.2531 0.4248 0.4072 1.284 0.5117 2.281 0.6058 0.2897 1.194 0.5807 1.738 0.875 1.251 2.101 0.6246 13.45-1.25 11.76-13.22-10.11-0.7912 11.2-10.63 14.71-3.965 1.412-16.94-3.052-18.61-6.396-1.503-1.129-2.459-2.502-2.4-4.113 0.1049-2.909 6.75-6.855 6.111-11.49-6.5-2.496-12.69 6.022-17.07 1.25-0.1108-0.1205-0.2235-0.2352-0.332-0.373-1.502-1.707-3.133-4.819-4.99-10.12 4.192-3.952 10.26-5.564 16.81-5.717 0.7178-0.01823 1.446-0.0068 2.059-2e-3zm7.26 42.99c16.31 16.76 28.8 15.79 29.43 41-1.744 20.08-21.26 61.83-27.71 81.41-4.37-0.3356-3.83-2.377-11.49-6.24-7.662-3.862-37.72 0.891-47.74 0.5938-9.577 0.4928-36.22-43.98-50.69-56.45-0.0186-6e-3 -0.0209-0.0478-6e-3 -0.123 0.3724-2.356 16.75-40.1 60.5-45.27 24.89-2.938 47.45-8.77 47.71-14.92zm-87.43 1.961c-6.607 3.185-11.93 5.808-16.37 8.205 4.798-1.466 10.5-2.955 17.55-4.727-38.62 18.62-35.88 18.74-41.85 59.12 0.2474-5.979 0.4124-11.22 0.5938-15.83-0.5341 3.679-1.092 7.688-1.781 12.35 1.98-47.85-1.403-48.26 41.85-59.12zm-76.9 14.12c-9.624 1.546-19.4 2.759-29.69 3.641-9e-3 0.5827-0.0239 1.156-0.0254 1.748 11.04-1.535 20.75-3.405 29.71-5.389z" fill="#fff" fill-opacity=".09804" fill-rule="evenodd"/><g><path d="m177 18.63c-0.264 1.568-0.4803 2.998-0.6992 4.377 0.5192 0.5892 1.054 1.196 1.539 1.773 0.0797-0.4839 0.1558-0.9499 0.2441-1.475 5.441 1.564 12.58 3.546 15.37 7.316 1.357-7.013-9.101-9.88-16.45-11.99zm31.46 6.85c-4.362 0.03092-8.304 9.201-14.08 10.38-0.236 0.8577-0.6342 1.771-1.238 2.754 0.8494 0.6111 1.735 1.227 2.641 1.844 7.865-2.028 12.33-18.61 19.28-4.98 5.731 12.48 26.53-7.008 32.02 6.59 2.662 5.562 11.35-2.035 14.49 0.3145 1.022-12.21-12.18 2.1-15.57-4.992-5.493-13.6-26.29 5.895-32.02-6.59-1.999-3.917-3.791-5.336-5.518-5.324zm-62.75 0.05078c4.607 3.87 8.98 7.799 13.02 11.81 14.45 4.782 16.73 0.8307 18.38-8.242-0.5328-0.6673-1.045-1.348-1.549-2.033-1.81 8.38-5.363 10.87-24.37 3.17-1.544-1.262-3.069-2.842-5.447-4.703-8e-3 -8.91e-4 -0.0193-3e-3 -0.0273-0.0039zm-55.85 13.19c-1.322 0.1865-2.844 0.6838-4.287 0.541-12.92 6.713-19.07 8.063-35.88 2.248-5.766-5.149-8.021 4.079-14.28 2.426-6.552-2.626-16.46-1.399-23.05-1.197-0.2682 0.2627-0.5314 0.4741-0.791 0.6641 0.5007 1.194 1.365 2.548 2.246 3.994 6.584-0.2312 16.24-1.367 22.68 1.215 6.262 1.654 8.517-7.575 14.28-2.426 16.81 5.815 22.97 4.465 35.88-2.248 1.256 0.1243 2.581-0.2459 3.775-0.4668zm248.9 12.23c-0.4379-2.429-11.62 2.175-16.39 6.615-7.133 2.813-20.33 2.842-22.65-4.877-7.924 4.783-13.01-1.174-19.02-4.795-4.168 8.777-15.07 10.65-18.56 4.088 0.1814 11.71 14.68 11.03 19.64 0.5879 6.007 3.621 11.09 9.58 19.02 4.797 2.316 7.719 15.51 7.688 22.65 4.875 3.261-2.925 9.288-8.444 15.31-11.29zm47.44-4.553c-1.5-0.03558-2.667 1.685-3.762 4.086-1.98 4.797-3.287 10.04-7.51 14.01-11.7 0.2959-19.05 13.31-32.42 10.48-8.656-11.33-9.464 7.387-17.92 4.418-1.672 0.6492-2.937 1.081-3.92 1.363-1.142 1.406-1.534 2.491-0.1426 2.818-2.371 2.435-2.072 3.297 5.148 0.4941 8.458 2.969 9.264-15.74 17.92-4.418 13.37 2.83 20.72-10.18 32.42-10.48 2.301-2.166 3.727-4.712 4.877-7.354 0.4212-1.575 1.058-3.151 1.875-4.699 0.25-0.6553 0.4922-1.318 0.7578-1.961 1.006-2.205 2.075-3.829 3.404-4.053 0.7562-0.8717 1.553-1.716 2.389-2.518-1.195-1.516-2.215-2.17-3.115-2.191z" fill-opacity=".1176" fill-rule="evenodd" opacity="1"/><g fill-opacity=".05882" fill-rule="evenodd"><path transform="scale(.9375)" d="m276.8 115c-1.947 4.36-18.41 7.674-38.51 10.05-36.38 4.295-49.53 33.62-49.05 33.77 11.69 10.07 33.2 45.98 40.93 45.58 8.091 0.24 32.36-3.598 38.55-0.4805 6.187 3.119 5.751 4.768 9.279 5.039 5.202-15.8 20.96-49.51 22.37-65.73-3.842-21.42-10.39-14.7-23.56-28.23zm-47.5 14.19c4.121 0.5227 7.02 1.046 12.73 1.568 0.157 1.003 0.3099 2.007 0.4863 3.006 8e-3 7.4e-4 0.0135 1e-3 0.0215 2e-3 0.0338 0.2166 0.0671 0.4335 0.0996 0.6504 0.322 1.627 0.7709 3.229 1.645 4.746 1.749-2.701 2.517-5.337 3.127-7.961 10.7 2.199 21.91 2.33 33.04 2.803 0.5261 1.737 0.8679 3.528 1.113 5.346 0.9302 4.293 1.03 8.825 1.205 13.34 1.791-5.082 3.074-10.68 3.869-16.76l0.4941 3.1c4e-3 -0.0309 0.01-0.0608 0.0137-0.0918l0.5879 3.688c2.854-2.278 2.856-6.711 4.141-10.17 3.497 1.371 5.083 4.725 5.393 9.209 2.854 15.45-16.52 51.52-20.11 57.37 0.3256-0.9907 0.6866-1.942 1.055-2.887 1.36-4.592 1.704-9.353 1.572-15.25-1.647 1.562-3.253 3.785-4.865 5.922 0 0-7.995-22.45-13.94-24.84-5.949-2.4-21.42 1.918-27.96 0.2383-6.544-1.679-11.9 7.676-11.9 7.676s-3.57-3.838-7.854-6.357c-4.283-2.518-20.5-6.363-20.5-6.363 6.921-12.7 14.22-22.46 29.51-27.71 0.6827 3.339 1.61 6.727 3.406 10.29 1.927-3.428 2.988-7.555 3.619-10.55zm14.07 43.91c3.591 5.467 3.992 10.71 6.9 14.99 0 0 0.1753 1.334-0.6406 2.676-2.42-4.111-2.996-9.012-6.344-14.11-0.6832 3.092-1.17 6.184-1.359 9.275-0.0979-4.279 0.4986-8.557 1.443-12.84zm-15.59 8.396c3.588 5.387 6.922 8.721 9.875 8.994 0 0-0.6416 1.471-1.791 3.088-2.51-1.129-5.254-4.149-8.166-8.521-0.3051 0.0278-0.5244 0.9112-0.6465 2.234-0.0606-3.118 0.1968-5.746 0.7285-5.795z"/><path d="m168.5 64.46c18.46 11.35 50.89 15.76 68.3 2.863 0 0-5.837 1.113-10.88 1.272-3.879-0.6392-10.4-16.4-24.1-16.87-18.67-0.6419-19.18 14.46-33.32 12.73zm52.02 5.569s-21.08 5.51-36.7-2.585c14.62-15.74 27.22-11.26 36.7 2.585z"/><path d="m276.8 78.62c0.947 1.59 0.473 10.18-0.946 8.905-10.01-7.649-0.5999 8.48-8.045 11.13-3.3 1.175-14.85-3.026-14.2-5.566 0.647-2.531 7.181-6.323 3.739-10.7-6.562-3.814-12.82 8.91-16.13-4.988 7.981-7.539 27.04-3.397 35.58 1.219z"/></g><g fill-opacity=".09804"><path transform="scale(.9375)" d="m276.6 110.1c-0.2037 4.965-18.42 9.675-38.52 12.05-36.38 4.297-49.32 36.5-48.85 36.65-0.4768-0.1536 12.67-29.48 49.05-33.77 20.1-2.373 36.72-5.611 38.51-10.05 13.17 13.53 19.72 6.804 23.56 28.23-0.5065-20.36-10.59-19.58-23.76-33.11zm-46.79 22.07c-0.6315 2.993-1.69 7.119-3.617 10.55-1.796-3.563-2.724-6.952-3.406-10.29-15.29 5.249-23.1 12-30.02 24.7 0 0 16.22 3.845 20.5 6.363 4.284 2.519 7.854 6.357 7.854 6.357s1.338-2.338 3.494-4.467c0.539-0.5322 1.129-1.051 1.762-1.518 1.899-1.398 4.187-2.321 6.641-1.691 6.544 1.68 22.01-2.638 27.96-0.2383 5.949 2.398 13.94 24.84 13.94 24.84 0.708-0.9386 1.416-1.877 2.125-2.789 0.2563-0.328 0.5124-0.6461 0.7695-0.959 0.6521-0.7966 1.308-1.546 1.971-2.174 0.7056-0.6692 1.418-1.23 2.143-1.59 0.3807 7.381-1.809 11.95-3.713 16.84-4e-4 1e-3 -2e-3 3e-3 -2e-3 4e-3 -0.1293 0.3317-0.2545 0.667-0.3809 1.002-0.2322 0.62-0.4625 1.242-0.6738 1.885 2.06-3.438 4.188-7.419 5.973-10.88 0.2526-0.492 0.4987-0.9693 0.7578-1.482 5.808-12.14 15.29-32.26 13.38-45-0.6669-2.956-2.197-5.148-4.885-6.201-1.289 3.474-1.284 7.923-4.164 10.2l-0.4844-3.029-0.5879-3.688c-4e-3 0.031-9e-3 0.0609-0.0137 0.0918-0.8438 6.415-2.222 12.29-4.178 17.59-0.1993-3.332-0.2699-6.787-0.459-9.869-2e-3 -0.0286-2e-3 -0.0574-4e-3 -0.0859-7.8e-4 -0.0125-3e-3 -0.0246-4e-3 -0.0371-0.0994-1.562-0.2418-3.111-0.4609-4.639-0.02-0.1384-0.0412-0.2761-0.0625-0.4141-0.1135-0.7393-0.2394-1.475-0.3965-2.201-4.3e-4 -2e-3 -2e-3 -4e-3 -2e-3 -6e-3 -7e-4 -3e-3 -1e-3 -7e-3 -2e-3 -0.01-0.1707-0.7879-0.3705-1.568-0.6035-2.338-11.13-0.4736-22.34-0.6033-33.04-2.803-0.6112 2.625-1.38 5.26-3.129 7.961-1.408-2.446-1.755-5.105-2.152-7.754-0.0325-0.2169-0.0658-0.4338-0.0996-0.6504-8e-3 -1e-3 -0.014-1e-3 -0.0215-2e-3 -5.698-0.5219-8.597-1.044-12.71-1.566zm62.28 0.3398c1.073 0.7037 2.064 1.451 2.961 2.248-0.7641-0.9739-1.746-1.732-2.961-2.248z" fill-opacity=".1176" fill-rule="evenodd"/><path transform="translate(0 .1875)" d="m294.1 91.79c3.582 5.174 6.2 10.47 8.006 15.82 1.884-0.2587 3.765-0.4889 5.641-0.6856-2.834-5.674-7.26-10.81-13.65-15.14zm13.87 15.61c-1.95 0.1015-3.88 0.2497-5.791 0.4336 0.269 0.8077 0.5216 1.617 0.7539 2.428 2.001-0.2755 3.997-0.5171 5.988-0.7227-0.2921-0.7213-0.6113-1.433-0.9512-2.139zm1.143 2.621c-2.06 0.1037-4.1 0.2558-6.117 0.4512 0.3953 1.398 0.7168 2.801 1.006 4.205 2.421 0.5859 4.759 1.311 7.041 2.135-0.4398-2.324-1.076-4.593-1.93-6.791zm-5.055 4.947c0.1504 0.7496 0.3079 1.499 0.4297 2.25 2.387 0.5602 4.695 1.251 6.945 2.045-0.0817-0.6357-0.187-1.265-0.2969-1.893-2.3-0.8882-4.657-1.697-7.078-2.402zm0.4707 2.51c0.1018 0.6449 0.1886 1.29 0.2695 1.936 2.332 0.3501 4.591 0.7317 6.779 1.152-0.0249-0.2577-0.0444-0.517-0.0742-0.7734-2.266-0.8598-4.591-1.635-6.975-2.314zm0.3516 2.635c0.0697 0.6123 0.136 1.225 0.1875 1.838 2.301 0.3374 4.528 0.7085 6.689 1.113-0.0149-0.3401-0.0391-0.6773-0.0605-1.016-2.16-0.6497-4.462-1.294-6.816-1.936zm0.2441 2.457c0.1117 1.504 0.1476 3.008 0.1524 4.512 2.127 0.9904 4.222 2.11 6.275 3.336 0.1928-2.015 0.2784-4.011 0.248-5.979-2.112-0.6269-4.38-1.249-6.676-1.869zm0.1426 6.676c-5.4e-4 0.0195 5.5e-4 0.0391 0 0.0586 0.1291 0.0577 0.2559 0.125 0.3848 0.1836-0.1282-0.0809-0.2558-0.1616-0.3848-0.2422zm-0.082 2.014c-1.604 28.33-20.39 56.19-37.64 75.68 16.77-15.45 38.76-44.97 43.38-71.92-1.827-1.284-3.743-2.539-5.746-3.76z" fill-opacity=".1176"/><g fill-rule="evenodd"><path transform="scale(.9375)" d="m177.9 66.21c0.264 0.716 0.5707 1.661 1.816 2.547 15.08 1.839 15.62-14.27 35.54-13.58 14.62 0.5024 21.57 17.31 25.71 17.99 5.385-0.1696 11.61-1.357 11.61-1.357s-6.78-0.6231-10.39-0.9629c-4.137-0.6818-12.25-18.36-28.74-18.22-19.41 0.1682-24.14 14.53-35.54 13.58zm19.31 4.543c-0.3807 0.3867-0.7612 0.7749-1.145 1.188 16.66 8.635 39.14 2.758 39.14 2.758-0.6052-0.8838-1.223-1.729-1.852-2.539-0.1749 0.04551-19.98 5.171-36.15-1.406z" fill-opacity=".1373"/><path transform="scale(.9375)" d="m269.1 75.4c-5.283 0.1234-10.19 1.424-13.57 4.615 1.61 4.591 3.013 7.167 4.299 8.469-0.9648-1.049-1.824-2.881-2.549-5.922 8.106-7.657 26.91-4.015 36.55 0.6016-0.0844-0.8082-0.2111-1.504-0.416-1.848-5.648-3.053-15.51-6.122-24.31-5.916zm4.514 12.07c0.5156 3.741-4.849 6.929-4.934 9.277-0.0469 1.301 0.7241 2.408 1.938 3.32-0.134-0.2685-0.1818-0.5284-0.1191-0.7734 0.6902-2.7 7.66-6.744 3.988-11.41-0.2914-0.1693-0.583-0.2986-0.873-0.4102z" fill-opacity=".1373"/><path d="m168.1 198.2c52.41 21.36 72.99 49.89 99.27 6.522-24.68 24.74-27.41 19.93-99.27-6.523z" fill-opacity=".09804"/><path d="m140.2 244.8c-6.195-23.22-22.52-36.13-23.87-88.16 6.99 64.9 26.52 53.81 23.87 88.16z" fill-opacity=".07843"/></g><path transform="translate(0 .1875)" d="m101.5-0.1973c-2.053 0.03223-3.898 0.4839-5.479 1.434-11.94 7.175-6.64 45.87 1.334 74.8 1.906-0.1537 3.822-0.2449 5.748-0.2695-9.304-28.37-12.62-62.94 1.596-64.04 20.99-1.611 57.11 28.34 57.11 28.34-13.11-12.98-43.59-40.53-60.31-40.26zm0.666 81.91c-1.061 0.0041-2.118 0.03005-3.174 0.06836 2.475 8.207 5.102 15.29 7.492 20.13-0.621 5.62-0.8831 10.73-0.8613 15.51 2.365-0.2778 4.65-0.5764 6.869-0.8926 0.1681-5.62 0.787-10.71 1.576-15.74-3.19-5.21-6.223-11.8-8.898-19.02-1.002-0.0245-2.006-0.05464-3.004-0.05078zm10.3 36.25c-2.239 0.1917-4.519 0.3621-6.832 0.5137 8e-3 0.5567 2e-3 1.13 0.0176 1.678 2.343-0.268 4.594-0.5612 6.795-0.8672 1e-3 -0.4481 0.0126-0.8832 0.0195-1.324zm-2e-3 2.717c-2.22 0.184-4.482 0.3434-6.775 0.4883 0.935 23.89 9.842 39.24 22.21 64.85-11.73-31.19-15.27-50.35-15.44-65.34z" fill-opacity=".1176"/><g transform="translate(-99.4 -379.7)" fill-opacity=".09804" fill-rule="evenodd" opacity="1"><path transform="translate(99.4 379.9)" d="m163.8 3.201c5.794 17.84 17.24 36.88 39.38 43.91-3.322-2.032-6.284-4.004-9-5.953-15.97-8.15-25.16-23.24-30.38-37.95zm-62.54 75.88c-3.948 0.01525-7.86 0.2682-11.73 0.7988-10.37 2.099-20.41 6.596-30.01 14.68 43.27-30.43 94.64 2.924 144.3 1.576-12-0.8205-23.94-3.269-35.73-6.092-22.72-4.306-45.32-11.04-66.87-10.96zm94.34 24.25c-5.515 0.2769-10.61 0.836-15.5 1.586-16.23 4.545-30.47 7.929-45.1 10.28-14.23 3.156-31.04 5.927-54.07 6.797 45.31-0.308 72-6.018 114.7-18.67zm-1.559 3.824c-5.335 1.34-9.653 2.467-13.28 3.576-14.01 7.57-15.45 11.99-17.95 29.22-0.137 3.486-0.2603 7.443-0.4473 11.96 4.52-30.57 2.444-30.66 31.68-44.75zm133.2 1.453c-10.33-0.028-20.97 0.8896-31.66 2.82 33.4-5.525 77.09 4.536 92.36 10.34-16.79-8.467-37.98-13.1-60.7-13.16zm-26.98 7.768c18.84 4.179 33.71 15.44 48.29 21.15 1.542 0.495 3.1 0.9377 4.699 1.279 0.2152 0.1761 0.4265 0.3604 0.6406 0.5391 7.166 2.047 14.37 2.384 22.05-0.5195-34.26 2.603-49.73-18.38-75.68-22.45zm0.2266 4.947c10.36 2.652 18.81 5.242 26.22 8.211-3.975-2.032-8.268-4.12-13.08-6.123-4.12-0.824-8.482-1.515-13.14-2.088zm-5.357 4.498c32.79 15.52 46.23 41.46 49.71 50.33-0.8841-3.596-10.69-28.73-39.22-46.7-3.447-1.564-6.965-2.805-10.49-3.629zm47.84 11.87c11.46 7.14 21.56 16.8 35.46 31.77-1.59-2.359-3.169-4.582-4.746-6.73-9.052-9.576-16.58-16.82-24.19-22.56-2.198-0.7033-4.36-1.531-6.521-2.482zm0.4277 30.47c0.8216 2.728 1.325 5.427 1.469 8.051 0.501 1.283 0.7956 2.207 0.9023 2.674-0.1854-3.477-1.018-7.089-2.371-10.72z" fill-opacity=".07843" opacity="1"/></g></g></g><path d="m162.1-1.666c5.53 18.5 17.01 38.98 40.16 46.33-23.61-14.44-30.56-25.96-40.16-46.33zm-103.5 93.78c43.27-30.43 94.64 2.923 144.3 1.575-51.64-3.53-102.1-37.11-144.3-1.575zm136.1 8.77c-37.35 1.875-55.91 16.45-114.7 18.67 45.31-0.308 72-6.018 114.7-18.67zm-1.56 3.824c-32.74 8.224-30.18 8.532-31.68 44.75 4.52-30.57 2.444-30.66 31.68-44.75zm101.5 4.274c33.4-5.525 77.09 4.537 92.36 10.34-24.42-12.32-58.15-16.52-92.36-10.34zm4.683 4.947c30.41 6.746 50.48 31.98 75.68 22.45-34.26 2.603-49.73-18.38-75.68-22.45zm0.225 4.947c10.36 2.652 18.82 5.242 26.22 8.211-3.975-2.032-8.268-4.12-13.08-6.123-4.12-0.824-8.483-1.515-13.14-2.088zm-5.356 4.498c37.65 17.82 49.8 49.4 50.64 53.07-1.126-21.12-25.69-47.24-50.64-53.07zm47.84 11.87c11.46 7.14 21.56 16.8 35.46 31.77-7.987-11.85-15.68-20.98-24.29-28.02-3.863-0.825-7.51-2.135-11.17-3.748z" fill="#fff" fill-opacity=".1176" fill-rule="evenodd" opacity="1"/><path transform="translate(0 .1875)" d="m215 120.9c-0.592 2.805-1.588 6.675-3.395 9.889-1.684-3.341-2.553-6.518-3.193-9.648-14.32 4.915-21.16 14.05-27.64 25.94 6.481-11.87 13.8-18.2 28.12-23.12 0.64 3.13 1.509 6.308 3.193 9.648 1.807-3.214 2.799-7.083 3.391-9.889 3.859 0.4893 6.576 0.9794 11.92 1.469-0.1654-0.9366-0.3079-1.878-0.4551-2.818-5.356-0.4899-8.076-0.9808-11.94-1.471zm16.98 1.887c-0.572 2.46-1.292 4.931-2.932 7.463-0.8191-1.422-1.239-2.924-1.541-4.449-0.0305-0.2033-0.062-0.4063-0.0937-0.6094h-2e-3c0.0317 0.2031 0.0633 0.406 0.0937 0.6094 0.3726 2.483 0.6977 4.976 2.018 7.27 1.64-2.532 2.361-5.002 2.934-7.463 10.03 2.062 20.54 2.183 30.98 2.627 0.2185 0.7218 0.4044 1.453 0.5645 2.191 1e-3 2e-3 1e-3 7e-3 2e-3 0.01 0 2e-3 2e-3 4e-3 2e-3 6e-3 -1e-3 -5e-3 -8.4e-4 -0.0105-2e-3 -0.0156-0.2301-1.704-0.5498-3.383-1.043-5.012-10.43-0.443-20.94-0.565-30.98-2.627zm41.69 1.166c-1.204 3.246-1.205 7.403-3.881 9.539l-0.5527-3.457 0.5508 3.457 0.4551 2.84c2.7-2.13 2.696-6.302 3.904-9.559 2.519 0.9875 3.953 3.043 4.578 5.814-0.1814-2.627-0.8283-4.841-2.09-6.445-8.7e-4 -1e-3 -1e-3 -3e-3 -2e-3 -4e-3 -0.8386-0.7445-1.767-1.442-2.77-2.1-0.0653-0.0277-0.1266-0.0598-0.1934-0.0859zm5.055 8.635c0.3151 2.108 0.2836 4.438 0.0117 6.896 0.3204-2.576 0.3534-4.919-0.0117-6.896zm-9.963-5.373c-0.7448 5.702-1.949 10.94-3.627 15.71 0.05 1.23 0.0988 2.465 0.1719 3.688 1.833-4.964 3.127-10.47 3.918-16.49zm-58.15 27.64c-0.2527 0.2495-0.493 0.503-0.7207 0.7539 0.2278-0.251 0.47-0.5044 0.7227-0.7539zm17.59 7.207c-0.8857 4.011-1.445 8.024-1.354 12.04 0.1776-2.898 0.6349-5.799 1.275-8.697 3.139 4.777 3.678 9.372 5.947 13.23 0.7649-1.258 0.5996-2.508 0.5996-2.508-2.727-4.016-3.102-8.932-6.469-14.06zm36.15 5.811c-0.6794 0.3371-1.346 0.8628-2.008 1.49 0.1234 5.529-0.1987 9.991-1.473 14.29 1.785-4.58 3.837-8.866 3.48-15.79zm-50.76 2.062c-0.4985 0.0455-0.7404 2.509-0.6836 5.432 0.1144-1.24 0.3214-2.068 0.6074-2.094 2.73 4.099 5.301 6.93 7.654 7.988 1.078-1.516 1.68-2.895 1.68-2.895-2.768-0.256-5.894-3.382-9.258-8.432z" fill="#fff" fill-opacity=".07843" opacity="1"/></g></g></svg>
