<svg xmlns="http://www.w3.org/2000/svg" width="20" height="20"><path opacity=".33" d="M9.714 2a1.14 1.14 0 0 0-1.143 1.143v.743a6.286 6.286 0 0 0-1.892.783l-.518-.518a1.14 1.14 0 0 0-1.616 0l-.403.405a1.14 1.14 0 0 0 0 1.616l.521.52a6.286 6.286 0 0 0-.778 1.88h-.743A1.14 1.14 0 0 0 2 9.713v.573c0 .633.51 1.142 1.142 1.142h.743a6.286 6.286 0 0 0 .783 1.892l-.526.528a1.14 1.14 0 0 0 0 1.617l.403.404a1.14 1.14 0 0 0 1.616 0l.533-.533a6.286 6.286 0 0 0 1.877.778v.743c0 .633.51 1.142 1.143 1.142h.572a1.14 1.14 0 0 0 1.143-1.142v-.743a6.286 6.286 0 0 0 1.878-.776l.532.531a1.14 1.14 0 0 0 1.616 0l.404-.404a1.14 1.14 0 0 0 0-1.617l-.53-.531a6.286 6.286 0 0 0 .786-1.889h.743A1.14 1.14 0 0 0 18 10.286v-.573a1.14 1.14 0 0 0-1.142-1.143h-.743a6.286 6.286 0 0 0-.776-1.878l.52-.52a1.14 1.14 0 0 0 0-1.617l-.404-.405a1.14 1.14 0 0 0-1.616 0l-.52.52a6.286 6.286 0 0 0-1.89-.785v-.743a1.14 1.14 0 0 0-1.143-1.143h-.572zM10 6.445A3.556 3.556 0 0 1 13.556 10 3.556 3.556 0 0 1 10 13.556 3.556 3.556 0 0 1 6.444 10 3.556 3.556 0 0 1 10 6.445z"/></svg>
