<svg xmlns="http://www.w3.org/2000/svg" width="30" height="30" viewBox="0 0 28.147 28.147"><path d="M13.64 2.814a1.738 1.738 0 0 0-1.743 1.743v1.134A9.584 9.584 0 0 0 9.01 6.883l-.789-.788a1.737 1.737 0 0 0-2.464 0l-.615.617a1.738 1.738 0 0 0 0 2.464l.795.794a9.584 9.584 0 0 0-1.187 2.864H3.62a1.738 1.738 0 0 0-1.745 1.742v.871c0 .965.777 1.743 1.743 1.743h1.134a9.584 9.584 0 0 0 1.192 2.885l-.803.804a1.74 1.74 0 0 0 0 2.466l.615.615a1.738 1.738 0 0 0 2.464 0l.812-.811a9.584 9.584 0 0 0 2.862 1.186v1.132a1.74 1.74 0 0 0 1.743 1.742h.871a1.738 1.738 0 0 0 1.742-1.742v-1.134a9.584 9.584 0 0 0 2.866-1.181l.809.809a1.74 1.74 0 0 0 2.465 0l.616-.616a1.74 1.74 0 0 0 0-2.466l-.808-.809a9.584 9.584 0 0 0 1.198-2.88h1.131a1.738 1.738 0 0 0 1.743-1.743v-.87a1.738 1.738 0 0 0-1.743-1.743h-1.134a9.584 9.584 0 0 0-1.18-2.866l.793-.792a1.738 1.738 0 0 0 0-2.464l-.615-.617a1.74 1.74 0 0 0-2.466 0l-.792.791a9.584 9.584 0 0 0-2.883-1.197V4.557a1.738 1.738 0 0 0-1.74-1.743zm.56 6.97a5.102 5.227 0 0 1 5.102 5.228 5.102 5.227 0 0 1-5.101 5.227 5.102 5.227 0 0 1-5.102-5.227A5.102 5.227 0 0 1 14.2 9.784z" opacity=".33"/></svg>
