<?xml version="1.0" encoding="UTF-8" standalone="no"?>
<svg
   xmlns:dc="http://purl.org/dc/elements/1.1/"
   xmlns:cc="http://creativecommons.org/ns#"
   xmlns:rdf="http://www.w3.org/1999/02/22-rdf-syntax-ns#"
   xmlns:svg="http://www.w3.org/2000/svg"
   xmlns="http://www.w3.org/2000/svg"
   version="1.1"
   id="svg4427"
   viewBox="0 0 20 20"
   height="20"
   width="20">
  <defs
     id="defs4429" />
  <metadata
     id="metadata4432">
    <rdf:RDF>
      <cc:Work
         rdf:about="">
        <dc:format>image/svg+xml</dc:format>
        <dc:type
           rdf:resource="http://purl.org/dc/dcmitype/StillImage" />
        <dc:title></dc:title>
      </cc:Work>
    </rdf:RDF>
  </metadata>
  <g
     transform="translate(0,-1032.3622)"
     id="layer1">
    <path
       id="path4167"
       d="m 9.713542,1034.3622 c -0.633143,0 -1.142361,0.5092 -1.142361,1.1424 l 0,0.743 a 6.2857149,6.285715 0 0 0 -1.8923615,0.783 l -0.5173612,-0.5174 c -0.2238496,-0.2238 -0.515155,-0.335 -0.8072918,-0.335 -0.2921348,0 -0.5851778,0.1112 -0.8090274,0.335 l -0.4027775,0.4046 c -0.4477002,0.4477 -0.4477002,1.1686 0,1.6163 l 0.5208335,0.5208 a 6.2857149,6.285715 0 0 0 -0.777778,1.8785 l -0.7430554,0 C 2.5092187,1040.9334 2,1041.4426 2,1042.0757 l 0,0.573 c 0,0.6331 0.5092187,1.1423 1.1423617,1.1423 l 0.7430554,0 a 6.2857149,6.285715 0 0 0 0.7829859,1.8924 l -0.5260414,0.5278 c -0.4477002,0.4477 -0.4477002,1.1686 0,1.6163 l 0.4027775,0.4045 c 0.4477002,0.4477 1.16862,0.4477 1.6163192,0 l 0.5329869,-0.533 a 6.2857149,6.285715 0 0 0 1.8767358,0.7778 l 0,0.743 c 0,0.6332 0.509218,1.1424 1.142361,1.1424 l 0.572917,0 c 0.633141,0 1.142361,-0.5092 1.142361,-1.1424 l 0,-0.743 a 6.2857149,6.285715 0 0 0 1.878472,-0.7761 l 0.531251,0.5313 c 0.447698,0.4477 1.168618,0.4477 1.61632,0 l 0.404513,-0.4045 c 0.447699,-0.4477 0.447699,-1.1686 0,-1.6163 l -0.529514,-0.5313 a 6.2857149,6.285715 0 0 0 0.784722,-1.8889 l 0.743055,0 c 0.633143,0 1.142362,-0.5092 1.142362,-1.1423 l 0,-0.573 c 0,-0.6331 -0.509219,-1.1423 -1.142362,-1.1423 l -0.743055,0 a 6.2857149,6.285715 0 0 0 -0.776041,-1.8785 l 0.520833,-0.5208 c 0.447699,-0.4477 0.447699,-1.1686 0,-1.6163 l -0.404513,-0.4046 c -0.447702,-0.4477 -1.168622,-0.4477 -1.61632,0 l -0.519098,0.5191 a 6.2857149,6.285715 0 0 0 -1.890625,-0.7847 l 0,-0.743 c 0,-0.6332 -0.50922,-1.1424 -1.142361,-1.1424 l -0.572917,0 z m 0.286459,4.4444 a 3.5555554,3.5555554 0 0 1 3.555555,3.5556 3.5555554,3.5555554 0 0 1 -3.555555,3.5556 3.5555554,3.5555554 0 0 1 -3.5555568,-3.5556 3.5555554,3.5555554 0 0 1 3.5555568,-3.5556 z"
       style="opacity:1;fill:#aaaaaa;fill-opacity:1;fill-rule:evenodd;stroke:none;stroke-width:65;stroke-linecap:square;stroke-linejoin:miter;stroke-miterlimit:4;stroke-dasharray:none;stroke-opacity:1" />
  </g>
</svg>
