<svg xmlns="http://www.w3.org/2000/svg" height="20" width="20"><g opacity=".33"><path d="M5.285 1.86C3.821 5.242 2.282 8.593.75 11.946c.617-.138 1.251-.072 1.781-.05.287-1.126.767-2.32 1.166-3.329a52.504 52.504 0 0 1 3.338-.002c.407 1.105.8 2.215 1.125 3.346a14.378 14.378 0 0 1 2.137-.04l.488-.339C9.317 8.215 7.92 4.755 6.768 1.86zm.14 2.636c.425 1.004.83 2.016 1.218 3.035-.84.021-1.679.016-2.518 0z"/><path d="M11.693 7.678c-1.019.195-1.764.236-2.674.16l.41.656c.571.126 1.533.112 2.204.074-.04.828-.081 1.605-.121 2.32-6.39 4.054-2.326 8.566.576 4.715.136.606.6 1.208.928 1.147.606-.16.633-.354.61-.654-.085-.431-.52-.55-.759-1.284 1.072-1.305 1.732-2.807 2.108-4.205 5.68.198 2.774 6.075-.854 6.836h-.004l-.002.002c-.38.346-.808.674-.843.713 6.174-.655 8.452-8.503 1.794-8.326-.008-.826-.594-.99-.966-.76-.404.282-.031.433-.055.846-.559.13-1.1.323-1.623.56.04-.655.096-1.341.172-2.066 1.348-.36 2.755-.769 3.97-1.246.002-.302-.292-.502-.47-.572-.662-.275-1.674.345-3.39.834.022-.636.285-1.205.5-1.727-.218-.656-.89-.665-1.41-.75-.077.951-.086 1.887-.1 2.727zm2.188 3.138a10.673 10.673 0 0 1-1.361 2.78 22.604 22.604 0 0 1-.106-2.15c.49-.31.98-.498 1.467-.63zm-2.293 1.157c.008 1.215.058 2.138.176 2.67-2.67 3.54-3.99.046-.176-2.67z"/></g></svg>