<?xml version="1.0" encoding="UTF-8" standalone="no"?>
<svg
   xmlns:dc="http://purl.org/dc/elements/1.1/"
   xmlns:cc="http://creativecommons.org/ns#"
   xmlns:rdf="http://www.w3.org/1999/02/22-rdf-syntax-ns#"
   xmlns:svg="http://www.w3.org/2000/svg"
   xmlns="http://www.w3.org/2000/svg"
   version="1.1"
   id="svg4427"
   viewBox="0 0 20 20"
   height="20"
   width="20">
  <defs
     id="defs4429" />
  <metadata
     id="metadata4432">
    <rdf:RDF>
      <cc:Work
         rdf:about="">
        <dc:format>image/svg+xml</dc:format>
        <dc:type
           rdf:resource="http://purl.org/dc/dcmitype/StillImage" />
        <dc:title></dc:title>
      </cc:Work>
    </rdf:RDF>
  </metadata>
  <g
     transform="translate(0,-1032.3622)"
     id="layer1">
    <path
       id="text4369"
       d="m 5.3507258,1034.3219 c -1.4399999,3.33 -2.9088281,6.5248 -4.42382813,9.8398 0.18000003,-0.045 0.67484383,-0.045 0.83984383,-0.045 0.165,0 0.4938281,-10e-5 0.6738281,0.045 0.225,-0.885 0.6755469,-2.07 1.1855469,-3.33 0.57,-0.015 1.4541406,-0.031 1.9941406,-0.031 0.48,0 0.9913281,0.016 1.4863281,0.031 0.705,1.89 1.035,3.015 1.125,3.33 0.255,-0.045 0.9598434,-0.045 1.2148434,-0.045 0.255,0 1.1102354,-10e-5 1.3652354,0.045 -0.75,-1.515 -2.8213288,-6.5548 -4.1113288,-9.8398 l -1.3496094,0 z m 0.029297,2.3848 0.091797,0 c 0.525,1.23 0.9583594,2.3401 1.3183594,3.2851 -0.42,0.015 -0.8991407,0.014 -1.2441406,0.014 -0.435,0 -1.0942188,0 -1.5742188,-0.014 l 1.408203,-3.2851 z"
       style="font-style:normal;font-variant:normal;font-weight:bold;font-stretch:normal;font-size:15.01182175px;line-height:125%;font-family:'Linux Biolinum';-inkscape-font-specification:'Linux Biolinum Bold';letter-spacing:1.00078809px;word-spacing:0px;fill:#aaaaaa;fill-opacity:1;stroke:#aaaaaa;stroke-width:0.19999999;stroke-linecap:butt;stroke-linejoin:miter;stroke-miterlimit:4;stroke-dasharray:none;stroke-opacity:1" />
    <path
       id="text4375"
       d="m 11.928851,1037.3492 c -0.06348,0.011 -0.105794,0.046 -0.126953,0.1094 -0.08464,0.085 -0.08464,0.2761 0,0.5723 0.126953,0.2539 0.126953,0.9512 0,2.0937 -0.55013,0.085 -1.03776,0.1491 -1.460937,0.1914 l -1.0781254,0 c -0.3808598,-0.042 -0.5501306,0 -0.5078129,0.127 0.084635,0.1269 0.3164063,0.2318 0.6972659,0.3164 0.380859,0.085 0.7194014,0.127 1.0156254,0.127 0.338541,0 0.761718,-0.02 1.269531,-0.062 -0.04232,0.8886 -0.08464,1.7128 -0.126953,2.4746 -1.6503914,1.1849 -2.6660161,2.2226 -3.0468755,3.1113 -0.3385417,0.8887 -0.3808594,1.5859 -0.1269531,2.0937 0.2539062,0.4655 0.5299478,0.7194 0.8261722,0.7618 0.338541,0.042 0.654947,0.022 0.9511724,-0.062 0.296223,-0.127 0.592447,-0.2963 0.888671,-0.5079 0.338542,-0.2539 0.677084,-0.5501 1.015625,-0.8886 0.338542,0.804 0.634766,1.2051 0.888672,1.2051 0.253907,-0.042 0.423177,-0.127 0.507813,-0.254 0.08464,-0.1692 0.02214,-0.3587 -0.189453,-0.5703 -0.169271,-0.2116 -0.360677,-0.5501 -0.572266,-1.0156 0.507813,-0.7194 0.93099,-1.3965 1.269531,-2.0312 0.338542,-0.6348 0.634766,-1.3965 0.888672,-2.2852 1.057943,-0.042 1.841797,0.1471 2.349609,0.5703 0.550131,0.4232 0.866537,0.9955 0.951172,1.7149 0.08464,0.677 -0.04232,1.3541 -0.380859,2.0312 -0.338542,0.6348 -0.846354,1.2051 -1.523437,1.7129 -0.719402,0.4655 -1.438803,0.804 -2.158204,1.0156 -0.677083,0.2539 -0.993489,0.4232 -0.951172,0.5078 0,0.042 0.358724,-0.02 1.078126,-0.1894 0.761718,-0.127 1.523437,-0.403 2.285156,-0.8262 0.761719,-0.4655 1.333984,-0.9935 1.714844,-1.5859 0.423177,-0.6348 0.677083,-1.2494 0.761718,-1.8418 0.08464,-0.6348 0.04232,-1.1849 -0.126953,-1.6504 -0.169271,-0.5078 -0.465495,-0.9089 -0.888672,-1.2051 -0.423177,-0.3385 -0.888672,-0.5501 -1.396484,-0.6348 -0.465495,-0.1269 -1.015625,-0.1914 -1.650391,-0.1914 0.08464,-0.3808 -0.04232,-0.6347 -0.380859,-0.7617 -0.338542,-0.1269 -0.507813,-0.085 -0.507813,0.127 0.04232,0.1692 0.0625,0.403 0.0625,0.6992 -0.592448,0.1269 -1.205078,0.3385 -1.839843,0.6348 0.04232,-0.7194 0.104817,-1.4812 0.189453,-2.2852 2.327474,-0.6348 3.576823,-1.0378 3.746094,-1.207 0.16927,-0.1693 0.104817,-0.3164 -0.191407,-0.4434 -0.296224,-0.1269 -0.697265,-0.064 -1.205078,0.1895 -0.507812,0.2116 -1.269531,0.4453 -2.285156,0.6992 0.08464,-0.8041 0.211588,-1.3119 0.380859,-1.5235 0.211589,-0.2539 0.211589,-0.4655 0,-0.6347 -0.253906,-0.2116 -0.507812,-0.3386 -0.761718,-0.3809 -0.105795,-0.042 -0.19043,-0.057 -0.253907,-0.047 z m 2.158203,5.6329 c -0.380859,1.2695 -0.930989,2.3899 -1.65039,3.3632 -0.08464,-0.7194 -0.126953,-1.5859 -0.126953,-2.6015 0.592448,-0.3809 1.184895,-0.6348 1.777343,-0.7617 z m -2.412109,1.1425 c 0,1.3965 0.0625,2.3698 0.189453,2.92 -0.677083,0.7617 -1.184896,1.2272 -1.523437,1.3964 -0.3808604,0.127 -0.7194014,0.127 -1.0156254,0 -0.2539066,-0.1269 -0.338542,-0.4655 -0.2539066,-1.0156 0.042318,-0.5501 0.3183596,-1.1224 0.8261716,-1.7148 0.5078134,-0.5925 1.1002614,-1.1205 1.7773444,-1.586 z"
       style="font-style:normal;font-variant:normal;font-weight:normal;font-stretch:normal;font-size:16.26280785px;line-height:125%;font-family:KaiTi;-inkscape-font-specification:KaiTi;letter-spacing:1.00078809px;word-spacing:0px;fill:#aaaaaa;fill-opacity:1;stroke:#aaaaaa;stroke-width:0.19999999;stroke-linecap:butt;stroke-linejoin:miter;stroke-miterlimit:4;stroke-dasharray:none;stroke-opacity:1" />
  </g>
</svg>
