<svg xmlns="http://www.w3.org/2000/svg" width="20" height="20"><path d="M4 2v16h4v-2H6V4h3.994v4H14v1h2V7.01L11 2z" opacity=".33"/><path d="M13.339 10a.641.641 0 0 0-.643.643v.418a3.536 3.536 0 0 0-1.064.44l-.291-.291a.64.64 0 0 0-.91 0l-.226.228a.641.641 0 0 0 0 .909l.293.293a3.536 3.536 0 0 0-.437 1.056h-.418A.641.641 0 0 0 9 14.34v.322c0 .356.286.643.643.643h.418a3.536 3.536 0 0 0 .44 1.064l-.296.297a.641.641 0 0 0 0 .91l.227.227a.642.642 0 0 0 .909 0l.3-.3a3.536 3.536 0 0 0 1.055.437v.418c0 .357.287.643.643.643h.322a.641.641 0 0 0 .643-.643v-.418a3.536 3.536 0 0 0 1.056-.436l.3.299a.642.642 0 0 0 .908 0l.228-.228a.641.641 0 0 0 0-.909l-.298-.299a3.536 3.536 0 0 0 .441-1.062h.418A.641.641 0 0 0 18 14.66v-.322a.641.641 0 0 0-.643-.643h-.418a3.536 3.536 0 0 0-.436-1.056l.293-.293a.641.641 0 0 0 0-.91l-.228-.227a.642.642 0 0 0-.909 0l-.292.292a3.536 3.536 0 0 0-1.063-.441v-.418A.641.641 0 0 0 13.66 10zm.161 2.5a2 2 0 0 1 2 2 2 2 0 0 1-2 2 2 2 0 0 1-2-2 2 2 0 0 1 2-2z" opacity=".33"/></svg>
