<svg xmlns="http://www.w3.org/2000/svg" height="20" width="20"><g opacity=".33"><path d="M5.391 15.575c.553 1.556-.098 2.537-.942 3.425 3.262-.731 3.243-2.134 3.77-3.425zm10.366-3.933c-.553 1.557.098 2.538.942 3.426-3.262-.732-3.242-2.134-3.769-3.426z"/><path d="M7.768 7.146c-3.202 0-5.798 2.035-5.797 4.545 0 2.51 2.596 4.544 5.797 4.543 3.2 0 5.794-2.034 5.795-4.543 0-2.51-2.595-4.544-5.795-4.545zm-.022 2.247c2.01 0 3.64 1.034 3.639 2.308-.001 1.274-1.63 2.306-3.639 2.307-2.01 0-3.64-1.033-3.64-2.307-.001-1.275 1.629-2.309 3.64-2.308z"/><path d="M12.473 2.727c-3.604 0-6.525 2.149-6.526 4.8l2.104-.017c.001-1.392 1.974-2.52 4.406-2.52 2.433 0 4.407 1.128 4.408 2.52 0 1.393-1.973 2.522-4.408 2.521l.016 2.3c3.603-.001 6.524-2.152 6.523-4.804 0-2.65-2.92-4.8-6.523-4.8z"/></g></svg>
