<?xml version="1.0" encoding="UTF-8"?>
<svg xmlns="http://www.w3.org/2000/svg" width="20" height="14" viewBox="0 0 20 14">
	<g fill="#72777d" fill-rule="evenodd">
		<path d="M6.772 13.492a1.08 1.08 0 0 0-1.078-1.08H19.64c-.596 0-1.08.485-1.08 1.08V.36c0 .597.485 1.08 1.08 1.08H5.693A1.08 1.08 0 0 0 6.77.36v13.132zM.362 0H19.64c.2 0 .36.16.36.36v13.132c0 .2-.16.36-.36.36H.36c-.2 0-.36-.16-.36-.36V.36C0 .16.16 0 .36 0z"/>
		<path d="M11.862 4.018v2.34l5.408-.018v1.725h-5.408v2.34l-3.597-3.06 3.597-3.327zm2.335 3.148v.072h.072v-.072h-.075z"/>
	</g>
</svg>
