<?xml version="1.0" encoding="UTF-8"?>
<svg xmlns="http://www.w3.org/2000/svg" width="16.831" height="22.457" viewBox="0 0 16.831 22.457">
	<path fill="#36c" d="M13.39.56a5.956 5.956 0 012.881 7.915l-1.521 3.262a6.024 6.024 0 01-.798 1.269c-.044.054-.089.104-.134.154l-.052.059a5.98 5.98 0 01-3.692 1.912l-.065.008a6.206 6.206 0 01-.821.035 5.94 5.94 0 01-4.291-2.002l.507-1.086a2.354 2.354 0 011.156-1.148l.025.045a3.14 3.14 0 001.37 1.233 3.136 3.136 0 001.876.248c.001.001.149-.012.384-.086.107-.034.23-.08.369-.146a3.136 3.136 0 001.561-1.541l.319-.683.192-.412.197-.422.956-2.051a3.153 3.153 0 00-5.715-2.665l-.839 1.798-.124.267a6.78 6.78 0 00-3.549 1.228c.016-.063.031-.127.049-.19.084-.29.192-.576.323-.858L5.476 3.44A5.954 5.954 0 0113.39.56zM4.686 11.767l-.319.683-.192.412-.197.422-.956 2.051A3.153 3.153 0 008.737 18l.839-1.799.124-.267a6.79 6.79 0 003.549-1.228c-.016.063-.031.127-.049.19a5.95 5.95 0 01-.323.858l-1.521 3.262A5.956 5.956 0 01.56 13.982l1.521-3.262c.217-.466.486-.89.798-1.269.044-.054.089-.104.133-.154l.051-.06a5.98 5.98 0 013.692-1.912c.022-.001.044-.005.065-.007a5.46 5.46 0 01.387-.029 5.94 5.94 0 014.726 1.997l-.507 1.087a2.356 2.356 0 01-1.157 1.148 3.134 3.134 0 00-1.395-1.278 3.117 3.117 0 00-1.875-.248c-.001 0-.149.012-.384.087-.107.034-.23.079-.369.145a3.136 3.136 0 00-1.56 1.54z"/>
</svg>
