<?xml version="1.0" encoding="UTF-8"?>
<svg xmlns="http://www.w3.org/2000/svg" viewBox="0 0 1024 768">
	<path d="M897 454.6V313.4L810.4 299c-6.4-23.3-16-45.7-27.3-65.8l50.5-71.4-99.4-100.2-71.4 50.5c-20.9-11.2-42.5-20.9-65.8-27.3L582.6-1H441.4L427 85.6c-23.3 6.4-45.7 16-65.8 27.3l-71.4-50.5-100.3 99.5 50.5 71.4c-11.2 20.9-20.9 42.5-27.3 66.6L127 313.4v141.2l85.8 14.4c6.4 23.3 16 45.7 27.3 66.6L189.6 607l99.5 99.5 71.4-50.5c20.9 11.2 42.5 20.9 66.6 27.3l14.4 85.8h141.2l14.4-86.6c23.3-6.4 45.7-16 65.8-27.3l71.4 50.5 99.5-99.5-50.5-71.4c11.2-20.9 20.9-42.5 27.3-66.6l86.4-13.6zm-385 77c-81.8 0-147.6-66.6-147.6-147.6 0-81.8 66.6-147.6 147.6-147.6S659.6 302.2 659.6 384 593.8 531.6 512 531.6z"/>
</svg>
