<?xml version="1.0" encoding="UTF-8"?>
<svg xmlns="http://www.w3.org/2000/svg" width="264" height="162" viewBox="0 0 264 162">
	<defs>
		<clipPath id="jagged-edge">
			<path d="M0 0v152l12 10 12-10 12 10 12-10 12 10 12-10 12 10 12-10 12 10 12-10 12 10 12-10 12 10 12-10 12 10 12-10 12 10 12-10 12 10 12-10 12 10 12-10V0z"/>
		</clipPath>
	</defs>
	<g fill="#eaecf0" clip-path="url(#jagged-edge)" transform="matrix(-1 0 0 1 264 0)">
		<path id="background" fill="#fff" d="M263.5 162.25l-263-.5V.5h263z"/>
		<path id="logo" d="M11 22c0-8 6-14 14-14s14 6 14 14-6 14-14 14-14-6-14-14M38 45v-5H13v5h25"/>
		<path id="sidebar" d="M38 163V58H13v106h25"/>
		<path id="personal-tools" d="M233 5h26v6h-26V5zm-24 0h22v6h-22zm-24 0h22v6h-22zm-23 0h13v6h-13zm15 0h6v6h-6zm-23 0h6v6h-6z"/>
		<path id="search-input" d="M258 16v4h-92v-4h92m1-1h-94v6h94v-6z"/>
		<path id="search-icon" d="M168 17h2v2h-2z"/>
		<path id="article" d="M252 162.496V29H48v133z"/>
		<path id="border" d="M0 0v162h264V0zm1 1h262v150.533l-11 9.166-12-10-12 10-12-10-12 10-12-10-12 10-12-10-12 10-12-10-12 10-12-10-12 10-12-10-12 10-12-10-12 10-12-10-12 10-12-10-12 10-11-9.168z"/>
		<path fill="#36c" d="M48.083 29h204.084v20.75H48.083z"/>
		<path fill="#fff" d="M59 34.333h25v10H59v-10zm33.5 0h10v10h-10zm17 0h10v10h-10z"/>
		<path id="*" fill="#36c" d="M73.395 78.467l-1.128 1.968-4.058-2.376a11.313 11.313 0 0 1-.792-.528 3.114 3.114 0 0 1-.623-.672c.24.56.36 1.16.36 1.8v4.656h-2.28v-4.632c0-.32.016-.616.048-.888a3.2 3.2 0 0 1 .264-.84 3.547 3.547 0 0 1-.6.6 6.7 6.7 0 0 1-.746.504l-4.032 2.352-1.128-1.968 4.032-2.352a5.52 5.52 0 0 1 .84-.384c.272-.112.56-.184.864-.216a4.147 4.147 0 0 1-1.703-.624l-4.056-2.376 1.13-1.968 4.056 2.376c.288.176.544.36.768.552.24.192.448.416.624.672a3.914 3.914 0 0 1-.288-.864 5.99 5.99 0 0 1-.073-.936v-4.68h2.28v4.632c0 .32-.024.632-.072.936a3.094 3.094 0 0 1-.216.84 3.18 3.18 0 0 1 .6-.624c.222-.176.47-.352.742-.528l4.032-2.328 1.128 1.968-4.032 2.328c-.27.16-.543.296-.815.408a2.79 2.79 0 0 1-.816.216c.542.064 1.086.264 1.63.6l4.056 2.376"/>
		<path id="square-brackets" fill="#36c" stroke-width=".381" d="M165.983 90h-4.286v2.143h2.144v10.714h-2.143V105h4.286zm-5.357 0h-4.287v2.143h2.143v10.714h-2.144V105h4.286zm-57.144 0h4.286v2.143h-2.143v10.714h2.143V105h-4.286zm5.358 0h4.286v2.143h-2.144v10.714h2.144V105h-4.286z"/>
		<path id="#" fill="#36c" d="M68 114.11h-3.06l-.787 3.212h3.045l.8-3.212m5.049-1.482l-.194.855a.68.68 0 0 1-.323.473c-.172.103-.437.154-.8.154h-1.652l-.8 3.212h2.195c.267 0 .456.066.568.196.12.124.15.336.09.638l-.116.649H69.01l-1.058 4.313h-1.136c-.122 0-.237-.02-.35-.061a.836.667 0 0 1-.258-.186 1.163.928 0 0 1-.154-.278.658.658 0 0 1 .013-.34l.865-3.448h-3.048l-.865 3.552c-.069.274-.21.47-.426.586a1.514 1.514 0 0 1-.735.175h-1.11l1.058-4.313h-1.783c-.258 0-.448-.062-.568-.185-.121-.124-.151-.34-.09-.649l.117-.649h2.595l.789-3.212h-2.932l.181-.844c.043-.22.15-.38.323-.484.172-.102.439-.154.8-.154h1.899l.89-3.583c.05-.22.18-.39.388-.514a1.131.902 0 0 1 .722-.196h1.136l-1.058 4.293h3.06l1.047-4.293h1.123c.275 0 .49.069.645.206.155.137.206.316.155.535l-.89 3.552h2.697"/>
		<path fill="#c8ccd1" d="M59 58.333h54v6H59zm20 57.001h161v3H79zm-20 20h104v3H59zm0-40h39v3H59zm0 30h181v3H59zm56-30h39v3h-39zm-36-20h161v3H79zm-20 10h181v3H59z"/>
	</g>
</svg>
