<?xml version="1.0" encoding="UTF-8"?>
<svg xmlns="http://www.w3.org/2000/svg" viewBox="0 0 80 80">
    <g fill="#fff">
        <path d="M39.022 80c-8.302-.252-15.975-4.025-21.384-10.314-4.528-5.283-6.918-11.95-6.918-18.994 0-7.044 2.39-13.71 7.044-19.12.629-.754 2.138-2.264 2.264-2.264l3.9 3.9 3.899 3.899 1.132-1.006c.629-.63 1.132-1.007 1.132-1.007s.754 2.39 2.264 8.05c0 0 0 .126-.126.126 0 0-7.421-2.012-7.924-2.138h-.126s.503-.503 1.006-1.132a11.797 11.797 0 0 0 1.006-1.132c0-.126-1.886-2.013-1.886-2.013s-.504.63-1.007 1.132a20.56 20.56 0 0 0-4.276 10.566c-.126 1.007-.126 1.133 0 1.258h2.767v-1.51c0-1.509 0-1.509.126-1.509.125 0 7.17 4.151 7.17 4.151s0 .126-.126.126c-.126-.126-7.044 3.774-7.044 3.774v-3.02h-2.768v.378c0 .755.252 2.139.503 3.145.63 3.019 2.013 5.786 3.9 8.176.377.377 1.006 1.258 1.006 1.258s2.013-1.887 2.013-2.013c0 0-.503-.503-1.007-1.132-.628-.629-1.006-1.132-1.006-1.132 0-.126 8.05-2.264 8.05-2.138l-2.138 8.05s-.377-.377-1.132-1.006l-1.132-1.132c-.126 0-2.013 1.887-1.887 2.012 0 .126.755.755 1.384 1.132 2.39 1.761 5.157 3.145 8.176 3.774 1.006.252 2.39.377 3.145.503h.377v-2.767H36.38c0-.126 4.151-7.296 4.151-7.296s4.15 7.17 4.15 7.296h-3.018v2.767h.377c.755 0 2.139-.251 3.145-.503 3.019-.629 5.786-2.013 8.176-3.774a23.22 23.22 0 0 0 1.384-1.132c.126-.125-1.887-2.012-1.887-2.012l-1.132 1.132a11.797 11.797 0 0 1-1.132 1.006c0-.126-2.138-8.05-2.138-8.05l8.05 2.138s-.378.378-1.006 1.132c-.63.63-1.007 1.132-1.007 1.132 0 .126 1.887 2.013 2.013 2.013.126 0 .755-.755 1.006-1.258 1.887-2.39 3.145-5.283 3.9-8.176.251-1.006.377-2.39.377-3.145v-.377h-3.522v3.019s-6.918-3.9-7.17-4.151l-.126-.126s7.044-4.15 7.17-4.15c.126 0 .126 0 .126 1.509v1.509s2.641.126 2.767 0v-1.258a20.56 20.56 0 0 0-4.277-10.566c-.503-.629-1.006-1.132-1.006-1.132l-1.887 1.887s.503.503 1.007 1.132a11.826 11.826 0 0 1 1.006 1.132l-.126.126c-.503.126-7.924 2.138-7.924 2.138s-.126 0 0-.126c1.509-5.534 2.138-7.924 2.264-8.05 0 0 .503.377 1.132 1.006l1.132 1.007 1.006-1.007 1.006-1.006s-.628-.503-1.132-.88c-1.132-.755-1.886-1.007-5.534-2.516-2.516-1.007-3.774-1.635-5.283-2.642-3.27-2.264-5.409-5.157-6.793-9.308-.125-.503-.629-2.013-.629-2.013 0-.125-.251 0-2.012.63-2.264 1.131-3.145 1.509-3.396 1.509-.378 0-.504-.126-.252-.378.126-.251.252-.377.629-.88.88-1.132 1.635-2.138 2.516-3.9 1.51-2.767 3.019-6.54 4.276-10.817.378-1.258.88-2.893 1.007-3.27 0-.126 0-.252.125-.252 0 0 3.648 6.164 5.41 9.057 3.396 6.037 4.905 9.182 4.528 9.434-.126.125-.252 0-.88-.63-.881-.88-1.385-1.131-2.265-1.509-.377-.126-1.006-.251-1.384-.251-.377 0-.377 0-.251.503.503 2.012 1.383 3.522 2.515 4.528 1.133 1.132 2.516 1.887 6.038 3.27 2.767 1.133 4.528 2.013 6.038 3.02 1.258.88 2.264 1.635 3.27 2.767 6.29 6.415 9.183 15.094 8.176 24.025-.88 7.799-5.031 14.843-11.195 19.622-3.522 2.642-7.42 4.529-11.698 5.41-2.264.502-4.905.754-7.17.754z"/>
        <path d="M39.399 60.503c-1.51-.126-2.516-.377-3.648-1.006-1.132-.503-1.887-1.132-2.767-2.013-1.384-1.51-2.39-3.27-2.642-5.409-.125-.754-.125-2.138 0-2.767.126-1.006.378-1.887.755-2.641a9.816 9.816 0 0 1 7.547-5.66c.378 0 .63-.126 1.384-.126.755 0 1.132 0 1.384.125a9.816 9.816 0 0 1 7.547 5.66c.377.881.629 1.636.754 2.642.126.63.126 2.139 0 2.767-.125 1.007-.377 1.887-.88 2.768-.503 1.132-1.006 1.887-1.761 2.641-.88.88-1.635 1.51-2.767 2.013-1.384.629-2.642 1.006-4.151 1.006h-.755z"/>
    </g>
</svg>
