<?xml version="1.0" encoding="UTF-8"?>
<svg xmlns="http://www.w3.org/2000/svg" viewBox="0 0 67.684 79.813">
	<path fill="#c8ccd1" d="M67.255 0L3.26.816l.535 41.997L19.14 27.07 31.176 38.8l15.306-15.7 16.152 15.745 5.05-5.18z"/>
	<path fill="#fff" d="M61.357 8.076L8.36 8.752l.37 28.997 10.41-10.68 3.75 3.654 3.015-4.172 8.866 8.56 11.712-12.014L61.738 37.97z"/>
	<path fill="#c8ccd1" d="M61.638 50.217L47.46 32.673 30.406 46.457l-10.563-13.07-17.1 13.818L0 73.06l63.643 6.753 3.622-34.144z"/>
	<path fill="#fff" d="M60.852 49.244l-13.39-16.57-13.05 10.545 3.15 3.858 7.21-4.71 8.77 12.238-42.095-4.466L23.13 37.458l-3.288-4.07-11.6 9.373-1.16 10.94 52.704 5.59z"/>
</svg>
