<?xml version="1.0" encoding="UTF-8"?>
<svg xmlns="http://www.w3.org/2000/svg" viewBox="0 0 96 96">
	<path fill-opacity=".51" d="M39.063.038c-.014.004.013.136 0 .14-.014.005-.128-.005-.141 0-.014.005-.128-.005-.14 0-.014.006.012.135 0 .14-.014.007-.128-.005-.141 0-.013.007-.128-.006-.141 0-.013.008.013.134 0 .141-.013.008-.128-.007-.14 0-.013.008-.13-.008-.141 0-.012.009.011.133 0 .141-.012.009-.13-.009-.14 0-.012.009.01.131 0 .14-.012.01-.13-.009-.142 0-.01.01.01.131 0 .141-.01.01-.13-.01-.14 0l-.14.14c-.01.012.008.13 0 .142-.01.01-.133-.012-.141 0-.009.011.008.128 0 .14-.008.012-.133-.012-.141 0-.008.012.008.129 0 .14-.007.013.007.129 0 .141-.007.013-.134-.012-.14 0-.007.013.006.128 0 .141-.006.013-.136.127-.141.14-.006.014.005.128 0 .141-.005.014.004.127 0 .14-.004.015.004.128 0 .142-.004.013-.137-.014-.14 0-.004.013.002.126 0 .14-.004.014.002.127 0 .14-.003.015.001.127 0 .141l-1.407 8.438c-1.472.498-2.851 1.025-4.219 1.687l-7.172-4.921c-.013-.01-.127.008-.14 0-.014-.009-.127-.133-.141-.141-.014-.008-.126.007-.14 0-.015-.007-.127.007-.141 0-.015-.007.015-.134 0-.14-.015-.007-.126.005-.14 0-.016-.006-.126.004-.142 0-.015-.006-.125-.137-.14-.141-.015-.005-.125.003-.14 0-.017-.004-.126.002-.141 0-.016-.003-.125.002-.141 0-.016-.002-.125.001-.14 0h-.141c-.016 0-.125-.14-.14-.141-.017 0-.126.14-.142.14-.015.002-.124 0-.14 0-.016.002-.125-.001-.14 0-.017.003-.126-.002-.141 0-.016.004-.125-.003-.141 0-.015.005-.125-.004-.14 0-.016.005-.126.136-.141.141-.015.006-.126-.005-.14 0-.016.006-.127-.006-.142 0-.014.007.015.134 0 .14-.014.008-.126-.006-.14 0-.014.008-.127-.007-.14 0-.015.009.013.133 0 .142-.014.008-.128-.01-.141 0-.013.009-.128.13-.141.14-.013.01-.128.13-.14.14-.012.011-.13-.01-.141 0-.012.012.011.13 0 .141L8.547 20.006c-.011.012-.13-.011-.14 0-.012.012.01.129 0 .14-.011.013-.131.129-.141.142-.01.013-.132.127-.141.14-.009.014.009.127 0 .14-.008.014-.133-.013-.14 0-.009.015.007.127 0 .141-.008.015.007.127 0 .141-.008.014-.135-.014-.141 0-.007.015.006.126 0 .14-.006.015.005.126 0 .141-.005.016-.136.126-.14.14-.005.016.003.126 0 .142-.005.015.003.125 0 .14-.004.016.001.125 0 .14-.003.017 0 .125 0 .141-.002.016 0 .125 0 .141-.002.016-.141.125-.141.14 0 .017.14.125.14.141v.14c.002.017-.002.126 0 .142.002.015-.002.124 0 .14.003.016-.003.125 0 .14.004.016-.004.126 0 .141.005.016.136.126.14.141.006.015-.005.126 0 .14.007.015-.006.126 0 .141.007.015.135-.014.141 0 .007.015-.007.127 0 .14.008.015-.007.128 0 .142.008.013.133.126.141.14.009.014-.009.128 0 .14l4.922 6.891c-.724 1.484-1.275 3.006-1.828 4.641l-8.297 1.266c-.016.002-.124-.003-.14 0-.017.003-.125-.004-.141 0-.017.004-.125-.005-.141 0-.016.004.016.136 0 .14-.016.005-.125-.005-.14 0-.016.006-.126-.006-.141 0-.016.007-.126-.006-.14 0-.016.007.014.134 0 .14-.016.008-.127-.006-.142 0-.014.009-.126-.007-.14 0-.015.009.014.133 0 .142-.015.008-.127-.009-.14 0-.015.009-.128.13-.141.14-.013.01-.128-.01-.141 0-.013.01.013.13 0 .14-.013.011-.128-.01-.14 0-.013.012.012.13 0 .141-.013.012-.13-.011-.141 0-.012.013.011.129 0 .141-.012.012-.13-.013-.14 0-.012.013.01.128 0 .14-.011.014-.131-.012-.141 0-.01.014.01.128 0 .141-.01.014-.132.127-.141.14-.009.015.008.127 0 .142-.008.014-.133.125-.14.14-.008.015.006.125 0 .14-.008.016-.135-.015-.141 0-.007.016.005.126 0 .141-.006.016.005.125 0 .141-.005.016.004.125 0 .14-.004.017-.137.125-.141.141-.003.016.003.125 0 .14-.003.017.002.125 0 .142-.002.016.002.124 0 .14v17.015c.002.017-.002.125 0 .141.002.017-.003.125 0 .141.003.016-.003.124 0 .14.004.017.137.125.14.141.005.016-.004.125 0 .14.006.017-.005.126 0 .142.006.015-.006.125 0 .14.007.015.135-.015.141 0 .007.015-.007.126 0 .14.008.016.133.127.14.141.009.015-.008.127 0 .141.01.014.132.127.141.14.01.014-.01.128 0 .141.01.013.13-.013.141 0 .01.013-.01.128 0 .14.01.013.13-.011.14 0 .012.013-.01.13 0 .142.012.011.13-.012.141 0 .013.01-.012.129 0 .14.013.01.128-.01.141 0 .013.01-.013.13 0 .14.013.011.127-.01.14 0 .014.01.127.132.141.141.014.009.127-.008.14 0 .015.009-.014.133 0 .141.015.008.127-.008.141 0 .015.007.126-.007.141 0 .015.007-.015.134 0 .14.015.007.125-.006.14 0 .017.006.126-.005.141 0 .016.006.125-.004.141 0 .016.005-.016.137 0 .141.016.005.125-.004.14 0 .017.004.125-.003.141 0 .016.003.124-.002.14 0l8.298 1.407c.55 1.61 1.102 3.14 1.828 4.64l-4.922 6.89c-.009.014.009.128 0 .141-.008.014-.133.127-.14.141-.008.014.007.126 0 .14-.008.015.006.127 0 .141-.007.015-.135-.015-.141 0-.007.015.006.126 0 .14-.006.016.005.126 0 .141-.005.016-.136.126-.14.141-.005.015.003.125 0 .14-.004.016.002.126 0 .141-.003.016.001.125 0 .141-.003.016 0 .125 0 .14-.002.016 0 .125 0 .141-.001.016-.141.125-.141.14 0 .017.14.126.14.141v.141c.002.016-.002.125 0 .14.002.016-.003.126 0 .141.004.016-.004.125 0 .141.004.015-.004.125 0 .14.005.016.136.126.14.141.006.015-.005.126 0 .14.007.016-.006.127 0 .141.008.015.134-.014.141 0 .008.015-.007.127 0 .141.008.014-.008.127 0 .14.008.015.133-.013.141 0 .009.014-.009.128 0 .141.009.013.131.128.14.141.01.013.131.128.141.14.011.012-.01.13 0 .141.011.012.13-.011.14 0L20.22 87.928c.011.011-.012.13 0 .14.011.012.128-.01.14 0 .013.011.128.131.141.141.013.01.127.132.14.141.014.009.128-.009.141 0 .014.008-.014.133 0 .14.014.009.127-.007.14 0 .015.008.127-.007.142 0 .014.008-.015.135 0 .141.014.007.125-.006.14 0 .015.006.126-.005.14 0 .016.005.126.136.141.14.016.005.126-.003.141 0 .016.005.125-.003.14 0 .016.004.125-.001.141 0 .016.003.125 0 .14 0 .017.002.126 0 .142 0 .015.002.124.141.14.141.016 0 .125-.14.14-.14h.141c.016-.002.125.002.141 0 .016-.002.125.002.14 0 .016-.003.126.003.141 0 .016-.004.125.004.14 0 .016-.005.126-.136.142-.14.015-.006.125.005.14 0 .015-.007.126.006.14 0 .016-.007-.014-.135 0-.141.015-.007.127.007.141 0 .014-.008.127.007.141 0 .014-.008.127-.133.14-.141.014-.009.128.009.141 0l6.89-4.922c1.456.69 2.936 1.177 4.5 1.688l1.407 8.437c.003.016-.003.124 0 .14.003.017-.003.125 0 .141.004.017-.004.125 0 .141.004.016.136-.016.14 0 .005.016-.004.125 0 .14.006.016-.005.126 0 .141.007.016-.006.126 0 .14.007.016.135-.014.141 0 .007.016-.007.127 0 .141.008.015-.008.127 0 .141.008.015.133-.014.141 0 .009.015-.009.127 0 .14.009.015.131.128.14.141.01.013-.01.128 0 .141.011.013.13-.013.141 0 .01.013-.01.128 0 .14.012.013.13-.012.14 0 .012.013-.01.13 0 .141.013.012.13-.011.142 0 .012.011-.013.13 0 .14.012.012.127-.01.14 0 .013.011-.013.131 0 .141.013.01.127-.01.14 0 .015.01.127.132.141.141.015.009.127-.008.141 0 .014.008.126.133.14.14.016.007.126-.006.141 0 .016.007-.015.135 0 .141.016.007.125-.005.14 0 .017.006.126-.005.142 0 .015.005.124-.004.14 0 .016.004.125.137.14.141.017.003.125-.003.141 0 .017.003.125-.002.141 0 .017.002.124-.002.14 0h17.156c.018-.002.125.002.142 0 .016-.002.124.003.14 0 .016-.003.125.003.14 0 .017-.004.125-.137.141-.14.017-.005.125.004.141 0 .016-.006.125.005.14 0 .016-.006.126.006.141 0 .016-.007-.015-.135 0-.141.016-.007.126.006.14 0 .016-.008.127-.133.142-.14.014-.009.126.008.14 0 .014-.01.127-.132.14-.142.014-.01.128.01.141 0 .013-.01-.013-.13 0-.14.013-.01.128.01.141 0 .013-.01-.012-.13 0-.14.012-.012.129.01.14 0 .012-.012-.01-.13 0-.141.012-.013.13.012.141 0 .011-.013-.01-.128 0-.141.01-.013.13.013.14 0 .011-.013-.009-.127 0-.14.01-.014.132-.127.142-.141.008-.014-.01-.127 0-.14.008-.015.132.014.14 0 .008-.015-.008-.127 0-.142.007-.014-.007-.125 0-.14.007-.015.134.015.14 0 .007-.015-.006-.125 0-.14.007-.017-.005-.126 0-.141.006-.016-.004-.125 0-.141.005-.016.137.016.141 0 .005-.016-.004-.125 0-.14.004-.017-.003-.125 0-.141.003-.016-.002-.124 0-.14l1.407-8.438c1.542-.547 2.968-1.124 4.359-1.829l7.031 4.922c.013.01.128-.009.14 0 .014.008.128.133.141.141.014.008.127-.007.141 0 .015.007.126-.007.14 0 .015.007-.014.134 0 .14.016.007.126-.005.141 0 .015.006.126-.004.141 0 .015.006.125.137.14.141.016.004.126-.004.141 0 .016.003.125-.003.14 0 .017.003.126-.002.141 0 .016.002.125-.001.141 0h.14c.017 0 .125.14.141.14.017 0 .125-.14.141-.14.016 0 .125.002.14 0 .016-.001.125.002.141 0 .016-.002.125.003.14 0 .017-.003.126.004.141 0 .016-.004.126.005.141 0 .015-.004.126-.135.14-.14.016-.006.126.005.141 0 .015-.006.126.006.141 0 .014-.007-.014-.134 0-.141.014-.007.126.007.14 0 .015-.008.127.008.141 0 .014-.008-.014-.132 0-.14.014-.01.128.008.14 0 .014-.01.129-.132.141-.141.013-.01.129-.13.141-.14.012-.012.13.01.14 0 .012-.012-.01-.13 0-.142L88 76.117c.011-.012.13.011.14 0 .011-.012-.01-.13 0-.141.011-.012.131-.128.141-.14.01-.014.132-.128.14-.141.01-.014-.008-.127 0-.14.009-.015.134.013.141 0 .009-.015-.007-.127 0-.142.008-.014-.007-.126 0-.14.008-.015.134.014.141 0 .006-.015-.006-.126 0-.14.006-.016-.005-.126 0-.141.005-.016.136-.126.14-.141.005-.015-.003-.125 0-.14.004-.016-.003-.126 0-.141.003-.016-.002-.125 0-.14.003-.017 0-.126 0-.142.002-.015 0-.124 0-.14.001-.016.141-.125.141-.14 0-.017-.14-.125-.14-.141v-.141c-.002-.016.002-.125 0-.14-.002-.016.002-.125 0-.141-.003-.016.003-.125 0-.14-.004-.016.004-.126 0-.142-.005-.015-.136-.125-.14-.14-.006-.015.005-.126 0-.14-.007-.016.005-.127 0-.141-.007-.015-.135.014-.141 0-.007-.015.007-.127 0-.141-.008-.014.007-.127 0-.14-.009-.015-.133-.128-.141-.141-.01-.014.009-.128 0-.14L83.5 65.286c.71-1.43 1.274-2.901 1.828-4.5l8.438-1.406c.016-.002.124.003.14 0 .016-.003.125.004.14 0 .017-.004.125.005.141 0 .017-.004-.015-.136 0-.14.016-.005.125.005.141 0 .016-.006.125.005.14 0 .016-.007.126.006.141 0 .016-.007-.015-.134 0-.141.016-.007.126.007.141 0 .015-.008.126.008.14 0 .015-.008-.014-.132 0-.14.015-.01.127.008.141 0 .014-.01.127-.132.14-.141.014-.01.128.01.141 0 .014-.01-.012-.13 0-.14.013-.011.129.01.141 0 .012-.012-.012-.13 0-.142.012-.01.129.012.14 0 .012-.012-.01-.128 0-.14.012-.012.13.012.141 0 .011-.013-.01-.128 0-.14.01-.014.13.012.141 0 .01-.014-.01-.128 0-.141.009-.014.132-.127.14-.141.01-.014-.007-.126 0-.14.009-.015.134-.126.141-.141.007-.016-.007-.126 0-.14.007-.016.135.014.14 0 .007-.016-.005-.126 0-.142.006-.015-.005-.124 0-.14.006-.016-.004-.125 0-.14.005-.017.138-.125.141-.141.004-.017-.003-.125 0-.141.003-.016-.002-.124 0-.14.002-.017-.001-.125 0-.141.002-.017 0-.124 0-.14V39.693c0-.017.002-.124 0-.14-.001-.018.002-.125 0-.142-.002-.016.003-.124 0-.14-.003-.016.004-.125 0-.14-.003-.017-.136-.125-.14-.141-.005-.017.005-.125 0-.141-.006-.016.005-.125 0-.14-.006-.016.006-.126 0-.141-.006-.016-.134.015-.14 0-.007-.016.006-.126 0-.14-.008-.016-.133-.127-.141-.142-.008-.014.008-.126 0-.14-.01-.014-.132-.127-.141-.14-.01-.014.01-.128 0-.141-.01-.013-.13.013-.14 0-.011-.013.01-.128 0-.141-.011-.013-.13.012-.141 0-.011-.012.011-.129 0-.14-.012-.012-.129.01-.14 0-.013-.012.011-.13 0-.141-.013-.011-.129.01-.141 0-.013-.01.013-.13 0-.14-.014-.011-.128.009-.141 0-.014-.01-.127-.132-.14-.142-.015-.008-.127.009-.141 0-.015-.008.014-.132 0-.14-.015-.008-.126.008-.141 0-.015-.007-.125.007-.14 0-.016-.007.015-.134 0-.14-.016-.007-.126.006-.141 0-.016-.007-.125.005-.14 0-.017-.006-.126.004-.141 0-.016-.005.016-.137 0-.141-.017-.005-.125.004-.141 0-.016-.004-.124.003-.14 0-.017-.003-.125.002-.141 0l-8.438-1.407a37.056 37.056 0 00-1.828-4.359l4.922-7.031c.009-.013-.01-.128 0-.14.008-.014.132-.128.14-.142.008-.013-.007-.126 0-.14.008-.015-.006-.126 0-.14.007-.015.135.014.141 0 .006-.016-.006-.126 0-.141.006-.015-.005-.126 0-.141.005-.015.136-.125.14-.14.005-.016-.003-.126 0-.141.004-.016-.002-.125 0-.14.003-.017-.001-.126 0-.142.003-.015 0-.124 0-.14.002-.016 0-.125 0-.14.001-.017.141-.125.141-.141 0-.017-.14-.125-.14-.141v-.14c-.002-.016.002-.125 0-.141-.003-.016.002-.125 0-.14-.004-.017.003-.126 0-.142-.004-.015.004-.125 0-.14-.005-.015-.136-.126-.14-.14-.006-.016.005-.126 0-.141-.007-.015.005-.126 0-.141-.008-.014-.135.014-.141 0-.008-.014.007-.126 0-.14-.008-.015.008-.127 0-.141-.009-.014-.133.013-.141 0-.009-.014.009-.128 0-.14-.01-.014-.131-.129-.14-.142-.01-.012-.131-.128-.141-.14-.011-.012.01-.13 0-.14-.011-.012-.13.01-.141 0L76.469 8.333c-.011-.01.011-.13 0-.14-.012-.011-.129.01-.14 0-.013-.01-.129-.131-.141-.14-.014-.01-.128-.132-.141-.142-.014-.008-.127.009-.14 0-.015-.008.013-.132 0-.14-.015-.008-.127.007-.141 0-.015-.007-.127.007-.141 0-.014-.007.014-.134 0-.14-.015-.007-.126.005-.14 0-.015-.006-.126.005-.141 0-.016-.006-.126-.137-.14-.141-.016-.005-.126.004-.141 0-.016-.004-.126.003-.141 0-.016-.003-.125.002-.14 0-.016-.002-.125.001-.141 0-.016-.002-.125 0-.141 0-.016-.001-.125-.14-.14-.141-.017 0-.125.14-.141.14h-.14c-.017.002-.126-.001-.141 0-.016.003-.125-.002-.141 0-.016.003-.125-.003-.14 0-.016.004-.126-.004-.141 0-.016.005-.126.136-.141.141-.015.005-.126-.005-.14 0-.015.006-.126-.006-.141 0-.015.007.014.134 0 .14-.015.008-.127-.006-.14 0-.015.008-.128-.007-.141 0-.014.009-.127.133-.141.141-.014.01-.128-.009-.14 0L65.5 12.834c-1.394-.7-2.82-1.276-4.36-1.828L59.735 2.71v-.14c-.003-.017.004-.125 0-.14-.004-.017.005-.125 0-.142-.004-.016-.136.016-.14 0-.005-.015.005-.124 0-.14-.006-.016.006-.125 0-.14-.007-.016.006-.126 0-.141-.007-.016-.134.015-.14 0-.008-.016.006-.126 0-.141-.009-.015.007-.126 0-.14-.009-.015-.133.014-.142 0-.008-.015.01-.127 0-.141-.008-.014-.13-.127-.14-.14-.01-.014.01-.128 0-.142-.01-.013-.13.013-.14 0-.011-.012.01-.128 0-.14-.012-.012-.13.012-.141 0-.012-.012.011-.129 0-.14-.013-.012-.129.01-.141 0-.012-.012.013-.13 0-.141-.013-.011-.128.01-.14 0-.014-.01.012-.13 0-.141-.014-.01-.128.01-.141 0-.014-.01-.127-.132-.14-.14-.015-.01-.127.008-.142 0-.014-.009-.125-.134-.14-.141-.015-.007-.125.006-.14 0-.016-.007.015-.135 0-.14-.016-.007-.126.005-.141 0-.016-.006-.125.004-.141 0-.016-.006-.125.004-.14 0-.017-.005-.125-.138-.141-.142-.016-.003-.125.004-.14 0-.017-.002-.125.003-.142 0-.016-.001-.124.002-.14 0H39.485a.436.436 0 00-.141 0c-.014.004-.127-.003-.14 0-.015.004-.128-.004-.142 0zm9.28 33.89c7.791 0 14.204 6.323 14.204 14.203 0 7.903-6.27 14.063-14.203 14.063-7.912 0-14.203-6.271-14.203-14.063 0-7.88 6.412-14.203 14.203-14.203z"/>
	<path fill="#fff" d="M92.345 55.587v-16.5L82.22 37.4c-.75-2.719-1.875-5.344-3.188-7.688l5.907-8.343-11.625-11.72-8.344 5.907c-2.438-1.312-4.97-2.436-7.688-3.186L55.595 2.337h-16.5l-1.688 10.125c-2.718.75-5.343 1.875-7.687 3.188l-8.344-5.906L9.657 21.369l5.907 8.343c-1.313 2.438-2.438 4.97-3.188 7.782L2.345 39.087v16.5l10.031 1.688c.75 2.719 1.875 5.344 3.188 7.781L9.657 73.4l11.625 11.625 8.344-5.906c2.438 1.312 4.969 2.437 7.781 3.187l1.688 10.031h16.5l1.687-10.125c2.72-.75 5.344-1.875 7.688-3.187l8.344 5.906 11.625-11.625-5.907-8.344c1.313-2.437 2.438-4.968 3.188-7.78l10.125-1.595zm-45 9c-9.563 0-17.25-7.78-17.25-17.25 0-9.562 7.781-17.25 17.25-17.25 9.469 0 17.25 7.688 17.25 17.25 0 9.563-7.688 17.25-17.25 17.25z"/>
</svg>
