<?xml version="1.0" encoding="UTF-8"?>
<svg xmlns="http://www.w3.org/2000/svg" width="58.4" height="52.3" viewBox="0 0 58.4 52.3">
	<path fill="#eaecf0" d="M0 0h58.4v52.3H0z"/>
	<path fill="#36c" d="M14.9 28.2h13.8v1.6H14.9zm0 3.1h38.8v1.6H14.9zm0 3h38.8v1.6H14.9zm0 5.2h13.8v1.6H14.9zm0 3h38.8v1.6H14.9zm0 3.1h38.8v1.6H14.9zm-.5-37.8v17.4h22.7V7.8H14.4zm20.2 13.8H16.7l5.3-6.9.8-.3 5 5.3 2.7-1.6 4.1 3.5z"/>
	<path fill="#c8ccd1" d="M0 10.8h9.8v41.6H0z"/>
	<circle cx="5.4" cy="4.8" r="3.7" fill="#c8ccd1"/>
</svg>
