<?xml version="1.0" encoding="UTF-8"?>
<svg xmlns="http://www.w3.org/2000/svg" width="80" height="80" viewBox="0 0 80 80">
    <path fill="#72777d" d="M61.615 10.966A30.392 30.392 0 0 0 51.506 4.25a30.615 30.615 0 0 0-33.178 6.728c-5.783 5.792-8.975 13.166-8.975 20.791 0 7.613 3.19 14.995 8.975 20.781l3.182 3.153c6.386 6.31 11.893 11.758 16.618 19.331L39.966 78l1.85-2.966c4.725-7.573 10.232-13.021 16.607-19.324l3.191-3.17c12.044-12.044 12.044-29.529.001-41.574zM49.477 42.641c-5.25 5.258-13.76 5.258-19.011 0-5.249-5.24-5.249-13.75 0-19 5.251-5.24 13.761-5.24 19.011 0 5.238 5.25 5.238 13.758 0 19z"/>
</svg>
