<?xml version="1.0" encoding="UTF-8"?>
<svg xmlns="http://www.w3.org/2000/svg" width="23" height="23" viewBox="0 0 23 23">
	<path fill-opacity=".51" d="M19.65 0a.436.436 0 00-.282.125l-8.031 8L3.493.282C3.336.125 3.103.109 2.962.25L.274 2.938c-.14.141-.125.375.032.531l7.843 7.844-8.021 8.021c-.157.157-.172.422-.031.563l2.687 2.656c.141.141.375.126.532-.031l8.02-8.021 8.21 8.208c.156.157.39.173.531.032l2.688-2.688c.14-.14.125-.374-.032-.531l-8.209-8.209 8.032-8.031c.156-.157.172-.39.03-.531L19.9.094a.311.311 0 00-.25-.093z"/>
	<path fill="#fff" d="M19.65.657a.32.32 0 00-.22.093l-8.093 8.094L3.43.938a.316.316 0 00-.438 0L1.306 2.625a.316.316 0 000 .438l7.906 7.906-8.094 8.094a.316.316 0 000 .437l1.719 1.688a.278.278 0 00.406 0l8.094-8.094 8.281 8.281c.118.118.32.118.438 0l1.687-1.718a.278.278 0 000-.407l-8.281-8.28 8.094-8.095a.316.316 0 000-.437L19.868.75a.32.32 0 00-.219-.093z"/>
</svg>
