<?xml version="1.0" encoding="UTF-8"?>
<svg xmlns="http://www.w3.org/2000/svg" width="28.391" height="29.067">
    <path fill-opacity=".51" d="M13.168 0c.177 0 .312.083.312.188v13.437c0 .2-.086.375-.187.375H.668c-.101 0-.188-.176-.188-.375V9.844c0-.2.087-.344.188-.344h5.218L.043 3.656c-.08-.08-.048-.265.093-.406L2.824.562c.14-.14.326-.173.406-.093l6.25 6.25V.188c0-.105.135-.188.313-.188h3.375z"/>
    <path fill="#fff" d="M12.668.5c.166 0 .312.047.312.125v12.219c0 .01-.026.02-.031.031a.257.257 0 0 1-.031.062c-.012.01-.016.025-.031.032-.005.004-.026-.003-.032 0-.01.005-.02.03-.03.03H1.104c-.075 0-.125-.145-.125-.312v-2.375c0-.166.05-.312.125-.312h6.688L1.074 3.25c-.06-.06-.024-.195.094-.313L2.855 1.25c.118-.118.284-.185.344-.125L9.98 7.937V.625c0-.079.115-.125.282-.125h2.406z"/>
    <path fill-opacity=".51" d="M27.418 15c.1 0 .187.144.187.344v3.781c0 .2-.086.375-.187.375H22.01l6.344 6.344c.083.082.016.265-.125.406l-2.656 2.656c-.141.141-.324.208-.406.125l-6.563-6.562v6.312c0 .11-.135.219-.312.219h-3.344c-.177 0-.344-.11-.344-.219V15.188c0-.034.039-.067.063-.094a.23.23 0 0 1 .093-.063c.014-.006.017-.03.032-.03h12.625z"/>
    <path fill="#fff" d="M26.98 15.5c.075 0 .125.115.125.281v2.406c0 .167-.05.313-.125.313h-6.656l7 7.031c.06.06.024.195-.094.313l-1.719 1.687c-.117.118-.252.185-.312.125l-7.094-7.125v7.313c0 .078-.115.156-.281.156h-2.406c-.166 0-.313-.078-.313-.156V15.625c0-.026.037-.042.063-.063.009-.02.02-.017.03-.03.009-.005.024.002.032 0 .013-.01.017-.032.031-.032h11.72z"/>
</svg>
