<?xml version="1.0" encoding="UTF-8"?>
<svg xmlns="http://www.w3.org/2000/svg" width="28.391" height="29.067">
	<path fill-opacity=".51" d="M15.224 0c-.178 0-.313.083-.313.188v13.437c0 .2.086.375.188.375h12.625c.1 0 .187-.176.187-.375V9.844c0-.2-.086-.344-.187-.344h-5.22l5.845-5.844c.08-.08.047-.265-.094-.406L25.567.562c-.14-.14-.326-.173-.406-.093l-6.25 6.25V.187c0-.104-.135-.187-.312-.187h-3.375z"/>
	<path fill="#fff" d="M15.724.5c-.167 0-.313.047-.313.125v12.219c0 .01.026.02.031.031a.257.257 0 00.031.062c.012.01.017.025.032.032.005.004.025-.003.03 0 .01.005.022.03.032.03h11.719c.075 0 .125-.145.125-.312v-2.375c0-.166-.05-.312-.125-.312h-6.688l6.719-6.75c.06-.06.024-.195-.094-.313L25.536 1.25c-.118-.118-.284-.185-.344-.125l-6.781 6.812V.625c0-.079-.115-.125-.281-.125h-2.407z"/>
	<path fill-opacity=".51" d="M.974 15c-.102 0-.188.144-.188.344v3.781c0 .2.086.375.188.375H6.38L.036 25.844c-.082.082-.016.265.125.406l2.656 2.656c.141.141.324.208.407.125l6.562-6.562v6.312c0 .11.135.219.313.219h3.343c.178 0 .344-.11.344-.219V15.188c0-.034-.038-.067-.062-.094a.229.229 0 00-.094-.063c-.013-.006-.017-.031-.031-.031H.974z"/>
	<path fill="#fff" d="M1.411 15.5c-.075 0-.125.115-.125.281v2.406c0 .167.05.313.125.313h6.656l-7 7.031c-.06.06-.024.195.094.313L2.88 27.53c.117.118.252.185.312.125l7.094-7.125v7.313c0 .078.115.156.281.156h2.406c.167 0 .313-.078.313-.156V15.625c0-.026-.037-.042-.063-.063-.009-.02-.019-.017-.03-.03-.009-.005-.024.002-.032 0-.013-.01-.017-.032-.031-.032H1.41z"/>
</svg>
