<?xml version="1.0" encoding="UTF-8"?>
<svg xmlns="http://www.w3.org/2000/svg" width="21.125" height="21.781">
    <path fill-opacity=".51" d="M8.313 0c-.102 0-.188.144-.188.344v3.781c0 .2.086.375.188.375h5.124L4 13.938v-5.97c0-.104-.135-.187-.313-.187H.313c-.178 0-.313.083-.313.188v13.437c0 .2.086.375.188.375h12.624c.102 0 .188-.175.188-.375v-3.781c0-.2-.086-.344-.188-.344H7L17.125 7.188v6.593c0 .11.166.219.344.219h3.343c.178 0 .313-.11.313-.219V.187c0-.012-.027-.019-.031-.03-.005-.016.01-.05 0-.063-.019-.037-.038-.045-.063-.063-.008-.005-.022.005-.031 0C20.987.025 20.983 0 20.969 0H8.312z"/>
    <path fill="#fff" d="M8.781.5c-.075 0-.156.115-.156.281v2.406c0 .167.081.313.156.313h6.375L3.5 15.156v-6.75c0-.078-.146-.125-.313-.125H.781c-.166 0-.281.047-.281.125v12.219c0 .013.024.02.031.031.003.008-.003.024 0 .031.015.017.036.019.063.032.016.015.012.062.03.062h11.75c.076 0 .126-.146.126-.312v-2.407c0-.166-.05-.28-.125-.28H5.094L17.624 5.25v7.594c0 .078.147.156.313.156h2.407c.166 0 .28-.078.28-.156V.624c0-.014-.021-.017-.03-.03-.005-.008.008-.024 0-.032-.01-.02-.02-.017-.031-.03-.008-.005-.023.002-.032 0-.013-.01-.016-.032-.03-.032H8.78z"/>
</svg>
