<?xml version="1.0" encoding="UTF-8"?>
<svg xmlns="http://www.w3.org/2000/svg" width="21.125" height="21.781">
    <path fill-opacity=".51" d="M12.813 0c.1 0 .187.144.187.344v3.781c0 .2-.086.375-.188.375H7.689l9.437 9.438v-5.97c0-.104.135-.187.313-.187h3.375c.177 0 .312.083.312.188v13.437c0 .2-.086.375-.188.375H8.313c-.1 0-.187-.175-.187-.375v-3.781c0-.2.086-.344.188-.344h5.812L4 7.188v6.593c0 .11-.166.219-.344.219H.312C.136 14 0 13.89 0 13.781V.187C0 .175.028.169.031.158.036.14.021.106.031.093.05.057.07.049.094.03c.008-.005.022.004.03 0C.139.025.143.001.157.001h12.656z"/>
    <path fill="#fff" d="M12.344.5c.075 0 .156.115.156.281v2.406c0 .167-.081.313-.156.313H5.969l11.656 11.656v-6.75c0-.078.146-.125.313-.125h2.406c.166 0 .281.047.281.125v12.219c0 .013-.024.02-.031.031-.003.008.003.024 0 .031-.015.017-.036.019-.063.032-.016.015-.012.062-.03.062H8.75c-.076 0-.126-.146-.126-.312v-2.407c0-.166.05-.28.125-.28h7.281L3.501 5.25v7.594c0 .078-.147.156-.313.156H.78c-.166 0-.28-.078-.28-.156V.624C.5.61.521.608.53.595.536.586.523.57.531.562c.01-.02.02-.017.031-.03.008-.005.023.002.032 0C.607.521.61.5.624.5h11.72z"/>
</svg>
