<?xml version="1.0" encoding="UTF-8"?>
<svg xmlns="http://www.w3.org/2000/svg" width="26" height="40" viewBox="0 0 26 40">
    <path fill-opacity=".51" d="M6 .007a.403.403 0 0 0-.281.125L.656 5.226a.395.395 0 0 0 0 .563l14.188 14.218L.656 34.227a.395.395 0 0 0 0 .562l5.063 5.093a.434.434 0 0 0 .593 0l14.47-14.5 5.093-5.093a.403.403 0 0 0 .125-.282.433.433 0 0 0-.031-.156.392.392 0 0 0-.094-.125l-5.094-5.094L6.313.132A.478.478 0 0 0 6 .007z"/>
    <path fill="#fff" d="M6 .695c-.077 0-.129.004-.188.062L1.97 4.601a.278.278 0 0 0 0 .406L16.28 19.29 1.344 34.226a.395.395 0 0 0 0 .563l3.687 3.656a.395.395 0 0 0 .563 0L20.719 23.32l3.75-3.75c.022-.022.046-.037.062-.063.017-.017.02-.042.031-.062.004-.009-.003-.022 0-.031.039-.08.036-.139 0-.219-.008-.02.013-.045 0-.062-.005-.014-.024-.019-.03-.032l-.063-.093-3.688-3.657L6.22.758C6.159.698 6.077.695 6 .695z"/>
</svg>
