<?xml version="1.0" encoding="UTF-8"?>
<svg xmlns="http://www.w3.org/2000/svg" width="18.244" height="22.457" viewBox="0 0 18.244 22.457">
    <g fill="#36c" fill-rule="evenodd">
        <path d="M2.773 1.936C1.21 2.237 0 3.612 0 5.256v13.799c0 1.86 1.54 3.402 3.4 3.402h11.444c1.86 0 3.4-1.542 3.4-3.402v-13.8c0-1.643-1.21-3.018-2.773-3.32.129.332.207.687.207 1.06v.175c0 .591-.184 1.145-.49 1.613a.555.555 0 0 1 .253.473v13.799c0 .355-.241.597-.597.597H3.4c-.355 0-.597-.242-.597-.597v-13.8c0-.214.105-.369.254-.472a2.938 2.938 0 0 1-.49-1.613v-.176c0-.372.078-.728.206-1.058z"/>
        <path d="M8.096 0c-.831 0-1.5.669-1.5 1.5v.004h-1.04c-.824 0-1.49.665-1.49 1.49v.176c0 .825.666 1.488 1.49 1.488h7.133c.825 0 1.489-.663 1.489-1.488v-.176c0-.825-.664-1.49-1.489-1.49H11.65V1.5c0-.831-.669-1.5-1.5-1.5z"/>
    </g>
</svg>
