<?xml version="1.0" encoding="UTF-8"?>
<svg xmlns="http://www.w3.org/2000/svg" width="64" height="64" viewBox="5.5 -3.5 64 64">
	<path fill="#72777d" d="M54.414 39.014c.915-1.828 1.372-4.114 1.372-5.943h-7.772l6.4 5.943zM53.5 17.071C48.471 7.93 35.671 5.186 26.986 11.586l5.485 5.485c5.943-4.571 14.172 0 14.629 6.858h8.229c0-2.743-.915-5.943-1.829-6.858-.914-1.828.914 1.829 0 0z"/>
	<path fill="#72777d" d="M37.5-3.5c-17.829 0-32 14.171-32 32s14.171 32 32 32 32-14.171 32-32-14.171-32-32-32zm-27.429 32c0-5.486 1.829-10.514 4.572-14.629l6.4 6.4c-2.743 7.772-1.829 17.372 4.114 23.772 5.486 5.486 15.086 6.857 22.4 3.2l4.572 5.028c-4.115 2.743-9.143 4.115-14.172 4.115-15.543-.457-27.886-12.8-27.886-27.886zm17.829-.914l13.714 14.171c-4.114 1.372-8.685 0-11.428-3.657-1.829-3.2-2.286-7.314-2.286-10.514zM57.157 47.7l-38.4-38.857C23.33 3.814 30.186 1.07 37.5 1.07c15.086 0 27.429 12.343 27.429 27.429 0 7.314-3.2 14.171-7.772 19.2z"/>
</svg>
