<?xml version="1.0" encoding="UTF-8"?>
<svg xmlns="http://www.w3.org/2000/svg" width="26" height="40" viewBox="0 0 26 40">
	<path fill-opacity=".51" d="M20 .007c.102 0 .203.047.281.125l5.063 5.094a.395.395 0 010 .563L11.156 20.007l14.188 14.22a.395.395 0 010 .562l-5.063 5.093a.434.434 0 01-.593 0l-14.47-14.5L.126 20.29A.403.403 0 010 20.007c0-.05.012-.108.031-.156a.392.392 0 01.094-.125l5.094-5.094L19.687.132A.478.478 0 0120 .007z"/>
	<path fill="#fff" d="M20 .695c.077 0 .129.004.188.062l3.843 3.844a.278.278 0 010 .406L9.72 19.29l14.937 14.937a.395.395 0 010 .563l-3.687 3.656a.395.395 0 01-.563 0L5.281 23.32l-3.75-3.75c-.022-.022-.046-.037-.062-.063-.017-.017-.02-.042-.031-.062-.004-.009.003-.022 0-.031-.039-.08-.036-.139 0-.219.008-.02-.013-.045 0-.062.005-.014.024-.019.03-.032l.063-.093L5.22 15.35 19.78.758c.06-.06.142-.063.219-.063z"/>
</svg>
