<?xml version="1.0" encoding="UTF-8"?>
<svg xmlns="http://www.w3.org/2000/svg" width="64" height="64" viewBox="0 0 64 64">
	<path fill="#202122" d="M49.024 2.346c-2.179 2.268-2.006 5.62-2.19 8.515-.247 3.166-3.671 4.733-5.458 1.819-2.273-1.17-7.088-3.087-3.768-6.01 1.239-1.461 1.625-2.656-.662-2.304-2.317.615-5.01-2.55-6.605-1.01.67 1.932-3.56.545-3.975 3.091-.499 2.203-1.535 4.134-3.75 2.016-2.504-2.237-4.987 1.97-5.734 2.799.853 1.324-2.909 1.143-.965 2.49-.833 2.001-1.932-3.072-2.565-.021.343 3.524-2.84 6.01-6.048 6.818-2.81.252-4.573 3.223-6.714 3.87-.87-1.04-.65 4.011-.156 5.458C2.787 31.029.2 34.153 2.64 35.504c1.184 2.587 3.321 5.234 3.168 8.13-2.186 3.172 3.68 4.56 5.343 2.11 1.913-2.355 5.297-.565 7.32-2.559 2.039-2.874 6.43-2.899 9.66-3.857 3.368-.274 5.443 1.8 7.18 4.096-.43 2.596 1.588 1.655 2.096-.137.903-1.066 2.574-1.662 1.27.226-.998.99-.486 3.618.272 1.107 2.06-.86-.1 2.63 2.359 2.515-.024 2.905 2.293 4.83 5.199 5.168 2.456-.574 4.634 1.692 6.822-.36 4.33.004 3.583-5.22 6.362-7.349 3.678-3.691 4.851-9.228 4.09-14.26-1.857-1.748-2.183-5.43-4.382-6.134-.06-2.62-2.088-4.984-4.671-6.257-.734-2.389-1.338-5.474-1.686-8.096-4.132-.394-1.933-4.892-4.017-7.5zm-.4 54.03c-.893 2.043.675 7.189 3.696 4.534 1.1-1.99 1.28-5.248-1.923-3.8-.63-.162-1.114-.655-1.773-.734z"/>
</svg>
