<?xml version="1.0" encoding="UTF-8"?>
<svg xmlns="http://www.w3.org/2000/svg" width="64" height="64" viewBox="0 0 64 64">
    <path fill="#222" fill-rule="evenodd" d="M32.008 0L12.805 19.195l6.398 6.399L38.406 6.398 32.008 0zm12.797 12.797l-6.399 6.398 19.196 19.203L64 32 44.805 12.797zM31.992 19.5c-.893 0-1.616.278-2.172.832-.555.554-.836 1.288-.836 2.195 0 1.002.284 2.655.852 4.965l.945 3.86c.471 1.91.744 3.529.828 4.873h.797c.157-1.886.404-3.506.742-4.873l.961-3.86c.604-2.451.907-4.122.907-5.017 0-.86-.288-1.568-.868-2.121-.567-.566-1.286-.854-2.156-.854zM6.398 25.602L0 32l19.203 19.203 6.39-6.398L6.399 25.602zm38.407 12.796L25.602 57.602 31.992 64l19.211-19.203-6.398-6.399zm-12.774.36c-.82 0-1.518.28-2.086.846-.567.565-.851 1.247-.851 2.037s.284 1.461.851 2.027c.58.554 1.277.832 2.086.832.81 0 1.495-.278 2.063-.832.58-.566.867-1.238.867-2.027a2.71 2.71 0 0 0-.867-2.037 2.81 2.81 0 0 0-2.063-.846z"/>
</svg>
