<?xml version="1.0" encoding="UTF-8"?>
<svg xmlns="http://www.w3.org/2000/svg" width="64" height="64" viewBox="0 0 64 64">
	<path fill="#202122" d="M34.923.061c-.539-.071-1.103.157-1.744.8-1.297 1.301-1.765 3.165-1.483 5.123L5.672 32.068c-1.864-.2-3.625.276-4.865 1.52-2.565 2.573 1.509 3.917 4.875 7.273l5.224 5.207c3.366 3.356 4.711 7.417 7.276 4.845 1.244-1.248 1.717-3.019 1.506-4.889l10.794-10.82c13.061 14.525 16.6 17.131 25.408 26.958.055.062.116.125.176.184 1.85 1.82 5.628 2.136 7.038.723 1.455-1.46 1.133-5.375-.926-7.211-9.848-8.783-12.547-12.23-27.106-25.255l10.86-10.887c1.773.132 3.436-.341 4.622-1.53 2.564-2.573-1.51-3.917-4.876-7.273l-5.223-5.207C37.93 3.19 36.542.275 34.923.061z"/>
</svg>
