<?xml version="1.0" encoding="UTF-8"?>
<svg xmlns="http://www.w3.org/2000/svg" width="64" height="64" viewBox="0 0 64 64">
	<path fill="#202122" fill-rule="evenodd" d="M50.477 0c-6.606 4.229-11.73 10.863-19.481 13.187-6.862 2.179-14.184 1.266-21.231.839-3.598-1.417-6.256 1.87-4.78 5.25 1.647 9.517 6.173 18.306 11.46 26.296 4.395 6.31 9.82 12.151 16.6 15.906 5.76 2.912 13.311 3.862 18.784-.206 4.091-2.592 5.26-7.596 6.422-11.969 2.205-9.96.865-20.24-.353-30.234-.829-5.258-2.991-10.171-4.861-15.118-.728-1.345-1.2-3.102-2.56-3.951zm-6.295 13.741c3.165.799 11.212 2.413 6.02 5.54l-13.199 4.313c1.264-5.245.32-11.22 7.18-9.853zm-22.347 8.716c3.165.799 11.212 2.413 6.02 5.54l-13.2 4.312c1.264-5.245.321-11.22 7.18-9.852zM51.762 33.39c5.181 3.66 1.884 9.062.853 12.706-1.71 4.281-11.064 9.595-15.575 7.469-4.524-1.543-7.244-2.464-11.86-6.9-.629-6.497 3.78-3.115 7.055-2.573 5.357 1.752 12.296.678 14.994-4.814 1.566-2.515 1.583-4.709 4.533-5.888z"/>
</svg>
