<?xml version="1.0" encoding="UTF-8"?>
<svg xmlns="http://www.w3.org/2000/svg" width="64" height="64" viewBox="0 0 64 64">
    <path fill="#222" d="M30.69.318c-6.128-.134-11.905 3.47-14.575 8.834l-3.205-.646-1.656 2.336 3.918.789c-.157.413-.244.84-.33 1.267-.086.428-.173.855-.188 1.297l-2.777-.56-1.656 2.336 4.345.875c.461 6.913 5.547 13.127 12.565 14.54 3.883.783 7.825-.017 11.07-1.958l.748-3.705c-2.982 2.66-7.135 3.939-11.303 3.1-5.699-1.149-9.817-5.91-10.408-11.44l17.346 3.496 1.658-2.336-19.023-3.832c.015-.442.101-.868.187-1.295.072-.356.173-.856.33-1.27l20.162 4.063 1.657-2.336-20.768-4.184c2.636-4.806 8.255-7.677 14.025-6.515 4.489.904 7.5 3.624 9.227 7.197l1.65-2.3C41.48 4.325 37.82 1.512 33.33.608a15.04 15.04 0 0 0-2.64-.29zM48.142 27.07c-.916.016-1.871.15-2.866.405-2.578.658-4.6 1.9-6.068 3.726-1.818 2.29-2.34 4.959-1.563 8.006.184.718.438 1.437.762 2.158.325.721.938 1.838 1.84 3.356l-3.383.863.83 3.254 4.307-1.1c.485.86.84 1.736 1.068 2.63.532 2.08.492 3.968-.12 5.661-.614 1.694-1.523 3.107-2.731 4.242l2.486 3.415c.82-.881 1.78-1.656 2.88-2.327 1.101-.67 2.179-1.14 3.233-1.41a12.695 12.695 0 0 1 2.112-.351c.462-.025 1.501.002 3.12.08 1.62.077 2.637.102 3.052.074a10.53 10.53 0 0 0 1.914-.3 9.814 9.814 0 0 0 2.138-.829c.695-.365 1.644-1.004 2.846-1.92l-2.201-3.3c-1.52 1.261-2.82 2.031-3.904 2.308-.894.228-2.677.363-5.35.406-1.617.023-3.032.192-4.248.502-.952.243-1.968.671-3.043 1.29 1.014-1.836 1.643-3.54 1.889-5.116.245-1.576.206-3.003-.12-4.277a4.998 4.998 0 0 0-.912-1.827l6.24-1.593-.83-3.252-6.921 1.765c-1.505-2.409-2.464-4.426-2.88-6.052-.377-1.48-.162-2.88.647-4.202.81-1.322 2.026-2.19 3.653-2.605 1.523-.389 2.959-.218 4.308.514 1.35.732 2.36 1.948 3.03 3.65l3.78-1.598c-1.068-2.535-2.65-4.312-4.743-5.33-1.309-.636-2.726-.942-4.252-.916zm-34.989 1.004l-.74 3.627c-1.527-.311-8.78.156-10.004 6.154-1.088 5.336 3.572 7.804 6.91 8.98l-1.222 6.032c-2.369-1.2-2.45-3.15-2.485-4.756L.105 46.988c-.882 6.07 4.032 9.978 6.946 11.014l-.752 3.69 5.234 1.066.74-3.631c4.189.633 9.8-1.81 10.762-6.527 1.102-5.403-3.474-7.934-7.555-9.196l1.127-5.527c1.616.446 2.575 2.271 2.39 3.89l5.454 1.112c1.093-5.36-3.404-9.213-6.857-10.121l.74-3.63-5.18-1.054zm-1.767 8.793l-.934 4.58c-3.68-.808-2.96-4.711.934-4.58zm3.058 11.908c4.546 1.044 4.162 5.533-1.062 5.198l1.062-5.198z"/>
</svg>
