<?xml version="1.0" encoding="UTF-8"?>
<svg xmlns="http://www.w3.org/2000/svg" width="64" height="64" viewBox="0 0 64 64">
	<path fill="#202122" fill-rule="evenodd" d="M21.145 2.008c-.77.02-1.43.58-1.586 1.373L8.879 41.908c-.352 1.777.872 3.473 2.656 3.785 1.784.313 3.511-.865 3.785-2.656l7.508-39.084c.14-.916-.443-1.76-1.35-1.92a1.665 1.665 0 00-.333-.025zm18.43 7.65c-1.161.024-2.37.165-3.634.446-5.145 1.14-10.539 3.35-14.744 7.72l-4.873 25.37c-.17 1.1-.782 2.002-1.6 2.634.45.816.658 1.855.55 3.23 3.81 9.697 13.185 12.934 18.292 12.934 6.76 0 22.29-3.106 21.377-11.328-.913-8.222-8.952-10.05-8.039-14.252.914-4.202 9.502 3.29 12.608 4.022 3.106.73 8.037-11.144.547-18.635-6.555-6.555-12.363-12.307-20.485-12.14zm.347 3.285c1.29-.021 2.636.63 3.6 1.739 1.612 1.854 1.694 4.422.183 5.736-1.512 1.314-4.046.875-5.658-.98s-1.695-4.425-.184-5.739c.552-.48 1.271-.742 2.059-.756zm-10.969 5.094c1.369.05 2.77.621 3.91 1.592 2.42 2.062 3.02 5.331 1.34 7.303-1.68 1.97-5.005 1.897-7.424-.164-2.418-2.062-3.017-5.33-1.338-7.301.822-.965 2.09-1.481 3.512-1.43zm-6.47 12.053a4.953 4.953 0 012.288.525c2.093 1.034 3.107 3.254 2.264 4.96-.843 1.705-3.223 2.25-5.316 1.216-2.093-1.035-3.106-3.257-2.262-4.963.52-1.051 1.66-1.707 3.025-1.738zm1.146 13.113c.087.003.173.01.26.018 2.03.188 3.552 1.683 3.398 3.338-.154 1.654-1.925 2.84-3.955 2.652-2.03-.189-3.55-1.682-3.396-3.336.145-1.572 1.759-2.74 3.693-2.672zM8.906 44.955c-1.095.544-2.222 1.507-3.177 2.906-1.998 2.928 1.04 5.007-.672 8.418C3.345 59.691 0 61.83 0 61.83s11.1-2.634 13.307-8.866c1.343-3.795 1.187-5.702.504-6.815a4.078 4.078 0 01-2.41.315 4.073 4.073 0 01-2.495-1.508z"/>
</svg>
