<?xml version="1.0" encoding="UTF-8"?>
<svg xmlns="http://www.w3.org/2000/svg" width="64" height="64" viewBox="0 0 64 64">
	<path fill="#202122" d="M30.333 0c-2.038.777-5.011.9-6.296 1.932C21.898.845 22.13 3.129 21.941 3.44c-2.834-1.096.312 3.695-2.301 1.53-1.463 1.483-2.776-2.772-2.958.5-.336 1.576-1.55 2.906-2.411 1.237-1.258-.47-1.294-3.868-2.414-1.078-.23 3.548-6.552.574-5.698 4.106 2.332 1.41-.494 3.275-1.086 3.73 2.747 1.525-.643 5.362 3.002 5.757 2.684-.276.144 1.433 1.237 2.36 2.98-.145 4.12-5.818 7.549-3.489 2.196 1.381 5.189 2.538 5.098 5.507.896 1.315.17 3.456 1.843 3.937 1.111.681 1.67 2.425 1.941 2.707 3.367.791 4.577 4.81 7.552 6.402 2.06.69 5.108.291 5.566 3.31 1.845-.877.92 2.146 2.694.887 1.865.923 1.107 4.238 4.088 3.788 1.297 1.363 3.28 5.757 2.276 7.507-1.345.623-.872 2.94-2.03 3.698 1.408 2.932 4.08-1.39 4.459-3.12.56-2.335 4.26-1.664 1.986-4.607-1.224-1.336-3.36-1.734-1.794-3.904.453-2.184 2.617-2.798 3.993-1.455 2.022-.471 3.391 5.54 4.394 1.738-.419-3.44-4.418-4.727-6.968-6.335-1.781-.735-6.323-2.15-3.646-4.197-.839-2.147-4.687.465-6.298-1.895-2.546-1.748-4.23-4.364-4.698-7.426-1.01-3.574-6.77-3.743-6.716-7.992-1.055-1.63 2.211-1.957.34-3.497-.954-1.05.72-3.765.655-2.356 2.433-.589 3.195-2.72 5.615-1.48 1.4 1.723-.621-1.31-.45-1.264-1.293-1.154.955-1.941-.826-2.237-.032-1.179 2.253-2.251-.193-2.234-1.877.062-6.639-.972-5.353-3.36L30.333 0zM16.641 37.157c-.972 1.768-3.476 2.719-4.84 2.582.016 1.888 2.138 3.61 1.249 5.37.696 1.788-1.47 6.907 2.068 5.866.59-2.577 3.66-.06 3.51-2.975-.596-2.899 1.494-6.423-.452-8.816.512-1.086-1.026-1.395-1.535-2.027zm2.325 2.013c-1.444-.19-.416.642 0 0zm26.568 15.48c-2.47 1.015-5.208 1.696-7.86 1.785-1.738-.474-2.625-1.488-4.233-.351-2.767-1.675-2.33 3.99.588 3.14 2.893 1.72 6.007 3.487 8.96 4.776 2.757-1.698-1.014-5.466 1.987-7.524.253-.43 1.383-1.423.558-1.826z"/>
</svg>
