<?xml version="1.0" encoding="UTF-8"?>
<svg xmlns="http://www.w3.org/2000/svg" width="64" height="64" viewBox="0 0 64 64">
    <path fill="#222" fill-rule="evenodd" d="M31.934 0C55.19 15.901 56.025 29.211 53.04 40.015c-.646 2.34-1.731 4.446-3.252 6.19-1.29 1.479-2.938 2.724-4.996 3.683-6.357 2.963-16.17 1.966-29.08-5.537l-2.441 3.147c-.516-.385-1.798-.86-2.783.345-.953 1.166.395 2.498-.1 3.362-.44.767-.583.747-3.388 2.48-5.579 3.445-6.784 8.087-5.137 9.709 1.607 1.582 6.333-.348 9.027-6.834 1.14-2.744.882-2.379 1.752-3.31.734-.787 2.084.31 2.951-.67.92-1.039.372-2.533-.004-3.043l.793-.91c13.014 11.687 26.154 13.391 35.115 8.478l6.147 6.623c.64.664 2.239.07 3.584-1.326 1.344-1.397 1.91-3.057 1.271-3.721l-5.793-5.687c3.32-3.655 5.47-8.657 5.975-14.64C64.472 17.128 48.11 4.708 31.934 0zM22.95 11.512L9.497 25.488l5.82 6.043 6.326-6.57 3.164-3.29 7.996-8.306-9.853-1.853zM38.99 19.5c-.872 0-1.578.276-2.12.83-.543.554-.813 1.286-.813 2.193 0 1.002.276 2.659.83 4.969l.92 3.853c.46 1.91.73 3.537.812 4.881h.78c.153-1.886.394-3.513.724-4.88l.938-3.854c.59-2.452.883-4.126.883-5.022 0-.86-.282-1.567-.848-2.12-.554-.566-1.257-.85-2.105-.85zm.038 19.253c-.802 0-1.48.284-2.034.85a2.804 2.804 0 0 0-.832 2.033c0 .79.278 1.468.832 2.033.566.554 1.244.83 2.034.83.79 0 1.461-.276 2.015-.83a2.773 2.773 0 0 0 .848-2.033c0-.801-.282-1.479-.848-2.033a2.717 2.717 0 0 0-2.015-.85z"/>
</svg>
