<?xml version="1.0" encoding="UTF-8"?>
<svg xmlns="http://www.w3.org/2000/svg" width="64" height="64" viewBox="0 0 64 64">
	<path fill="#202122" d="M30.297 0a.736.736 0 00-.125.016c-.315-.028-1.217.426-.729.648.623-.087 1.127.204 1.266.82.427.425.432 1.249-.283 1.362-.615.126-1.18-.27-1.774-.368-.363-.59.887-.638.678-1.166-.283-.54-1.28-.793-1.441-.027-.236.572-.218 1.27-.703 1.717-.408.514-.335 1.22-.838 1.602-.055.71.859.67 1.187 1.128.347.4.814 1.002 1.412.702.697-.322.39-1.245.903-1.68.748-.556.288.791.511.955.372-.027.965-.115.774.467.26.452.103.558-.819 1.16-.498-.582-1.488-.1-1.336.144.508.164 2.103-.303 2.102.473-.209.715-1.088.808-1.69.57-.62-.11-1.236-.27-1.87-.265-.654-.045-1.28.33-1.66.844-.157.589-.738 1.308-.266 1.878.705.313 1.012-.675 1.572-.898.612-.337 1.361-.244 2.037-.285.674-.01 1.344-.015 2.008.103.262.016.524.026.787.034.263-.008.525-.018.787-.034.664-.118 1.334-.112 2.008-.103.676.041 1.425-.052 2.037.285.56.223.867 1.21 1.572.898.472-.57-.11-1.29-.265-1.878-.38-.515-1.007-.89-1.66-.844-.635-.004-1.25.156-1.872.265-.601.238-1.48.145-1.689-.57 0-.776 1.594-.31 2.102-.473.152-.243-.838-.726-1.336-.144-.923-.602-1.08-.708-.819-1.16-.19-.582.402-.493.774-.467.223-.164-.237-1.511.511-.955.513.435.206 1.358.903 1.68.598.3 1.065-.303 1.412-.702.328-.458 1.242-.418 1.187-1.128-.503-.382-.43-1.088-.838-1.602-.485-.448-.467-1.145-.703-1.717-.16-.766-1.158-.513-1.441.027-.21.528 1.041.576.678 1.166-.594.098-1.16.494-1.774.368-.715-.113-.71-.937-.283-1.362.139-.616.643-.907 1.266-.82.488-.222-.414-.676-.729-.648A.717.717 0 0033.703 0c-.61-.017-.922.763-1.328 1.135-.084.098-.17.197-.232.31-.04.13-.088.255-.143.377a3.023 3.023 0 01-.143-.377c-.063-.113-.148-.212-.232-.31C31.219.763 30.907-.018 30.297 0zm2.213 11.518c-1.72.03-3.463.782-4.815 2.502-2.402 3.057-.436 2.768.729 4.296 1.165 1.53 1.238 4.732-.072 5.97 0 0 3.785-3.713 5.095-3.786 1.31-.073 3.057 1.53 3.057 1.53s-.8-2.113-.436-3.278c.364-1.165 2.767-4.44.22-6.115-1.116-.733-2.44-1.144-3.778-1.12zm-9.405.101c-.187-.013-.391.125-.63.512-.975-.062-1.694-.392-2.707-.025-1.617-.271-2.538 1.2-3.315 2.351-.258.99.71 1.623 1.582 1.536a.959.959 0 01.625-.215c.013-.01.026-.014.04-.023 1.092-.543-.19-2.968 1.603-2.276.53.747.16 3.313-1.221 2.385a1.295 1.295 0 00-.422-.084c-.188.122-.403.19-.625.213-.585.452-.889 1.483-1.586 1.766-1.152.977.179 2.211.182 3.345.026 1.421 1.537 2.645 2.922 2.106 1.545-.068 2.055-1.638.61-2.366-.686-.95-1.826-1.375-2.606-2.216 1.697-.434 3.125.857 4.662 1.275 1.916.203 4.129-1.555 3.636-3.61.12-1.225-1.446-1.99-.992-3.314-.124-.082-.277.023-.379.084-.535-.384-.9-1.409-1.379-1.443zm17.79 0c-.479.035-.844 1.06-1.38 1.444-.101-.061-.252-.167-.376-.084.454 1.324-1.115 2.086-.994 3.312-.493 2.054 1.72 3.812 3.636 3.61 1.537-.418 2.965-1.71 4.662-1.276-.78.842-1.92 1.268-2.605 2.219-1.446.728-.936 2.297.61 2.365 1.384.54 2.895-.685 2.921-2.105.003-1.135 1.334-2.369.182-3.346-.697-.283-1.001-1.314-1.586-1.766a1.398 1.398 0 01-.625-.213c-.129 0-.267.028-.422.084-1.38.928-1.751-1.64-1.22-2.386 1.791-.692.51 1.733 1.603 2.275.013.01.026.017.039.025.246 0 .448.078.625.215.872.088 1.84-.546 1.582-1.535-.777-1.15-1.698-2.623-3.315-2.352-1.013-.367-1.732-.038-2.707.025-.239-.387-.443-.525-.63-.512zM9.742 19.611c-.056 0-.113 0-.17.012-.767.488-1.877.17-2.779.155-.527.56.018 1.03.103 1.543.477.908.072 2.124-.103 3.09-.507.93.744 1.186.412 2.162-.424.407-.6.975-.516 1.67.068.616-.162 1.112-.103 1.726.19.781.263 1.82.83 2.572.356.595.146 1.41.201 2.125.014 1.15.231 2.21-.27 3.328-.368 1.138-.931 2.282-1.171 3.3-.35.8-.865 1.92-1.237 2.882-.304.707-.355 2.178-1.441 1.545-.355-.637.207-1.514.104-2.266.22-.814.082-1.782.412-2.572.156-.946.088-1.983.101-2.988.078-.821-.115-1.186-.72-1.543-.286-.85-.582-1.65-.514-2.594-.181-.707-.078-1.518-.104-2.287-.07-.445.27-1.596-.513-1.09-.728.472-1.533 1.126-1.34 2.08-.21 1.42.961 2.484 1.236 3.79v4.96c.052.606-.113 1.297.104 1.834v2.37c-.233 1.1.555 1.649 1.142 2.411.031 1.832 1.417.066 1.43-.767-.086-.56.734-2.392.62-2.059.032 1.066-.441 2.047-.517 3.088v2.102c-.047.977.558 1.68.774 2.443.653.911.799 2.206 1.598 3.125-.118 1.579 2.086 1.245 2.261.236-.12-.735.232-1.279.207-1.976.085-.849-1.17-.88-1.644-1.42-.222-.794-.499-1.733-.21-2.553.386-.874.431-1.821 1.13-2.37.76-.379.778-1.342.724-2.161-.137-.837.18-1.02.823-.719-.058 1.058-.137 2.123-.102 3.192.191.713-1.859 1.376-1.256 1.855.93.165 1.8 1.307 2.902 1.129 1.207.071 2.59-.383 3.5-.926-.035-1.149.169-2.347-.412-3.398-.518-1.427-.734 1-1.853.31-.687-.386-1.105-.672-.926-1.547-.044-.992.102-2.03-.103-2.984-.153-1.02-1.793-.995-2.676-1.133-.998.443-.484-1.077-.53-.98.7-1.214 1.344-2.584 2.176-3.653.46.344 1.18 1.196 1.903 1.532.689.835 2.046 1.048 2.763.187.693-.538 1.118-1.904 1.432-2.111 1.016-.33.603-1.846-.332-1.975.837-1.114-.746-1.372-1.338-1.646-.448.07-2.044-.785-1.75-.824.6-.402-.108-.84.102-1.647.205-1.115 1.591-1.002 2.472-1.545 1.475-.868-1.064-2.426.617-3.09.102-.811-.57-.842-.72-1.338.086-.593-.113-1.066-.309-1.543-.88-1.325-1.257.172-1.558 1.012-.363 1.159-.854 2.522-1.737 3.31-.198.917-1.203 2.057-1.75.928.226-1.05.127-1.7-.926-1.914-.281-.412-.286-1.306-.103-1.69.55-.672 1.475-.561 1.955-1.235.705-.305.746-1.822 0-1.852-.656-.463-1.455-1.582-2.3-1.607zm44.516 0c-.846.026-1.645 1.143-2.301 1.606-.746.03-.705 1.549 0 1.853.48.675 1.406.564 1.955 1.237.183.382.178 1.277-.103 1.69-1.053.213-1.152.863-.926 1.913-.547 1.129-1.552-.012-1.75-.928-.883-.788-1.374-2.152-1.737-3.31-.3-.84-.678-2.34-1.558-1.014-.196.477-.395.952-.309 1.545-.15.495-.822.526-.72 1.338 1.68.664-.858 2.222.617 3.09.88.542 2.267.427 2.472 1.543.21.808-.497 1.246.102 1.648.294.04-1.302.895-1.75.824-.592.275-2.175.532-1.338 1.647-.935.128-1.348 1.644-.332 1.975.314.207.739 1.573 1.432 2.11.717.862 2.074.647 2.763-.189.722-.335 1.443-1.185 1.903-1.529.831 1.067 1.476 2.434 2.174 3.647-.013 0 .44 1.415-.528.986-.883.138-2.523.112-2.676 1.133-.205.954-.059 1.992-.103 2.984.179.874-.24 1.158-.926 1.545-1.119.69-1.335-1.735-1.853-.309-.58 1.052-.377 2.25-.412 3.399.91.543 2.293.997 3.5.926 1.103.178 1.973-.965 2.902-1.13.603-.479-1.447-1.141-1.256-1.855.035-1.068-.044-2.134-.102-3.191.643-.302.96-.118.823.719-.054.819-.037 1.782.724 2.16.699.55.744 1.496 1.13 2.37.289.82.012 1.76-.21 2.554-.473.54-1.729.57-1.644 1.42-.025.697.327 1.24.207 1.976.175 1.009 2.379 1.343 2.261-.236.8-.919.945-2.214 1.598-3.125.216-.763.82-1.466.774-2.444v-2.101c-.076-1.04-.55-2.022-.516-3.088-.115-.334.705 1.498.62 2.059.012.834 1.398 2.598 1.429.767.587-.763 1.375-1.312 1.142-2.412v-2.371c.217-.537.052-1.227.104-1.832v-4.963c.275-1.305 1.445-2.366 1.236-3.787.193-.955-.612-1.608-1.34-2.08-.784-.507-.443.644-.513 1.09-.026.768.077 1.58-.104 2.287.068.944-.228 1.743-.514 2.594-.605.357-.798.721-.72 1.543.013 1.005-.055 2.042.101 2.988.33.79.191 1.757.412 2.572-.103.752.46 1.629.104 2.266-1.086.632-1.137-.838-1.441-1.545-.372-.962-.887-2.082-1.237-2.883-.24-1.018-.803-2.161-1.172-3.299-.5-1.12-.283-2.18-.27-3.328.056-.714-.154-1.53.202-2.125.567-.753.64-1.791.83-2.572.059-.615-.17-1.112-.103-1.729.083-.694-.092-1.26-.516-1.668-.332-.975.919-1.232.412-2.162-.175-.965-.58-2.181-.103-3.09.085-.512.63-.983.103-1.543-.902.015-2.012.332-2.78-.156-.056-.01-.113-.012-.17-.01zm-34.79 5.39v17.991c0 6.958 5.61 12.6 12.532 12.6 6.921 0 12.532-5.642 12.531-12.6v-17.99zm.452 29.317a1.4 1.4 0 00-.574.133c-1.156.11-1.582 1.782-2.797 1.488-.987-.59-1.445 1.211-.502 1.397.424.535.836 1.127 1.422 1.486-6.91-.338-10.592-1.611-10.592-1.611.423 2.006.636 3.861 0 5.098 0 0 4.892 1.691 13.992 1.691 9.1 0 19.219-1.455 26.717-1.455 7.498 0 9.537 1.455 9.537 1.455-.396-1.401-.685-2.883 0-5.096 0 0-1.983-1.41-9.209-1.453.08-.12.157-.243.229-.369.708-.055.078-1.042-.147-1.379-1.236 1.111-1.955-.82-3.004-1.133-.973-.56-3.512.084-2.474 1.434.51.592.149 1.294-.606.787-1.157-.316-2.51.044-3.197.887-.17-.548-.707-1.28-.947-.307-.332.76-.998.585-.727-.205-.373-1.506-3.195-.419-1.676.746-.47.556-2.604.1-1.392-.863.525-.674-.072-1.72-.659-.656-.553.468-1.04 2.959-1.78 1.464-.308-.645-1.035-2.176-1.723-1.75.148.825 1.202 2.34-.442 1.987-.738.215-1.06-.308-.357-.682.224-1.51-2.644-1.163-2.092.418-.573.485-.69-1.624-1.51-.596-.327 1.097-.903-.834-1.808-.535-.686-.292-2.731.87-2.3-.465 1.2-.914-.255-1.946-1.382-1.916zm9.271 2.805l-.003.021zm5.616 0l.002.021z"/>
	<path fill="none" d="M616.063-229.45s-19.799-14.141-92.63-14.141c-72.833 0-171.12 14.142-259.509 14.142-88.388 0-135.893-16.438-135.893-16.438 6.175-12.009 4.107-30.012 0-49.498 0 0 47.505 16.438 135.893 16.438s186.676-14.142 259.508-14.142 92.631 14.142 92.631 14.142c-6.654 21.49-3.849 35.885 0 49.498z"/>
</svg>
