<?xml version="1.0" encoding="UTF-8"?>
<svg xmlns="http://www.w3.org/2000/svg" width="64" height="64" viewBox="0 0 64 64">
    <path fill="#222" d="M15.375 0v15.375H0v1h15.375V31.5H0v1h15.375v15.125H0v1h15.375L0 64h64V0L52.87 11.133l-4.243 4.242h-.002V0h-1v15.375H32.5V0h-1v15.375H16.375V0h-1zm1 16.375H31.5V31.5H16.375V16.375zm16.125 0h15.125v.002L32.502 31.5H32.5V16.375zm18.457 15.111v.014h-.014l.014-.014zM16.375 32.5H31.5v.002L16.375 47.625V32.5zm33.568 0h1.014v15.125h-2.332V33.818l1.318-1.318zm-2.318 2.318v12.807H34.818l12.807-12.807zM33.818 48.625h13.807v2.332H32.5v-1.014l1.318-1.318zm14.807 0h2.332v2.332h-2.332v-2.332zM31.5 50.943v.014h-.014l.014-.014z"/>
</svg>
