<?xml version="1.0" encoding="UTF-8"?>
<svg xmlns="http://www.w3.org/2000/svg" width="24" height="24" viewBox="0 0 24 24">
	<path fill-opacity=".51" d="M6.81 1.55a.52.52 0 00.092.062.52.52 0 00.244.153c-.003-.003.035.004.031 0-.004-.004.004.035 0 .03l.03.031a.52.52 0 000 .03.52.52 0 00.031 0c-.002-.003.003.035 0 .031l.03.031c-.001-.004.033.034.031.03-.001-.003.002.035 0 .031-.001-.004.033.035.031.03-.002-.003.001.035 0 .031v.031a.52.52 0 00.03.122V4.55c4.157.278 6.5 2.398 7.589 4.59 1.141 2.299 1.103 4.542 1.101 4.59v.122a.52.52 0 00-.06.184.52.52 0 000 .03c0-.003-.033.035-.031.031.001-.004-.002.034 0 .03a.52.52 0 00-.03.031c.002-.004-.035.035-.032.03.003-.003-.002.035 0 .031a.52.52 0 00-.03.031c.002-.002-.024-.008-.03 0-.008.008-.002.033 0 .03.003-.003-.004.035 0 .031.003-.003-.035.004-.031 0l-.03.03a.52.52 0 00-.032.031c.004-.002-.034.003-.03 0 .003-.002-.034.033-.03.031.003-.002-.035.032-.031.03.003-.001-.035.002-.03 0 .003-.001-.035.033-.032.031.004-.001-.034.002-.03 0h-.03a.52.52 0 00-.123.03h-.091a.2.2 0 00-.031 0h-.061a.52.52 0 00-.123-.03h-.03c.003.002-.035-.001-.031 0 .004.002-.035-.032-.03-.03.003.001-.035-.002-.031 0 .003.001-.035-.033-.031-.031l-.03-.03c.003.002-.035-.003-.031 0a.52.52 0 00-.03-.031l-.031-.03c.003.003-.035-.004-.031 0-.008-.008-.002-.033 0-.031l-.03-.031-.031-.03a.52.52 0 00-.03-.031S12.071 10.6 7.36 10.975v2.846a.52.52 0 00-.031.122v.03c.001-.003-.002.035 0 .031.002-.004-.032.035-.03.03.001-.003-.002.035 0 .031.001-.003-.033.035-.031.031.002-.003-.002.034 0 .03-.005.008-.032.002-.03 0 .001-.003-.003.035 0 .031l-.031.03c.002-.002-.003.035 0 .031.002-.003-.034.003-.03 0l-.032.031c.003-.003-.002.033 0 .03.003-.002-.033.003-.03 0l-.03.031c.002-.002-.004.033 0 .03.002-.002-.035.003-.031 0l-.03.031c.002-.002-.035.002-.032 0 .004-.002-.003.033 0 .031-.01.006-.033.001-.03 0a4.144 4.144 0 00-.061.03c.005-.002-.036.003-.03 0 .005-.002-.037.033-.032.031.006-.002-.036.002-.03 0 .006-.001-.067.032-.061.03.005 0-.037.002-.03 0h-.032a.52.52 0 00-.03 0h-.123a.52.52 0 00-.183-.06c.004.001-.035-.002-.03 0 .003.001-.035-.033-.031-.031a.52.52 0 00-.061-.03l-.031-.031c.004.003-.034-.004-.03 0 .003.004-.004-.035 0-.03l-.031-.031a.52.52 0 00-.03 0L.292 8.558a.52.52 0 00-.062-.061c.003.003-.002-.034 0-.031.003.003-.032-.034-.03-.03.002.003-.003-.035 0-.031l-.03-.03c0 .003-.033-.035-.031-.031.001.003-.002-.035 0-.031a.071.071 0 000-.03c-.004-.008-.032-.002-.031 0v-.061a.52.52 0 00-.03-.123v-.122a.52.52 0 00.03-.123v-.061c0 .002.027.008.03 0 0 .004.002-.035 0-.03 0 .003.002-.035 0-.031-.001.004.033-.035.031-.03a.067.067 0 010-.032c0 .002.027.008.03 0-.002.004.003-.033 0-.03-.001.003.034-.034.031-.03-.002.003.003-.035 0-.031a.52.52 0 00.062-.062l5.813-5.752a.52.52 0 00.061-.061c-.003.002.034-.002.03 0l.032-.03a.06.06 0 00.03 0c-.003.002.034-.033.03-.031l.031-.03c-.003 0 .035-.003.03 0a.071.071 0 00.032 0c.007-.004.001-.032 0-.032-.004.002.034 0 .03 0-.004.002.035 0 .03 0a.52.52 0 00.123-.03h.03a2.328 2.328 0 00.123 0h.03a.52.52 0 00.062 0zm15.42 1.53a.52.52 0 00.153.093.52.52 0 00.184.122c-.003-.003.003.034 0 .03a.52.52 0 00.03.031c-.002-.003.033.003.031 0a.52.52 0 000 .03l.03.031c-.002-.003.003.034 0 .031-.001-.003.033.003.031 0 .006.01.002.033 0 .03l.03.062c-.002-.006.003.036 0 .03-.001-.005.033.037.031.03-.001-.005.002.037 0 .032-.001-.006.032.067.031.06v.061a.52.52 0 000 .062v16.798a.52.52 0 00-.03.123c0-.004-.002.034 0 .03 0-.004-.002.035 0 .031.001-.004-.033.034-.031.03.002-.003-.002.035 0 .031.002-.004-.033.034-.03.03.001-.003-.003.035 0 .031-.005.008-.033.002-.031 0 .002-.003-.003.034 0 .031.002-.003-.033.034-.031.03.002-.003-.002.034 0 .031.002-.003-.033.003-.03 0l-.031.03c.003-.002-.003.034 0 .031.003-.002-.034.003-.03 0l-.031.031c.003-.003-.004.033 0 .03.003-.002-.034.003-.031 0 .003-.002-.034.033-.03.031.003-.002-.035.002-.031 0 .003-.002-.004.033 0 .03-.01.007-.033.002-.03 0a4.263 4.263 0 00-.062.031c.005-.002-.036.003-.03 0 .005-.002-.037.033-.031.031.005-.002-.036.002-.03 0l-.062.03h-.061a.52.52 0 00-.061 0H3.872a.52.52 0 00-.122-.03h-.03c.003.001-.035-.002-.031 0 .004.002-.035-.032-.03-.03.003.001-.035-.002-.031 0 .003.001-.035-.033-.03-.031l-.032-.03c.004.001-.033-.003-.03 0 .003.001-.034-.034-.03-.031.003.002-.034-.003-.031 0 .003.002-.003-.034 0-.031l-.03-.03c.002.002-.034-.003-.031 0 .002.002-.003-.034 0-.031l-.031-.03c.003.002-.033-.004-.03 0 .002.002-.003-.035 0-.031l-.031-.031c.002.003-.002-.034 0-.03l-.03-.031a4.143 4.143 0 00-.031-.061c.002.005-.003-.036 0-.031.002.005-.033-.036-.031-.03.002.005-.002-.037 0-.031.001.005-.032-.067-.03-.061 0 .005-.002-.037 0-.031v-.03a.52.52 0 000-.062V13.27a.52.52 0 00.03-.122v-.061c-.002.003.032-.035.03-.031-.001.004.002-.035 0-.03-.001.003.033-.035.031-.031-.001.001-.004-.024 0-.031-.002.003.033-.004.03 0-.001.003.003-.034 0-.03l.031-.031c-.002.003.003-.034 0-.03-.002.002.034-.004.03 0l.032-.031c-.003.002.002-.034 0-.031-.003.003.033-.003.03 0l.03-.03c-.002.002.004-.034 0-.031-.002.002.035-.003.031 0l.03-.03c-.002.001.035-.003.031 0-.003.001.004-.033 0-.031.01-.006.034-.002.031 0l.061-.031c-.005.002.036-.002.03 0-.005.002.037-.033.031-.03-.005.001.037-.002.031 0-.006 0 .067-.032.061-.031h.061a.52.52 0 00.031 0h.122a.52.52 0 00.153.06.52.52 0 00.092.032c-.004-.002.035.001.03 0-.003-.002.035.032.031.03l.031.03c-.003-.002.034.003.03 0a.52.52 0 00.031.062.52.52 0 00.03 0l2.663 2.6a.52.52 0 00.061.062c-.002-.003.002.034 0 .03l.03.031c-.001-.003.033.034.031.03-.002-.003.002.035 0 .031-.001-.003.032.035.03.03 0-.003.002.035 0 .032a.071.071 0 000 .03c.004.008.032.002.031 0-.001-.004.002.035 0 .03a.16.16 0 000 .031.52.52 0 00.031.123v.03a.452.452 0 000 .062v1.193h11.29V7.15h-4.068a.52.52 0 00-.093-.03.52.52 0 00-.153-.03c.004.001-.034-.033-.03-.031.003.002-.034-.033-.03-.031.003.002-.035-.003-.031 0l-3.948-2.6a.52.52 0 00-.06-.032l-.031-.03a1.374 1.374 0 00-.03-.03c.004.004-.036-.067-.032-.062.005.005-.034-.036-.03-.03.004.005-.034-.037-.03-.031 0 .002.004-.021 0-.03.002.003-.033-.035-.031-.031.003.006-.034-.037-.03-.03 0 .002.004-.019 0-.031a.071.071 0 000-.031c-.004-.008-.032-.002-.032 0 .002.004 0-.035 0-.03.002.003 0-.035 0-.031a.52.52 0 00-.03-.123v-.122a.52.52 0 00.03-.122c0 .004.002-.035 0-.031 0 .004.002-.035 0-.03 0 .001.028.007.031 0V3.54c-.001.004.002-.035 0-.03-.001.003.032-.035.03-.031-.001.003.003-.035 0-.031 0 .002.027.007.031 0-.002.003.003-.034 0-.03l.03-.031c-.001.003.003-.034 0-.03a.52.52 0 00.062-.062l.03-.03.031-.031c-.003.002.034-.003.03 0l.031-.03.031-.031c-.004.002.034-.033.03-.031-.003.002.035-.002.031 0-.004.002.035-.002.03 0-.003.002.035-.032.031-.03-.004 0 .035-.002.031 0-.004 0 .035-.002.03 0-.003 0 .035-.032.031-.031h.061a.52.52 0 00.031 0h11.505a.452.452 0 01.062 0 .52.52 0 00.061 0z"/>
	<path fill="#fff" d="M6.798 2.189V5.06c8.873.057 8.7 8.606 8.7 8.606s-3.162-4.296-8.7-3.442v3.442L1.002 7.933 6.798 2.19zm15.44 1.534V20.46H4.113v-7.227l2.654 2.603v1.97h12.765V6.336h-4.75l-3.94-2.613h11.396z"/>
</svg>
