<?xml version="1.0" encoding="UTF-8"?>
<svg xmlns="http://www.w3.org/2000/svg" width="24" height="24" viewBox="0 0 24 24">
    <path fill-opacity=".51" d="M16.051 1.55a.52.52 0 0 0-.092.062.52.52 0 0 0-.245.153c.004-.004-.034.004-.03 0 .004-.004-.004.034 0 .03l-.03.031a.52.52 0 0 0 0 .03.52.52 0 0 0-.031 0c.002-.003-.003.035 0 .031l-.03.03c.001-.003-.033.035-.031.031.001-.003-.002.035 0 .031.001-.004-.033.035-.031.03v.061a.52.52 0 0 0-.03.123v.061a.582.582 0 0 0 0 .062v2.233c-4.157.277-6.5 2.397-7.589 4.59-1.141 2.299-1.103 4.542-1.101 4.59v.03a2.328 2.328 0 0 0 0 .092.52.52 0 0 0 .06.184.52.52 0 0 0 0 .03c0-.004.033.035.031.03-.001-.003.002.035 0 .031a.52.52 0 0 0 .03.031c-.002-.004.035.034.032.03-.003-.003.002.035 0 .031a.52.52 0 0 0 .03.03c-.002-.001.024-.007.03 0 .008.009.002.033 0 .031-.003-.004.004.035 0 .031-.003-.004.035.004.031 0l.03.03a.52.52 0 0 0 .032.031c-.004-.002.034.002.03 0l.03.03c-.003-.001.035.033.031.031-.003-.001.035.002.03 0-.003-.001.035.033.031.031-.003-.002.035.001.031 0h.03a.52.52 0 0 0 .123.03h.061a.452.452 0 0 0 .061 0h.061a.52.52 0 0 0 .123-.03h.03c-.003.001.035-.002.031 0-.004.002.035-.032.03-.03-.003.001.035-.002.031 0-.003.001.035-.033.031-.031-.004.002.034-.033.03-.03-.003.001.035-.003.031 0a.52.52 0 0 0 .03-.031l.031-.031c-.003.004.035-.004.031 0 .008-.007.002-.032 0-.03l.03-.031.031-.03a.52.52 0 0 0 .03-.031S10.79 10.6 15.5 10.975v2.845a.52.52 0 0 0 .03.123.15.15 0 0 0 0 .03.16.16 0 0 0 0 .031c0-.004.033.034.032.03-.002-.003.001.035 0 .031-.002-.004.032.034.03.03-.002-.003.002.035 0 .031.005.008.032.002.03 0-.001-.003.003.034 0 .031l.031.03c-.002-.003.003.034 0 .031-.002-.003.033.003.03 0l.031.03c-.002-.002.003.034 0 .031-.002-.002.034.003.031 0l.03.031c-.002-.003.004.033 0 .03-.002-.002.035.003.031 0-.003-.002.034.033.03.031-.002-.002.035.002.031 0-.003-.002.004.033 0 .03.01.007.034.002.031 0l.061.031c-.005-.002.036.003.03 0-.005-.002.037.033.031.031-.005-.002.037.002.031 0l.061.03h.061a.52.52 0 0 0 .031 0h.122a.52.52 0 0 0 .184-.06c-.004 0 .035-.002.03 0-.003.001.035-.033.031-.031a.52.52 0 0 0 .061-.03l.031-.031c-.004.003.034-.004.03 0-.003.003.004-.035 0-.031l.031-.03a.52.52 0 0 0 .03 0l5.814-5.722a.52.52 0 0 0 .062-.062c-.003.004.002-.034 0-.03-.003.003.032-.034.03-.03-.002.003.002-.035 0-.031l.03-.031c0 .004.033-.034.031-.03-.001.003.002-.035 0-.031a.071.071 0 0 1 0-.03c.004-.009.032-.003.031 0-.002.003.001-.035 0-.031V8.22a.52.52 0 0 0 .03-.122v-.122a.52.52 0 0 0-.03-.123v-.03c.001.003-.002-.035 0-.031 0 .002-.027.007-.03 0 0 .004-.002-.035 0-.03 0 .003-.002-.035 0-.032.001.004-.033-.034-.031-.03 0 .002.004-.024 0-.03 0 .001-.027.007-.03 0 .001.003-.003-.035 0-.031.001.003-.034-.034-.031-.03.002.003-.003-.035 0-.032a.52.52 0 0 0-.062-.06l-5.813-5.753a.52.52 0 0 0-.061-.061c.003.002-.034-.003-.031 0l-.03-.03a.06.06 0 0 1-.031 0c.003.001-.034-.034-.03-.032a.439.439 0 0 1-.031-.03c.003.002-.035-.002-.031 0a.071.071 0 0 1-.03 0c-.008-.003-.003-.031 0-.03.003 0-.035-.002-.031 0 .004 0-.035-.002-.03 0a.52.52 0 0 0-.123-.031h-.183a.52.52 0 0 0-.062 0zM.63 3.08a.52.52 0 0 0-.153.092.52.52 0 0 0-.184.123c.003-.003-.003.033 0 .03a.52.52 0 0 0-.03.031c.002-.003-.033.003-.031 0a.52.52 0 0 0 0 .03l-.03.031c.002-.003-.003.034 0 .03.001-.003-.033.004-.031 0-.006.011-.002.034 0 .031a4.58 4.58 0 0 1-.03.062c.002-.006-.003.036 0 .03.001-.005-.033.036-.031.03.001-.005-.002.037 0 .031.001-.005-.032.067-.031.062v.06a.52.52 0 0 0 0 .062v16.798a.52.52 0 0 0 .03.123.15.15 0 0 0 0 .03.15.15 0 0 0 0 .03c0-.003.033.035.031.031-.002-.003.002.035 0 .03l.03.032c-.001-.004.003.034 0 .03.005.007.033.002.031 0-.002-.003.003.034 0 .03-.002-.003.033.035.031.031-.002-.003.002.034 0 .03-.002-.002.033.004.03 0l.031.032c-.003-.003.003.033 0 .03-.003-.003.034.003.03 0l.031.03c-.003-.002.004.034 0 .031-.003-.002.034.003.031 0l.03.03c-.003-.001.035.003.031 0-.003-.001.004.033 0 .032.01.005.033 0 .03 0l.062.03c-.005-.002.036.002.03 0-.005-.002.037.033.031.03-.005-.001.036.002.03 0-.005 0 .068.033.062.031h.061a.52.52 0 0 0 .061 0h18.175a.52.52 0 0 0 .123-.03c-.004.001.034-.002.03 0-.003.001.035-.002.031 0-.004.001.034-.033.03-.03-.003 0 .035-.003.031 0-.003.001.034-.034.03-.031-.003.002.035-.033.031-.031-.003.002.034-.003.031 0l.03-.03c-.003.002.034-.003.031 0-.003.002.003-.034 0-.031l.03-.03c-.002.002.034-.004.031 0-.002.002.003-.034 0-.031l.031-.031c-.003.003.033-.003.03 0-.002.003.003-.034 0-.03-.002.003.033-.035.031-.031-.002.003.002-.034 0-.03-.003.004.034-.037.03-.031l.031-.062c-.002.006.003-.036 0-.03-.002.005.033-.036.031-.03-.002.005.002-.037 0-.031l.03-.062v-.06a.52.52 0 0 0 0-.062v-7.283a.52.52 0 0 0-.03-.123v-.03c.001.004-.002-.035 0-.03l-.03-.032c.001.004-.002-.034 0-.03.001.004-.033-.034-.031-.03 0 .001.004-.024 0-.031.002.003-.033-.004-.03 0 .001.003-.003-.034 0-.03l-.031-.032c.002.004-.003-.033 0-.03.002.003-.034-.003-.031 0l-.03-.03c.002.002-.003-.034 0-.031.002.003-.034-.003-.031 0l-.03-.03c.002.002-.004-.034 0-.031.002.002-.035-.003-.031 0l-.031-.031c.003.002-.034-.002-.03 0 .003.002-.004-.033 0-.03-.011-.007-.034-.002-.031 0a4.144 4.144 0 0 1-.061-.031c.005.002-.036-.002-.031 0 .006.002-.036-.033-.03-.03.005.001-.037-.002-.031 0 .006 0-.067-.033-.061-.031h-.062a.52.52 0 0 0-.03 0h-.123a.52.52 0 0 0-.153.06.52.52 0 0 0-.091.031c.004-.001-.035.002-.03 0l-.032.03c.004-.001-.034.034-.03.032.003-.003-.034.002-.03 0a.52.52 0 0 0-.031.06.52.52 0 0 0-.03 0l-2.663 2.602a.52.52 0 0 0-.061.06c.002-.003-.002.035 0 .031l-.03.03c.001-.003-.033.035-.031.032.002-.004-.002.034 0 .03.001-.004-.032.035-.03.03 0-.003-.002.035 0 .031 0-.002.002.023 0 .03-.004.009-.032.003-.031 0 .001-.003-.002.035 0 .031 0-.003-.002.035 0 .031a.52.52 0 0 0-.031.122v1.286H4.24V7.15h4.069a.52.52 0 0 0 .092-.03.52.52 0 0 0 .153-.031c-.004.002.034-.033.03-.03-.003.001.034-.034.03-.031-.003.002.035-.003.031 0l3.948-2.601a.52.52 0 0 0 .06-.03l.031-.031.03-.03c-.004.004.036-.067.032-.062-.005.005.034-.036.03-.03-.004.005.034-.037.03-.031 0 .002-.004-.022 0-.03-.002.003.033-.035.031-.031-.003.006.033-.037.03-.031 0 .003-.004-.018 0-.03a.071.071 0 0 1 0-.031c.004-.008.032-.002.031 0-.001.004.002-.035 0-.03 0 .003.002-.035 0-.031a.52.52 0 0 0 .031-.123v-.122a.52.52 0 0 0-.03-.123c0 .004-.002-.034 0-.03 0 .004-.002-.035 0-.03 0 .001-.028.007-.031 0V3.54c.001.003-.002-.035 0-.031.001.004-.032-.034-.03-.03.001.003-.003-.035 0-.031 0 .002-.027.007-.031 0 .002.003-.003-.034 0-.03l-.03-.031c.001.003-.003-.034 0-.031a.52.52 0 0 0-.062-.061 3.266 3.266 0 0 1-.03-.03l-.031-.031c.003.002-.034-.003-.03 0 .003.002-.035-.033-.031-.031l-.031-.03c.004.001-.034-.033-.03-.031.003.002-.035-.002-.031 0 .004.002-.035-.002-.03 0 .003.001-.035-.032-.031-.03.004 0-.035-.002-.031 0 .004 0-.035-.002-.03 0 .003 0-.035-.032-.031-.031h-.061a.52.52 0 0 0-.031 0H.69a.52.52 0 0 0-.061 0z"/>
    <path fill="#fff" d="M16.064 2.188v2.873c-8.872.057-8.7 8.606-8.7 8.606s3.163-4.297 8.7-3.442v3.442l5.797-5.734-5.797-5.745zM.624 3.723V20.46H18.75v-7.227l-2.655 2.602v1.97H3.331V6.336H8.08l3.94-2.613H.625z"/>
</svg>
