<?xml version="1.0" encoding="UTF-8"?>
<svg xmlns="http://www.w3.org/2000/svg" xmlns:xlink="http://www.w3.org/1999/xlink" width="16" height="16" viewBox="0 0 4.233 4.233">
	<defs>
		<radialGradient id="b" cx="2.117" cy="1.852" r="1.521" fx="2.117" fy="1.852" gradientTransform="matrix(1.04348 0 0 1 -.092 0)" gradientUnits="userSpaceOnUse" xlink:href="#a"/>
		<linearGradient id="a">
			<stop offset="0" stop-color="#f60f0f"/>
			<stop offset=".696" stop-color="#f97e54"/>
			<stop offset="1" stop-color="#f10000"/>
		</linearGradient>
	</defs>
	<path fill="url(#b)" fill-rule="evenodd" d="M.794 1.323l.264-.53.53-.264c.264-.264.793-.264 1.058 0l.529.265.265.529c.264.264.264.794 0 1.058l-.265.53-.53.264c-.264.265-.793.265-1.058 0l-.529-.265-.264-.529c-.265-.264-.265-.794 0-1.058z"/>
	<path fill="#fff" d="M1.588 1.323h.265v.265h-.265z"/>
	<path fill="#fff" d="M1.852 1.587v.53h.529v-.53h-.264zm.529.53h.265v.265h-.265z"/>
	<path fill="#fff" d="M2.381 1.323h.265v.265h-.265zm-.793.794h.265v.265h-.265z"/>
	<path fill="#faa" d="M1.587 1.058v.265h.265v-.265zm0 .265h-.264v.264h.264zm.794-.265v.265h.265v-.265zm.265.265v.264h.264v-.264zm-1.323.794v.264h.264v-.264zm.264.264v.265h.265V2.38zm1.059-.264v.264h.264v-.264zm0 .264H2.38v.265h.265z"/>
	<path fill="#ffb5b5" d="M1.852 1.323v.264h.53v-.264zm.53.264v.53h.264v-.53zm0 .53h-.53v.264h.53zm-.53 0v-.53h-.265v.53z"/>
	<path fill="#ffd5d5" d="M1.323 1.058v.265h.264v-.265zm1.323 0v.265h.264v-.265zM1.323 2.381v.265h.264V2.38zm1.323 0v.265h.264V2.38z"/>
	<path fill="#8b8b8b" d="M1.587.265v.264h.794V.265zm0 .264h-.529v.265h.53zm-.529.265H.794v.529h.264zm-.264.529H.529V2.38h.265zm0 1.058v.53h.264v-.53zm.264.53v.264h.53V2.91zm.53.264v.265h.264v-.265z"/>
	<path fill="#4e4e4e" d="M2.381.265v.264h.265V.265zm.265.264v.265h.529V.529zm.529.265v.529h.265v-.53zm.265.529V2.38h.264V1.323zm0 1.058h-.265v.53h.265zm-.265.53h-.53v.264h.53zm-.53.264h-.793v.265h.794z"/>
	<path fill="#fff" fill-rule="evenodd" d="M1.587 1.058l-.264.265.53.53-.53.528.264.265.53-.53.529.53.264-.265-.529-.529.53-.53-.265-.264-.53.53z"/>
</svg>
