<?xml version="1.0" encoding="UTF-8"?>
<svg xmlns="http://www.w3.org/2000/svg" xmlns:xlink="http://www.w3.org/1999/xlink" width="16" height="16" viewBox="0 0 4.233 4.233">
	<defs>
		<linearGradient id="c">
			<stop offset="0" stop-color="#172bb3"/>
			<stop offset=".804" stop-color="#b1d6e5"/>
			<stop offset="1" stop-color="#5c8dc7"/>
		</linearGradient>
		<linearGradient id="b">
			<stop offset="0" stop-color="#e4c19d"/>
			<stop offset="1" stop-color="#975f18" stop-opacity=".977"/>
		</linearGradient>
		<linearGradient id="a">
			<stop offset="0" stop-color="#fff"/>
			<stop offset="1" stop-color="#bdd7f3"/>
		</linearGradient>
		<radialGradient id="f" cx="12.249" cy="1.424" r=".728" fx="12.249" fy="1.424" gradientTransform="matrix(-.82724 -.02009 .02428 -.9997 12.12 3.422)" gradientUnits="userSpaceOnUse" xlink:href="#a"/>
		<radialGradient id="e" cx="2.888" cy="2.578" r=".562" fx="2.888" fy="2.578" gradientTransform="rotate(-45 1.469 1.846) scale(.66551 1.33104)" gradientUnits="userSpaceOnUse" xlink:href="#b"/>
		<radialGradient id="d" cx="1.79" cy="1.499" r="1.224" fx="1.79" fy="1.499" gradientUnits="userSpaceOnUse" xlink:href="#c"/>
	</defs>
	<path fill="url(#d)" fill-rule="evenodd" d="M.794 1.058c-.265.265-.265.794 0 1.059l.529.529 1.19.132.53-.529-.133-1.19-.529-.53c-.264-.264-.793-.264-1.058 0z"/>
	<path fill="url(#e)" fill-rule="evenodd" d="M2.91 2.117l.265.264.265.265c.264.264.264.264 0 .529-.265.265-.265.265-.53 0l-.264-.265-.132-.396.132-.133v-.264z"/>
	<path fill="url(#f)" fill-rule="evenodd" d="M2.117 2.117c-.265.264-.265.264-.53 0l-.264-.265c-.265-.265-.265-.265 0-.53l.265-.264c.264-.264.264-.264.529 0l.264.265c.265.264.265.264 0 .53z"/>
	<path fill="#4e4e4e" d="M2.381.53v.264h.265V.529zm.265.264v.264h.264V.794zm.264.264v1.323h.265V1.058zm.265 1.323v.265h.265V2.38zm.265.265v.529h.264v-.53zm0 .529h-.265v.265h.265zM1.587.794v.264h.53V.794zm0 .264h-.264v.265h.264zm-.264.265h-.265v.53h.265zm0 .53v.264h.264v-.265zm.264.793v.264h1.059v-.529H2.38v.265z"/>
	<path fill="#a3a3a3" d="M1.323.265v.264H2.38V.265zm0 .264h-.265v.265h.265zm-.265.265H.794v.264h.264zm-.264.264H.529v1.059h.265zm0 1.059v.264h.264v-.264zm.264.264v.265h.265V2.38zm.265.265v.264h.264v-.264zm.794-1.588v.265h.264v-.265zm.264.265v.53h.265v-.53zm0 .53h-.264v.264h.264zm-.264.264h-.53v.264h.53zm.529.793v.265h.264V2.91zm.264.265v.265h.265v-.265z"/>
	<path fill="#fff" fill-rule="evenodd" d="M1.69 1.267c-.153.038-.197.382-.197.382.148-.268.301-.19.317-.309.007-.052-.048-.091-.12-.073z"/>
	<path fill="#a3a3a3" d="M1.587 3.175v.265h.794v-.265z"/>
	<path fill="#e6e6e6" d="M1.058 3.175v.265h.53v-.265zm1.323 0v.265h.265v-.265z"/>
</svg>
